G04 EAGLE Gerber X2 export*
%TF.Part,Single*%
%TF.FileFunction,Copper,L2,Bot,Mixed*%
%TF.FilePolarity,Positive*%
%TF.GenerationSoftware,Autodesk,EAGLE,9.0.1*%
%TF.CreationDate,2018-05-22T13:38:53Z*%
G75*
%MOMM*%
%FSLAX34Y34*%
%LPD*%
%AMOC8*
5,1,8,0,0,1.08239X$1,22.5*%
G01*
%ADD10C,2.100000*%
%ADD11C,1.950000*%
%ADD12C,3.000000*%
%ADD13C,1.650000*%
%ADD14C,4.000000*%
%ADD15P,1.429621X8X112.500000*%
%ADD16C,1.320800*%
%ADD17P,1.649562X8X202.500000*%
%ADD18P,2.336880X8X22.500000*%
%ADD19P,1.429621X8X292.500000*%
%ADD20C,0.756400*%
%ADD21C,0.406400*%

G36*
X195419Y10172D02*
X195419Y10172D01*
X195490Y10174D01*
X195539Y10192D01*
X195591Y10200D01*
X195654Y10234D01*
X195721Y10259D01*
X195762Y10291D01*
X195808Y10316D01*
X195857Y10368D01*
X195913Y10412D01*
X195941Y10456D01*
X195977Y10494D01*
X196008Y10559D01*
X196046Y10619D01*
X196059Y10670D01*
X196081Y10717D01*
X196089Y10788D01*
X196106Y10858D01*
X196102Y10910D01*
X196108Y10961D01*
X196093Y11032D01*
X196087Y11103D01*
X196067Y11151D01*
X196056Y11202D01*
X196019Y11263D01*
X195991Y11329D01*
X195946Y11385D01*
X195930Y11413D01*
X195912Y11428D01*
X195886Y11460D01*
X195865Y11481D01*
X191895Y18358D01*
X189839Y26029D01*
X189839Y33971D01*
X191895Y41642D01*
X195865Y48519D01*
X201481Y54135D01*
X208358Y58105D01*
X216029Y60161D01*
X223971Y60161D01*
X231642Y58105D01*
X238519Y54135D01*
X238540Y54114D01*
X238598Y54072D01*
X238650Y54023D01*
X238697Y54001D01*
X238739Y53970D01*
X238808Y53949D01*
X238873Y53919D01*
X238925Y53913D01*
X238974Y53898D01*
X239046Y53900D01*
X239117Y53892D01*
X239168Y53903D01*
X239220Y53904D01*
X239288Y53929D01*
X239358Y53944D01*
X239402Y53971D01*
X239451Y53989D01*
X239507Y54034D01*
X239569Y54070D01*
X239603Y54110D01*
X239643Y54142D01*
X239682Y54203D01*
X239729Y54257D01*
X239748Y54306D01*
X239776Y54349D01*
X239794Y54419D01*
X239821Y54486D01*
X239829Y54557D01*
X239837Y54588D01*
X239835Y54611D01*
X239839Y54652D01*
X239839Y414771D01*
X241386Y418506D01*
X244244Y421364D01*
X247979Y422911D01*
X262021Y422911D01*
X265756Y421364D01*
X268614Y418506D01*
X270161Y414771D01*
X270161Y54652D01*
X270172Y54581D01*
X270174Y54510D01*
X270192Y54461D01*
X270200Y54409D01*
X270234Y54346D01*
X270259Y54279D01*
X270291Y54238D01*
X270316Y54192D01*
X270368Y54143D01*
X270412Y54087D01*
X270456Y54059D01*
X270494Y54023D01*
X270559Y53992D01*
X270619Y53954D01*
X270670Y53941D01*
X270717Y53919D01*
X270788Y53911D01*
X270858Y53894D01*
X270910Y53898D01*
X270961Y53892D01*
X271032Y53907D01*
X271103Y53913D01*
X271151Y53933D01*
X271202Y53944D01*
X271263Y53981D01*
X271329Y54009D01*
X271385Y54054D01*
X271413Y54070D01*
X271428Y54088D01*
X271460Y54114D01*
X271481Y54135D01*
X278358Y58105D01*
X286029Y60161D01*
X293971Y60161D01*
X301642Y58105D01*
X308519Y54135D01*
X314135Y48519D01*
X318105Y41642D01*
X320161Y33971D01*
X320161Y26029D01*
X318105Y18358D01*
X314135Y11481D01*
X314114Y11460D01*
X314072Y11402D01*
X314023Y11350D01*
X314001Y11303D01*
X313970Y11261D01*
X313949Y11192D01*
X313919Y11127D01*
X313913Y11075D01*
X313898Y11026D01*
X313900Y10954D01*
X313892Y10883D01*
X313903Y10832D01*
X313904Y10780D01*
X313929Y10712D01*
X313944Y10642D01*
X313971Y10598D01*
X313989Y10549D01*
X314034Y10493D01*
X314070Y10431D01*
X314110Y10397D01*
X314142Y10357D01*
X314203Y10318D01*
X314257Y10271D01*
X314306Y10252D01*
X314349Y10224D01*
X314419Y10206D01*
X314486Y10179D01*
X314557Y10171D01*
X314588Y10163D01*
X314611Y10165D01*
X314652Y10161D01*
X455348Y10161D01*
X455419Y10172D01*
X455490Y10174D01*
X455539Y10192D01*
X455591Y10200D01*
X455654Y10234D01*
X455721Y10259D01*
X455762Y10291D01*
X455808Y10316D01*
X455857Y10368D01*
X455913Y10412D01*
X455941Y10456D01*
X455977Y10494D01*
X456008Y10559D01*
X456046Y10619D01*
X456059Y10670D01*
X456081Y10717D01*
X456089Y10788D01*
X456106Y10858D01*
X456102Y10910D01*
X456108Y10961D01*
X456093Y11032D01*
X456087Y11103D01*
X456067Y11151D01*
X456056Y11202D01*
X456019Y11263D01*
X455991Y11329D01*
X455946Y11385D01*
X455930Y11413D01*
X455912Y11428D01*
X455886Y11460D01*
X455865Y11481D01*
X451895Y18358D01*
X449839Y26029D01*
X449839Y33971D01*
X451895Y41642D01*
X455865Y48519D01*
X461481Y54135D01*
X468358Y58105D01*
X476029Y60161D01*
X483971Y60161D01*
X491642Y58105D01*
X498519Y54135D01*
X498540Y54114D01*
X498598Y54072D01*
X498650Y54023D01*
X498697Y54001D01*
X498739Y53970D01*
X498808Y53949D01*
X498873Y53919D01*
X498925Y53913D01*
X498974Y53898D01*
X499046Y53900D01*
X499117Y53892D01*
X499168Y53903D01*
X499220Y53904D01*
X499288Y53929D01*
X499358Y53944D01*
X499402Y53971D01*
X499451Y53989D01*
X499507Y54034D01*
X499569Y54070D01*
X499603Y54110D01*
X499643Y54142D01*
X499682Y54203D01*
X499729Y54257D01*
X499748Y54306D01*
X499776Y54349D01*
X499794Y54419D01*
X499821Y54486D01*
X499829Y54557D01*
X499837Y54588D01*
X499835Y54611D01*
X499839Y54652D01*
X499839Y414771D01*
X501386Y418506D01*
X504244Y421364D01*
X507979Y422911D01*
X522021Y422911D01*
X525756Y421364D01*
X528614Y418506D01*
X530161Y414771D01*
X530161Y54652D01*
X530172Y54581D01*
X530174Y54510D01*
X530192Y54461D01*
X530200Y54409D01*
X530234Y54346D01*
X530259Y54279D01*
X530291Y54238D01*
X530316Y54192D01*
X530368Y54143D01*
X530412Y54087D01*
X530456Y54059D01*
X530494Y54023D01*
X530559Y53992D01*
X530619Y53954D01*
X530670Y53941D01*
X530717Y53919D01*
X530788Y53911D01*
X530858Y53894D01*
X530910Y53898D01*
X530961Y53892D01*
X531032Y53907D01*
X531103Y53913D01*
X531151Y53933D01*
X531202Y53944D01*
X531263Y53981D01*
X531329Y54009D01*
X531385Y54054D01*
X531413Y54070D01*
X531428Y54088D01*
X531460Y54114D01*
X531481Y54135D01*
X538358Y58105D01*
X546029Y60161D01*
X553971Y60161D01*
X561642Y58105D01*
X568519Y54135D01*
X574135Y48519D01*
X578105Y41642D01*
X580161Y33971D01*
X580161Y26029D01*
X578105Y18358D01*
X574135Y11481D01*
X574114Y11460D01*
X574072Y11402D01*
X574023Y11350D01*
X574001Y11303D01*
X573970Y11261D01*
X573949Y11192D01*
X573919Y11127D01*
X573913Y11075D01*
X573898Y11026D01*
X573900Y10954D01*
X573892Y10883D01*
X573903Y10832D01*
X573904Y10780D01*
X573929Y10712D01*
X573944Y10642D01*
X573971Y10598D01*
X573989Y10549D01*
X574034Y10493D01*
X574070Y10431D01*
X574110Y10397D01*
X574142Y10357D01*
X574203Y10318D01*
X574257Y10271D01*
X574306Y10252D01*
X574349Y10224D01*
X574419Y10206D01*
X574486Y10179D01*
X574557Y10171D01*
X574588Y10163D01*
X574611Y10165D01*
X574652Y10161D01*
X915348Y10161D01*
X915419Y10172D01*
X915490Y10174D01*
X915539Y10192D01*
X915591Y10200D01*
X915654Y10234D01*
X915721Y10259D01*
X915762Y10291D01*
X915808Y10316D01*
X915857Y10368D01*
X915913Y10412D01*
X915941Y10456D01*
X915977Y10494D01*
X916008Y10559D01*
X916046Y10619D01*
X916059Y10670D01*
X916081Y10717D01*
X916089Y10788D01*
X916106Y10858D01*
X916102Y10910D01*
X916108Y10961D01*
X916093Y11032D01*
X916087Y11103D01*
X916067Y11151D01*
X916056Y11202D01*
X916019Y11263D01*
X915991Y11329D01*
X915946Y11385D01*
X915930Y11413D01*
X915912Y11428D01*
X915886Y11460D01*
X915865Y11481D01*
X911895Y18358D01*
X909839Y26029D01*
X909839Y33971D01*
X911895Y41642D01*
X915865Y48519D01*
X921481Y54135D01*
X928358Y58105D01*
X936029Y60161D01*
X943971Y60161D01*
X951642Y58105D01*
X958519Y54135D01*
X958540Y54114D01*
X958598Y54072D01*
X958650Y54023D01*
X958697Y54001D01*
X958739Y53970D01*
X958808Y53949D01*
X958873Y53919D01*
X958925Y53913D01*
X958974Y53898D01*
X959046Y53900D01*
X959117Y53892D01*
X959168Y53903D01*
X959220Y53904D01*
X959288Y53929D01*
X959358Y53944D01*
X959402Y53971D01*
X959451Y53989D01*
X959507Y54034D01*
X959569Y54070D01*
X959603Y54110D01*
X959643Y54142D01*
X959682Y54203D01*
X959729Y54257D01*
X959748Y54306D01*
X959776Y54349D01*
X959794Y54419D01*
X959821Y54486D01*
X959829Y54557D01*
X959837Y54588D01*
X959835Y54611D01*
X959839Y54652D01*
X959839Y895348D01*
X959828Y895419D01*
X959826Y895490D01*
X959808Y895539D01*
X959800Y895591D01*
X959766Y895654D01*
X959741Y895721D01*
X959709Y895762D01*
X959684Y895808D01*
X959632Y895857D01*
X959588Y895913D01*
X959544Y895941D01*
X959506Y895977D01*
X959441Y896008D01*
X959381Y896046D01*
X959330Y896059D01*
X959283Y896081D01*
X959212Y896089D01*
X959142Y896106D01*
X959090Y896102D01*
X959039Y896108D01*
X958968Y896093D01*
X958897Y896087D01*
X958849Y896067D01*
X958798Y896056D01*
X958737Y896019D01*
X958671Y895991D01*
X958615Y895946D01*
X958587Y895930D01*
X958572Y895912D01*
X958540Y895886D01*
X958519Y895865D01*
X951642Y891895D01*
X943971Y889839D01*
X936029Y889839D01*
X928358Y891895D01*
X921481Y895865D01*
X915865Y901481D01*
X911895Y908358D01*
X909839Y916029D01*
X909839Y923971D01*
X911895Y931642D01*
X915865Y938519D01*
X915886Y938540D01*
X915928Y938598D01*
X915977Y938650D01*
X915999Y938697D01*
X916030Y938739D01*
X916051Y938808D01*
X916081Y938873D01*
X916087Y938925D01*
X916102Y938974D01*
X916100Y939046D01*
X916108Y939117D01*
X916097Y939168D01*
X916096Y939220D01*
X916071Y939288D01*
X916056Y939358D01*
X916029Y939402D01*
X916011Y939451D01*
X915966Y939507D01*
X915930Y939569D01*
X915890Y939603D01*
X915858Y939643D01*
X915797Y939682D01*
X915743Y939729D01*
X915694Y939748D01*
X915651Y939776D01*
X915581Y939794D01*
X915514Y939821D01*
X915443Y939829D01*
X915412Y939837D01*
X915389Y939835D01*
X915348Y939839D01*
X574652Y939839D01*
X574581Y939828D01*
X574510Y939826D01*
X574461Y939808D01*
X574409Y939800D01*
X574346Y939766D01*
X574279Y939741D01*
X574238Y939709D01*
X574192Y939684D01*
X574143Y939632D01*
X574087Y939588D01*
X574059Y939544D01*
X574023Y939506D01*
X573992Y939441D01*
X573954Y939381D01*
X573941Y939330D01*
X573919Y939283D01*
X573911Y939212D01*
X573894Y939142D01*
X573898Y939090D01*
X573892Y939039D01*
X573907Y938968D01*
X573913Y938897D01*
X573933Y938849D01*
X573944Y938798D01*
X573981Y938737D01*
X574009Y938671D01*
X574054Y938615D01*
X574070Y938587D01*
X574088Y938572D01*
X574114Y938540D01*
X574135Y938519D01*
X578105Y931642D01*
X580161Y923971D01*
X580161Y916029D01*
X578105Y908358D01*
X574135Y901481D01*
X568519Y895865D01*
X561642Y891895D01*
X553971Y889839D01*
X546029Y889839D01*
X538358Y891895D01*
X531481Y895865D01*
X531460Y895886D01*
X531402Y895928D01*
X531350Y895977D01*
X531303Y895999D01*
X531261Y896030D01*
X531192Y896051D01*
X531127Y896081D01*
X531075Y896087D01*
X531026Y896102D01*
X530954Y896100D01*
X530883Y896108D01*
X530832Y896097D01*
X530780Y896096D01*
X530712Y896071D01*
X530642Y896056D01*
X530598Y896029D01*
X530549Y896011D01*
X530493Y895966D01*
X530431Y895930D01*
X530397Y895890D01*
X530357Y895858D01*
X530318Y895797D01*
X530271Y895743D01*
X530252Y895694D01*
X530224Y895651D01*
X530206Y895581D01*
X530179Y895514D01*
X530171Y895443D01*
X530163Y895412D01*
X530165Y895389D01*
X530161Y895348D01*
X530161Y448829D01*
X528614Y445094D01*
X525756Y442236D01*
X522021Y440689D01*
X507979Y440689D01*
X504244Y442236D01*
X501386Y445094D01*
X499839Y448829D01*
X499839Y895348D01*
X499828Y895419D01*
X499826Y895490D01*
X499808Y895539D01*
X499800Y895591D01*
X499766Y895654D01*
X499741Y895721D01*
X499709Y895762D01*
X499684Y895808D01*
X499632Y895857D01*
X499588Y895913D01*
X499544Y895941D01*
X499506Y895977D01*
X499441Y896008D01*
X499381Y896046D01*
X499330Y896059D01*
X499283Y896081D01*
X499212Y896089D01*
X499142Y896106D01*
X499090Y896102D01*
X499039Y896108D01*
X498968Y896093D01*
X498897Y896087D01*
X498849Y896067D01*
X498798Y896056D01*
X498737Y896019D01*
X498671Y895991D01*
X498615Y895946D01*
X498587Y895930D01*
X498572Y895912D01*
X498540Y895886D01*
X498519Y895865D01*
X491642Y891895D01*
X483971Y889839D01*
X476029Y889839D01*
X468358Y891895D01*
X461481Y895865D01*
X455865Y901481D01*
X451895Y908358D01*
X449839Y916029D01*
X449839Y923971D01*
X451895Y931642D01*
X455865Y938519D01*
X455886Y938540D01*
X455928Y938598D01*
X455977Y938650D01*
X455999Y938697D01*
X456030Y938739D01*
X456051Y938808D01*
X456081Y938873D01*
X456087Y938925D01*
X456102Y938974D01*
X456100Y939046D01*
X456108Y939117D01*
X456097Y939168D01*
X456096Y939220D01*
X456071Y939288D01*
X456056Y939358D01*
X456029Y939402D01*
X456011Y939451D01*
X455966Y939507D01*
X455930Y939569D01*
X455890Y939603D01*
X455858Y939643D01*
X455797Y939682D01*
X455743Y939729D01*
X455694Y939748D01*
X455651Y939776D01*
X455581Y939794D01*
X455514Y939821D01*
X455443Y939829D01*
X455412Y939837D01*
X455389Y939835D01*
X455348Y939839D01*
X314652Y939839D01*
X314581Y939828D01*
X314510Y939826D01*
X314461Y939808D01*
X314409Y939800D01*
X314346Y939766D01*
X314279Y939741D01*
X314238Y939709D01*
X314192Y939684D01*
X314143Y939632D01*
X314087Y939588D01*
X314059Y939544D01*
X314023Y939506D01*
X313992Y939441D01*
X313954Y939381D01*
X313941Y939330D01*
X313919Y939283D01*
X313911Y939212D01*
X313894Y939142D01*
X313898Y939090D01*
X313892Y939039D01*
X313907Y938968D01*
X313913Y938897D01*
X313933Y938849D01*
X313944Y938798D01*
X313981Y938737D01*
X314009Y938671D01*
X314054Y938615D01*
X314070Y938587D01*
X314088Y938572D01*
X314114Y938540D01*
X314135Y938519D01*
X318105Y931642D01*
X320161Y923971D01*
X320161Y916029D01*
X318105Y908358D01*
X314135Y901481D01*
X308519Y895865D01*
X301642Y891895D01*
X293971Y889839D01*
X286029Y889839D01*
X278358Y891895D01*
X271481Y895865D01*
X271460Y895886D01*
X271402Y895928D01*
X271350Y895977D01*
X271303Y895999D01*
X271261Y896030D01*
X271192Y896051D01*
X271127Y896081D01*
X271075Y896087D01*
X271026Y896102D01*
X270954Y896100D01*
X270883Y896108D01*
X270832Y896097D01*
X270780Y896096D01*
X270712Y896071D01*
X270642Y896056D01*
X270598Y896029D01*
X270549Y896011D01*
X270493Y895966D01*
X270431Y895930D01*
X270397Y895890D01*
X270357Y895858D01*
X270318Y895797D01*
X270271Y895743D01*
X270252Y895694D01*
X270224Y895651D01*
X270206Y895581D01*
X270179Y895514D01*
X270171Y895443D01*
X270163Y895412D01*
X270165Y895389D01*
X270161Y895348D01*
X270161Y448829D01*
X268614Y445094D01*
X265756Y442236D01*
X262021Y440689D01*
X247979Y440689D01*
X244244Y442236D01*
X241386Y445094D01*
X239839Y448829D01*
X239839Y895348D01*
X239828Y895419D01*
X239826Y895490D01*
X239808Y895539D01*
X239800Y895591D01*
X239766Y895654D01*
X239741Y895721D01*
X239709Y895762D01*
X239684Y895808D01*
X239632Y895857D01*
X239588Y895913D01*
X239544Y895941D01*
X239506Y895977D01*
X239441Y896008D01*
X239381Y896046D01*
X239330Y896059D01*
X239283Y896081D01*
X239212Y896089D01*
X239142Y896106D01*
X239090Y896102D01*
X239039Y896108D01*
X238968Y896093D01*
X238897Y896087D01*
X238849Y896067D01*
X238798Y896056D01*
X238737Y896019D01*
X238671Y895991D01*
X238615Y895946D01*
X238587Y895930D01*
X238572Y895912D01*
X238540Y895886D01*
X238519Y895865D01*
X231642Y891895D01*
X223971Y889839D01*
X216029Y889839D01*
X208358Y891895D01*
X201481Y895865D01*
X195865Y901481D01*
X191895Y908358D01*
X189839Y916029D01*
X189839Y923971D01*
X191895Y931642D01*
X195865Y938519D01*
X195886Y938540D01*
X195928Y938598D01*
X195977Y938650D01*
X195999Y938697D01*
X196030Y938739D01*
X196051Y938808D01*
X196081Y938873D01*
X196087Y938925D01*
X196102Y938974D01*
X196100Y939046D01*
X196108Y939117D01*
X196097Y939168D01*
X196096Y939220D01*
X196071Y939288D01*
X196056Y939358D01*
X196029Y939402D01*
X196011Y939451D01*
X195966Y939507D01*
X195930Y939569D01*
X195890Y939603D01*
X195858Y939643D01*
X195797Y939682D01*
X195743Y939729D01*
X195694Y939748D01*
X195651Y939776D01*
X195581Y939794D01*
X195514Y939821D01*
X195443Y939829D01*
X195412Y939837D01*
X195389Y939835D01*
X195348Y939839D01*
X54652Y939839D01*
X54581Y939828D01*
X54510Y939826D01*
X54461Y939808D01*
X54409Y939800D01*
X54346Y939766D01*
X54279Y939741D01*
X54238Y939709D01*
X54192Y939684D01*
X54143Y939632D01*
X54087Y939588D01*
X54059Y939544D01*
X54023Y939506D01*
X53992Y939441D01*
X53954Y939381D01*
X53941Y939330D01*
X53919Y939283D01*
X53911Y939212D01*
X53894Y939142D01*
X53898Y939090D01*
X53892Y939039D01*
X53907Y938968D01*
X53913Y938897D01*
X53933Y938849D01*
X53944Y938798D01*
X53981Y938737D01*
X54009Y938671D01*
X54054Y938615D01*
X54070Y938587D01*
X54088Y938572D01*
X54114Y938540D01*
X54135Y938519D01*
X58105Y931642D01*
X60161Y923971D01*
X60161Y916029D01*
X58105Y908358D01*
X54135Y901481D01*
X48519Y895865D01*
X41642Y891895D01*
X33971Y889839D01*
X26029Y889839D01*
X18358Y891895D01*
X11481Y895865D01*
X11460Y895886D01*
X11402Y895928D01*
X11350Y895977D01*
X11303Y895999D01*
X11261Y896030D01*
X11192Y896051D01*
X11127Y896081D01*
X11075Y896087D01*
X11026Y896102D01*
X10954Y896100D01*
X10883Y896108D01*
X10832Y896097D01*
X10780Y896096D01*
X10712Y896071D01*
X10642Y896056D01*
X10598Y896029D01*
X10549Y896011D01*
X10493Y895966D01*
X10431Y895930D01*
X10397Y895890D01*
X10357Y895858D01*
X10318Y895797D01*
X10271Y895743D01*
X10252Y895694D01*
X10224Y895651D01*
X10206Y895581D01*
X10179Y895514D01*
X10171Y895443D01*
X10163Y895412D01*
X10165Y895389D01*
X10161Y895348D01*
X10161Y54652D01*
X10172Y54581D01*
X10174Y54510D01*
X10192Y54461D01*
X10200Y54409D01*
X10234Y54346D01*
X10259Y54279D01*
X10291Y54238D01*
X10316Y54192D01*
X10368Y54143D01*
X10412Y54087D01*
X10456Y54059D01*
X10494Y54023D01*
X10559Y53992D01*
X10619Y53954D01*
X10670Y53941D01*
X10717Y53919D01*
X10788Y53911D01*
X10858Y53894D01*
X10910Y53898D01*
X10961Y53892D01*
X11032Y53907D01*
X11103Y53913D01*
X11151Y53933D01*
X11202Y53944D01*
X11263Y53981D01*
X11329Y54009D01*
X11385Y54054D01*
X11413Y54070D01*
X11428Y54088D01*
X11460Y54114D01*
X11481Y54135D01*
X18358Y58105D01*
X26029Y60161D01*
X33971Y60161D01*
X41642Y58105D01*
X48519Y54135D01*
X54135Y48519D01*
X58105Y41642D01*
X60161Y33971D01*
X60161Y26029D01*
X58105Y18358D01*
X54135Y11481D01*
X54114Y11460D01*
X54072Y11402D01*
X54023Y11350D01*
X54001Y11303D01*
X53970Y11261D01*
X53949Y11192D01*
X53919Y11127D01*
X53913Y11075D01*
X53898Y11026D01*
X53900Y10954D01*
X53892Y10883D01*
X53903Y10832D01*
X53904Y10780D01*
X53929Y10712D01*
X53944Y10642D01*
X53971Y10598D01*
X53989Y10549D01*
X54034Y10493D01*
X54070Y10431D01*
X54110Y10397D01*
X54142Y10357D01*
X54203Y10318D01*
X54257Y10271D01*
X54306Y10252D01*
X54349Y10224D01*
X54419Y10206D01*
X54486Y10179D01*
X54557Y10171D01*
X54588Y10163D01*
X54611Y10165D01*
X54652Y10161D01*
X195348Y10161D01*
X195419Y10172D01*
G37*
%LPC*%
G36*
X612854Y244209D02*
X612854Y244209D01*
X608888Y245852D01*
X605852Y248888D01*
X604209Y252854D01*
X604209Y257146D01*
X605852Y261112D01*
X608888Y264148D01*
X609957Y264591D01*
X610057Y264653D01*
X610157Y264713D01*
X610161Y264717D01*
X610166Y264721D01*
X610241Y264811D01*
X610317Y264899D01*
X610319Y264905D01*
X610323Y264910D01*
X610365Y265019D01*
X610409Y265128D01*
X610410Y265135D01*
X610411Y265140D01*
X610412Y265158D01*
X610427Y265294D01*
X610427Y352791D01*
X610413Y352881D01*
X610405Y352972D01*
X610393Y353001D01*
X610388Y353033D01*
X610345Y353114D01*
X610309Y353198D01*
X610283Y353230D01*
X610272Y353251D01*
X610249Y353273D01*
X610204Y353329D01*
X575427Y388106D01*
X575427Y681894D01*
X630904Y737371D01*
X630957Y737445D01*
X630979Y737470D01*
X630996Y737488D01*
X630997Y737492D01*
X631017Y737515D01*
X631029Y737545D01*
X631048Y737571D01*
X631075Y737658D01*
X631099Y737711D01*
X631100Y737722D01*
X631109Y737743D01*
X631113Y737784D01*
X631120Y737806D01*
X631119Y737838D01*
X631127Y737909D01*
X631127Y830188D01*
X631113Y830278D01*
X631105Y830369D01*
X631093Y830399D01*
X631088Y830431D01*
X631045Y830511D01*
X631009Y830595D01*
X630983Y830627D01*
X630972Y830648D01*
X630949Y830670D01*
X630904Y830726D01*
X625539Y836091D01*
X625539Y844509D01*
X631491Y850461D01*
X639909Y850461D01*
X645861Y844509D01*
X645861Y836091D01*
X640496Y830726D01*
X640443Y830652D01*
X640383Y830583D01*
X640371Y830553D01*
X640352Y830527D01*
X640325Y830440D01*
X640291Y830355D01*
X640287Y830314D01*
X640280Y830291D01*
X640281Y830259D01*
X640273Y830188D01*
X640273Y812777D01*
X640284Y812707D01*
X640286Y812635D01*
X640304Y812586D01*
X640312Y812535D01*
X640346Y812471D01*
X640371Y812404D01*
X640403Y812363D01*
X640428Y812317D01*
X640480Y812268D01*
X640524Y812212D01*
X640568Y812184D01*
X640606Y812148D01*
X640671Y812118D01*
X640731Y812079D01*
X640782Y812066D01*
X640829Y812044D01*
X640900Y812036D01*
X640970Y812019D01*
X641022Y812023D01*
X641073Y812017D01*
X641144Y812032D01*
X641215Y812038D01*
X641263Y812058D01*
X641314Y812069D01*
X641375Y812106D01*
X641441Y812134D01*
X641497Y812179D01*
X641525Y812196D01*
X641540Y812213D01*
X641572Y812239D01*
X643329Y813996D01*
X656304Y826971D01*
X656357Y827045D01*
X656417Y827115D01*
X656429Y827145D01*
X656448Y827171D01*
X656475Y827258D01*
X656509Y827343D01*
X656513Y827384D01*
X656520Y827406D01*
X656519Y827438D01*
X656527Y827509D01*
X656527Y830188D01*
X656513Y830278D01*
X656505Y830369D01*
X656493Y830399D01*
X656488Y830431D01*
X656445Y830511D01*
X656409Y830595D01*
X656383Y830627D01*
X656372Y830648D01*
X656349Y830670D01*
X656304Y830726D01*
X650939Y836091D01*
X650939Y844509D01*
X656891Y850461D01*
X665309Y850461D01*
X671261Y844509D01*
X671261Y836091D01*
X665896Y830726D01*
X665843Y830652D01*
X665783Y830583D01*
X665771Y830553D01*
X665752Y830527D01*
X665725Y830440D01*
X665691Y830355D01*
X665687Y830314D01*
X665680Y830291D01*
X665681Y830259D01*
X665673Y830188D01*
X665673Y823406D01*
X649796Y807529D01*
X649743Y807455D01*
X649683Y807385D01*
X649671Y807355D01*
X649652Y807329D01*
X649625Y807242D01*
X649591Y807157D01*
X649587Y807116D01*
X649580Y807094D01*
X649581Y807062D01*
X649573Y806991D01*
X649573Y718106D01*
X599796Y668329D01*
X599743Y668255D01*
X599683Y668185D01*
X599671Y668155D01*
X599652Y668129D01*
X599625Y668042D01*
X599591Y667957D01*
X599587Y667916D01*
X599580Y667894D01*
X599581Y667862D01*
X599573Y667791D01*
X599573Y462209D01*
X599587Y462119D01*
X599595Y462028D01*
X599607Y461999D01*
X599612Y461967D01*
X599655Y461886D01*
X599691Y461802D01*
X599717Y461770D01*
X599728Y461749D01*
X599751Y461727D01*
X599796Y461671D01*
X644573Y416894D01*
X644573Y382209D01*
X644587Y382119D01*
X644595Y382028D01*
X644607Y381999D01*
X644612Y381967D01*
X644655Y381886D01*
X644691Y381802D01*
X644717Y381770D01*
X644728Y381749D01*
X644751Y381727D01*
X644796Y381671D01*
X669573Y356894D01*
X669573Y265294D01*
X669592Y265179D01*
X669609Y265063D01*
X669611Y265058D01*
X669612Y265052D01*
X669667Y264949D01*
X669720Y264844D01*
X669725Y264840D01*
X669728Y264834D01*
X669812Y264754D01*
X669896Y264672D01*
X669902Y264668D01*
X669906Y264665D01*
X669923Y264657D01*
X670043Y264591D01*
X671112Y264148D01*
X674148Y261112D01*
X675791Y257146D01*
X675791Y252854D01*
X674148Y248888D01*
X671112Y245852D01*
X667146Y244209D01*
X662854Y244209D01*
X658888Y245852D01*
X655852Y248888D01*
X654209Y252854D01*
X654209Y257146D01*
X655852Y261112D01*
X658888Y264148D01*
X659957Y264591D01*
X660057Y264653D01*
X660157Y264713D01*
X660161Y264717D01*
X660166Y264721D01*
X660241Y264811D01*
X660317Y264899D01*
X660319Y264905D01*
X660323Y264910D01*
X660365Y265019D01*
X660409Y265128D01*
X660410Y265135D01*
X660411Y265140D01*
X660412Y265158D01*
X660427Y265294D01*
X660427Y352791D01*
X660413Y352881D01*
X660405Y352972D01*
X660393Y353001D01*
X660388Y353033D01*
X660345Y353114D01*
X660309Y353198D01*
X660283Y353230D01*
X660272Y353251D01*
X660249Y353273D01*
X660204Y353329D01*
X635427Y378106D01*
X635427Y412791D01*
X635413Y412881D01*
X635405Y412972D01*
X635393Y413001D01*
X635388Y413033D01*
X635345Y413114D01*
X635309Y413198D01*
X635283Y413230D01*
X635272Y413251D01*
X635249Y413273D01*
X635204Y413329D01*
X590427Y458106D01*
X590427Y671894D01*
X640204Y721671D01*
X640257Y721745D01*
X640317Y721815D01*
X640329Y721845D01*
X640348Y721871D01*
X640375Y721958D01*
X640409Y722043D01*
X640413Y722084D01*
X640420Y722106D01*
X640419Y722138D01*
X640427Y722209D01*
X640427Y732123D01*
X640416Y732193D01*
X640414Y732265D01*
X640396Y732314D01*
X640388Y732365D01*
X640354Y732429D01*
X640329Y732496D01*
X640297Y732537D01*
X640272Y732583D01*
X640220Y732632D01*
X640176Y732688D01*
X640132Y732716D01*
X640094Y732752D01*
X640029Y732782D01*
X639969Y732821D01*
X639918Y732834D01*
X639871Y732856D01*
X639800Y732864D01*
X639730Y732881D01*
X639678Y732877D01*
X639627Y732883D01*
X639556Y732868D01*
X639485Y732862D01*
X639437Y732842D01*
X639386Y732831D01*
X639325Y732794D01*
X639259Y732766D01*
X639203Y732721D01*
X639175Y732704D01*
X639160Y732687D01*
X639128Y732661D01*
X637371Y730904D01*
X584796Y678329D01*
X584743Y678255D01*
X584683Y678185D01*
X584671Y678155D01*
X584652Y678129D01*
X584625Y678042D01*
X584603Y677987D01*
X584601Y677982D01*
X584601Y677981D01*
X584591Y677957D01*
X584587Y677916D01*
X584580Y677894D01*
X584581Y677862D01*
X584573Y677791D01*
X584573Y392209D01*
X584587Y392119D01*
X584595Y392028D01*
X584607Y391999D01*
X584612Y391967D01*
X584655Y391886D01*
X584691Y391802D01*
X584717Y391770D01*
X584728Y391749D01*
X584751Y391727D01*
X584796Y391671D01*
X619573Y356894D01*
X619573Y265294D01*
X619592Y265179D01*
X619609Y265063D01*
X619611Y265058D01*
X619612Y265052D01*
X619667Y264949D01*
X619720Y264844D01*
X619725Y264840D01*
X619728Y264834D01*
X619812Y264754D01*
X619896Y264672D01*
X619902Y264668D01*
X619906Y264665D01*
X619923Y264657D01*
X620043Y264591D01*
X621112Y264148D01*
X624148Y261112D01*
X625791Y257146D01*
X625791Y252854D01*
X624148Y248888D01*
X621112Y245852D01*
X617146Y244209D01*
X612854Y244209D01*
G37*
%LPD*%
%LPC*%
G36*
X97854Y244209D02*
X97854Y244209D01*
X93888Y245852D01*
X90852Y248888D01*
X89209Y252854D01*
X89209Y257146D01*
X90852Y261112D01*
X93888Y264148D01*
X94957Y264591D01*
X95057Y264653D01*
X95157Y264713D01*
X95161Y264717D01*
X95166Y264721D01*
X95241Y264811D01*
X95317Y264899D01*
X95319Y264905D01*
X95323Y264910D01*
X95365Y265019D01*
X95409Y265128D01*
X95410Y265135D01*
X95411Y265140D01*
X95412Y265158D01*
X95427Y265294D01*
X95427Y291894D01*
X115204Y311671D01*
X115257Y311745D01*
X115317Y311815D01*
X115329Y311845D01*
X115348Y311871D01*
X115375Y311958D01*
X115409Y312043D01*
X115413Y312084D01*
X115420Y312106D01*
X115419Y312138D01*
X115427Y312209D01*
X115427Y487791D01*
X115413Y487881D01*
X115405Y487972D01*
X115393Y488001D01*
X115388Y488033D01*
X115345Y488114D01*
X115309Y488198D01*
X115283Y488230D01*
X115272Y488251D01*
X115249Y488273D01*
X115204Y488329D01*
X38329Y565204D01*
X35872Y567661D01*
X35814Y567703D01*
X35762Y567752D01*
X35715Y567774D01*
X35673Y567804D01*
X35604Y567826D01*
X35539Y567856D01*
X35487Y567861D01*
X35437Y567877D01*
X35366Y567875D01*
X35295Y567883D01*
X35244Y567872D01*
X35192Y567870D01*
X35124Y567846D01*
X35054Y567831D01*
X35009Y567804D01*
X34961Y567786D01*
X34905Y567741D01*
X34843Y567704D01*
X34809Y567665D01*
X34769Y567632D01*
X34730Y567572D01*
X34683Y567518D01*
X34664Y567469D01*
X34636Y567425D01*
X34618Y567356D01*
X34591Y567289D01*
X34583Y567218D01*
X34575Y567187D01*
X34577Y567164D01*
X34573Y567123D01*
X34573Y562209D01*
X34587Y562119D01*
X34595Y562028D01*
X34607Y561999D01*
X34612Y561967D01*
X34655Y561886D01*
X34691Y561802D01*
X34717Y561770D01*
X34728Y561749D01*
X34751Y561727D01*
X34796Y561671D01*
X104573Y491894D01*
X104573Y410294D01*
X104592Y410180D01*
X104609Y410063D01*
X104611Y410058D01*
X104612Y410052D01*
X104667Y409949D01*
X104720Y409844D01*
X104725Y409840D01*
X104728Y409834D01*
X104812Y409754D01*
X104896Y409672D01*
X104902Y409668D01*
X104906Y409665D01*
X104923Y409657D01*
X105043Y409591D01*
X106112Y409148D01*
X109148Y406112D01*
X110791Y402146D01*
X110791Y397854D01*
X109148Y393888D01*
X106112Y390852D01*
X102146Y389209D01*
X97854Y389209D01*
X93888Y390852D01*
X90852Y393888D01*
X89209Y397854D01*
X89209Y402146D01*
X90852Y406112D01*
X93888Y409148D01*
X94957Y409591D01*
X95057Y409653D01*
X95157Y409713D01*
X95161Y409717D01*
X95166Y409721D01*
X95241Y409811D01*
X95317Y409899D01*
X95319Y409905D01*
X95323Y409910D01*
X95365Y410019D01*
X95409Y410128D01*
X95410Y410135D01*
X95411Y410140D01*
X95412Y410158D01*
X95427Y410294D01*
X95427Y487791D01*
X95413Y487881D01*
X95405Y487972D01*
X95393Y488001D01*
X95388Y488033D01*
X95345Y488114D01*
X95309Y488198D01*
X95283Y488230D01*
X95272Y488251D01*
X95249Y488273D01*
X95204Y488329D01*
X25427Y558106D01*
X25427Y751894D01*
X32004Y758471D01*
X32057Y758545D01*
X32117Y758615D01*
X32129Y758645D01*
X32148Y758671D01*
X32175Y758758D01*
X32209Y758843D01*
X32213Y758884D01*
X32220Y758906D01*
X32219Y758938D01*
X32227Y759009D01*
X32227Y830188D01*
X32213Y830278D01*
X32205Y830369D01*
X32193Y830399D01*
X32188Y830431D01*
X32145Y830511D01*
X32109Y830595D01*
X32083Y830627D01*
X32072Y830648D01*
X32049Y830670D01*
X32004Y830726D01*
X26639Y836091D01*
X26639Y844509D01*
X32591Y850461D01*
X41009Y850461D01*
X46961Y844509D01*
X46961Y836091D01*
X41596Y830726D01*
X41543Y830652D01*
X41483Y830583D01*
X41471Y830553D01*
X41452Y830527D01*
X41425Y830440D01*
X41391Y830355D01*
X41387Y830314D01*
X41380Y830291D01*
X41381Y830259D01*
X41373Y830188D01*
X41373Y754906D01*
X34796Y748329D01*
X34751Y748266D01*
X34726Y748240D01*
X34721Y748230D01*
X34683Y748185D01*
X34671Y748155D01*
X34652Y748129D01*
X34625Y748042D01*
X34591Y747957D01*
X34587Y747916D01*
X34580Y747894D01*
X34581Y747862D01*
X34573Y747791D01*
X34573Y652877D01*
X34584Y652807D01*
X34586Y652735D01*
X34604Y652686D01*
X34612Y652635D01*
X34646Y652571D01*
X34671Y652504D01*
X34703Y652463D01*
X34728Y652417D01*
X34780Y652368D01*
X34824Y652312D01*
X34868Y652284D01*
X34906Y652248D01*
X34971Y652218D01*
X35031Y652179D01*
X35082Y652166D01*
X35129Y652144D01*
X35200Y652136D01*
X35270Y652119D01*
X35322Y652123D01*
X35373Y652117D01*
X35444Y652132D01*
X35515Y652138D01*
X35563Y652158D01*
X35614Y652169D01*
X35675Y652206D01*
X35741Y652234D01*
X35797Y652279D01*
X35825Y652296D01*
X35840Y652313D01*
X35872Y652339D01*
X95204Y711671D01*
X95257Y711745D01*
X95317Y711815D01*
X95329Y711845D01*
X95348Y711871D01*
X95375Y711958D01*
X95409Y712043D01*
X95413Y712084D01*
X95420Y712106D01*
X95419Y712138D01*
X95427Y712209D01*
X95427Y757791D01*
X95413Y757881D01*
X95405Y757972D01*
X95393Y758001D01*
X95388Y758033D01*
X95345Y758114D01*
X95309Y758198D01*
X95283Y758230D01*
X95272Y758251D01*
X95249Y758273D01*
X95204Y758329D01*
X60829Y792704D01*
X57627Y795906D01*
X57627Y799694D01*
X57704Y799771D01*
X57757Y799845D01*
X57817Y799915D01*
X57829Y799945D01*
X57848Y799971D01*
X57875Y800058D01*
X57909Y800143D01*
X57913Y800184D01*
X57920Y800206D01*
X57919Y800238D01*
X57927Y800309D01*
X57927Y829888D01*
X57913Y829978D01*
X57905Y830069D01*
X57893Y830099D01*
X57888Y830131D01*
X57845Y830211D01*
X57809Y830295D01*
X57783Y830327D01*
X57772Y830348D01*
X57749Y830370D01*
X57704Y830426D01*
X52039Y836091D01*
X52039Y844509D01*
X57991Y850461D01*
X66409Y850461D01*
X72361Y844509D01*
X72361Y836091D01*
X67296Y831026D01*
X67243Y830952D01*
X67183Y830883D01*
X67171Y830853D01*
X67152Y830827D01*
X67125Y830740D01*
X67091Y830655D01*
X67087Y830614D01*
X67080Y830591D01*
X67081Y830559D01*
X67073Y830488D01*
X67073Y799709D01*
X67087Y799619D01*
X67095Y799528D01*
X67107Y799499D01*
X67112Y799467D01*
X67155Y799386D01*
X67191Y799302D01*
X67217Y799270D01*
X67228Y799249D01*
X67251Y799227D01*
X67296Y799171D01*
X104573Y761894D01*
X104573Y708106D01*
X44796Y648329D01*
X44743Y648255D01*
X44683Y648185D01*
X44671Y648155D01*
X44652Y648129D01*
X44625Y648042D01*
X44591Y647957D01*
X44587Y647916D01*
X44580Y647894D01*
X44581Y647862D01*
X44573Y647791D01*
X44573Y572209D01*
X44587Y572119D01*
X44595Y572028D01*
X44607Y571999D01*
X44612Y571967D01*
X44655Y571886D01*
X44691Y571802D01*
X44717Y571770D01*
X44728Y571749D01*
X44751Y571727D01*
X44796Y571671D01*
X121671Y494796D01*
X124573Y491894D01*
X124573Y308106D01*
X104796Y288329D01*
X104743Y288255D01*
X104683Y288185D01*
X104671Y288155D01*
X104652Y288129D01*
X104625Y288042D01*
X104591Y287957D01*
X104587Y287916D01*
X104580Y287894D01*
X104581Y287862D01*
X104573Y287791D01*
X104573Y265294D01*
X104592Y265179D01*
X104609Y265063D01*
X104611Y265058D01*
X104612Y265052D01*
X104667Y264949D01*
X104720Y264844D01*
X104725Y264840D01*
X104728Y264834D01*
X104812Y264754D01*
X104896Y264672D01*
X104902Y264668D01*
X104906Y264665D01*
X104923Y264657D01*
X105043Y264591D01*
X106112Y264148D01*
X109148Y261112D01*
X110791Y257146D01*
X110791Y252854D01*
X109148Y248888D01*
X106112Y245852D01*
X102146Y244209D01*
X97854Y244209D01*
G37*
%LPD*%
%LPC*%
G36*
X357854Y244209D02*
X357854Y244209D01*
X353888Y245852D01*
X350852Y248888D01*
X349209Y252854D01*
X349209Y257146D01*
X350852Y261112D01*
X353888Y264148D01*
X354957Y264591D01*
X355057Y264653D01*
X355157Y264713D01*
X355161Y264717D01*
X355166Y264721D01*
X355241Y264811D01*
X355317Y264899D01*
X355319Y264905D01*
X355323Y264910D01*
X355365Y265019D01*
X355409Y265128D01*
X355410Y265135D01*
X355411Y265140D01*
X355412Y265158D01*
X355427Y265294D01*
X355427Y291894D01*
X358329Y294796D01*
X375204Y311671D01*
X375257Y311745D01*
X375317Y311815D01*
X375329Y311845D01*
X375348Y311871D01*
X375375Y311958D01*
X375409Y312043D01*
X375413Y312084D01*
X375420Y312106D01*
X375419Y312138D01*
X375427Y312209D01*
X375427Y487791D01*
X375413Y487881D01*
X375405Y487972D01*
X375393Y488001D01*
X375388Y488033D01*
X375345Y488114D01*
X375309Y488198D01*
X375283Y488230D01*
X375272Y488251D01*
X375249Y488273D01*
X375204Y488329D01*
X298329Y565204D01*
X295872Y567661D01*
X295814Y567703D01*
X295762Y567752D01*
X295715Y567774D01*
X295673Y567804D01*
X295604Y567826D01*
X295539Y567856D01*
X295487Y567861D01*
X295437Y567877D01*
X295366Y567875D01*
X295295Y567883D01*
X295244Y567872D01*
X295192Y567870D01*
X295124Y567846D01*
X295054Y567831D01*
X295009Y567804D01*
X294961Y567786D01*
X294905Y567741D01*
X294843Y567704D01*
X294809Y567665D01*
X294769Y567632D01*
X294730Y567572D01*
X294683Y567518D01*
X294664Y567469D01*
X294636Y567425D01*
X294618Y567356D01*
X294591Y567289D01*
X294583Y567218D01*
X294575Y567187D01*
X294577Y567164D01*
X294573Y567123D01*
X294573Y562209D01*
X294587Y562119D01*
X294595Y562028D01*
X294607Y561999D01*
X294612Y561967D01*
X294655Y561886D01*
X294691Y561802D01*
X294717Y561770D01*
X294728Y561749D01*
X294751Y561727D01*
X294796Y561671D01*
X364573Y491894D01*
X364573Y410294D01*
X364592Y410180D01*
X364609Y410063D01*
X364611Y410058D01*
X364612Y410052D01*
X364667Y409949D01*
X364720Y409844D01*
X364725Y409840D01*
X364728Y409834D01*
X364812Y409754D01*
X364896Y409672D01*
X364902Y409668D01*
X364906Y409665D01*
X364923Y409657D01*
X365043Y409591D01*
X366112Y409148D01*
X369148Y406112D01*
X370791Y402146D01*
X370791Y397854D01*
X369148Y393888D01*
X366112Y390852D01*
X362146Y389209D01*
X357854Y389209D01*
X353888Y390852D01*
X350852Y393888D01*
X349209Y397854D01*
X349209Y402146D01*
X350852Y406112D01*
X353888Y409148D01*
X354957Y409591D01*
X355057Y409653D01*
X355157Y409713D01*
X355161Y409717D01*
X355166Y409721D01*
X355241Y409811D01*
X355317Y409899D01*
X355319Y409905D01*
X355323Y409910D01*
X355365Y410019D01*
X355409Y410128D01*
X355410Y410135D01*
X355411Y410140D01*
X355412Y410158D01*
X355427Y410294D01*
X355427Y487791D01*
X355413Y487881D01*
X355405Y487972D01*
X355393Y488001D01*
X355388Y488033D01*
X355345Y488114D01*
X355309Y488198D01*
X355283Y488230D01*
X355272Y488251D01*
X355249Y488273D01*
X355204Y488329D01*
X285427Y558106D01*
X285427Y751894D01*
X291304Y757771D01*
X291357Y757845D01*
X291417Y757915D01*
X291429Y757945D01*
X291448Y757971D01*
X291475Y758058D01*
X291509Y758143D01*
X291513Y758184D01*
X291520Y758206D01*
X291519Y758238D01*
X291527Y758309D01*
X291527Y830188D01*
X291513Y830278D01*
X291505Y830369D01*
X291493Y830399D01*
X291488Y830431D01*
X291445Y830511D01*
X291409Y830595D01*
X291383Y830627D01*
X291372Y830648D01*
X291349Y830670D01*
X291304Y830726D01*
X285939Y836091D01*
X285939Y844509D01*
X291891Y850461D01*
X300309Y850461D01*
X306261Y844509D01*
X306261Y836091D01*
X300896Y830726D01*
X300843Y830652D01*
X300783Y830583D01*
X300771Y830553D01*
X300752Y830527D01*
X300725Y830440D01*
X300691Y830355D01*
X300687Y830314D01*
X300680Y830291D01*
X300681Y830259D01*
X300673Y830188D01*
X300673Y754206D01*
X294796Y748329D01*
X294751Y748266D01*
X294726Y748240D01*
X294721Y748230D01*
X294683Y748185D01*
X294671Y748155D01*
X294652Y748129D01*
X294625Y748042D01*
X294591Y747957D01*
X294587Y747916D01*
X294580Y747894D01*
X294581Y747862D01*
X294573Y747791D01*
X294573Y652877D01*
X294584Y652807D01*
X294586Y652735D01*
X294604Y652686D01*
X294612Y652635D01*
X294646Y652571D01*
X294671Y652504D01*
X294703Y652463D01*
X294728Y652417D01*
X294780Y652368D01*
X294824Y652312D01*
X294868Y652284D01*
X294906Y652248D01*
X294971Y652218D01*
X295031Y652179D01*
X295082Y652166D01*
X295129Y652144D01*
X295200Y652136D01*
X295270Y652119D01*
X295322Y652123D01*
X295373Y652117D01*
X295444Y652132D01*
X295515Y652138D01*
X295563Y652158D01*
X295614Y652169D01*
X295675Y652206D01*
X295741Y652234D01*
X295797Y652279D01*
X295825Y652296D01*
X295840Y652313D01*
X295872Y652339D01*
X298329Y654796D01*
X355204Y711671D01*
X355257Y711745D01*
X355317Y711815D01*
X355329Y711845D01*
X355348Y711871D01*
X355375Y711958D01*
X355409Y712043D01*
X355413Y712084D01*
X355420Y712106D01*
X355419Y712138D01*
X355427Y712209D01*
X355427Y757791D01*
X355413Y757881D01*
X355405Y757972D01*
X355393Y758001D01*
X355388Y758033D01*
X355345Y758114D01*
X355309Y758198D01*
X355283Y758230D01*
X355272Y758251D01*
X355249Y758273D01*
X355204Y758329D01*
X316927Y796606D01*
X316927Y830188D01*
X316913Y830278D01*
X316905Y830369D01*
X316893Y830399D01*
X316888Y830431D01*
X316845Y830511D01*
X316809Y830595D01*
X316783Y830627D01*
X316772Y830648D01*
X316749Y830670D01*
X316704Y830726D01*
X311339Y836091D01*
X311339Y844509D01*
X317291Y850461D01*
X325709Y850461D01*
X331661Y844509D01*
X331661Y836091D01*
X326296Y830726D01*
X326243Y830652D01*
X326183Y830583D01*
X326171Y830553D01*
X326152Y830527D01*
X326125Y830440D01*
X326091Y830355D01*
X326087Y830314D01*
X326080Y830291D01*
X326081Y830259D01*
X326073Y830188D01*
X326073Y800709D01*
X326087Y800619D01*
X326095Y800528D01*
X326107Y800499D01*
X326112Y800467D01*
X326155Y800386D01*
X326191Y800302D01*
X326217Y800270D01*
X326228Y800249D01*
X326251Y800227D01*
X326296Y800171D01*
X364573Y761894D01*
X364573Y708106D01*
X361671Y705204D01*
X304796Y648329D01*
X304743Y648255D01*
X304683Y648185D01*
X304671Y648155D01*
X304652Y648129D01*
X304625Y648042D01*
X304591Y647957D01*
X304587Y647916D01*
X304580Y647894D01*
X304581Y647862D01*
X304573Y647791D01*
X304573Y572209D01*
X304587Y572119D01*
X304595Y572028D01*
X304607Y571999D01*
X304612Y571967D01*
X304655Y571886D01*
X304691Y571802D01*
X304717Y571770D01*
X304728Y571749D01*
X304751Y571727D01*
X304796Y571671D01*
X381671Y494796D01*
X384573Y491894D01*
X384573Y308106D01*
X381671Y305204D01*
X364796Y288329D01*
X364743Y288255D01*
X364683Y288185D01*
X364671Y288155D01*
X364652Y288129D01*
X364625Y288042D01*
X364591Y287957D01*
X364587Y287916D01*
X364580Y287894D01*
X364581Y287862D01*
X364573Y287791D01*
X364573Y265294D01*
X364592Y265179D01*
X364609Y265063D01*
X364611Y265058D01*
X364612Y265052D01*
X364667Y264949D01*
X364720Y264844D01*
X364725Y264840D01*
X364728Y264834D01*
X364812Y264754D01*
X364896Y264672D01*
X364902Y264668D01*
X364906Y264665D01*
X364923Y264657D01*
X365043Y264591D01*
X366112Y264148D01*
X369148Y261112D01*
X370791Y257146D01*
X370791Y252854D01*
X369148Y248888D01*
X366112Y245852D01*
X362146Y244209D01*
X357854Y244209D01*
G37*
%LPD*%
%LPC*%
G36*
X122555Y67709D02*
X122555Y67709D01*
X118038Y69580D01*
X114580Y73038D01*
X113785Y74957D01*
X113723Y75057D01*
X113664Y75157D01*
X113659Y75161D01*
X113656Y75166D01*
X113565Y75241D01*
X113477Y75317D01*
X113471Y75319D01*
X113466Y75323D01*
X113358Y75365D01*
X113249Y75409D01*
X113241Y75410D01*
X113237Y75411D01*
X113218Y75412D01*
X113082Y75427D01*
X58106Y75427D01*
X25427Y108106D01*
X25427Y430894D01*
X52765Y458232D01*
X52833Y458326D01*
X52903Y458421D01*
X52905Y458427D01*
X52909Y458432D01*
X52943Y458543D01*
X52979Y458655D01*
X52979Y458661D01*
X52981Y458667D01*
X52978Y458784D01*
X52977Y458901D01*
X52975Y458908D01*
X52975Y458913D01*
X52968Y458930D01*
X52930Y459062D01*
X51959Y461406D01*
X51959Y466594D01*
X53945Y471387D01*
X57613Y475055D01*
X62406Y477041D01*
X67594Y477041D01*
X72387Y475055D01*
X76055Y471387D01*
X78041Y466594D01*
X78041Y461406D01*
X76055Y456613D01*
X72387Y452945D01*
X67594Y450959D01*
X62406Y450959D01*
X60062Y451930D01*
X59948Y451957D01*
X59835Y451986D01*
X59828Y451985D01*
X59822Y451986D01*
X59706Y451975D01*
X59589Y451966D01*
X59584Y451964D01*
X59577Y451963D01*
X59470Y451916D01*
X59363Y451870D01*
X59357Y451865D01*
X59353Y451863D01*
X59339Y451851D01*
X59232Y451765D01*
X34796Y427329D01*
X34743Y427255D01*
X34683Y427185D01*
X34671Y427155D01*
X34652Y427129D01*
X34625Y427042D01*
X34591Y426957D01*
X34587Y426916D01*
X34580Y426894D01*
X34581Y426862D01*
X34573Y426791D01*
X34573Y112209D01*
X34587Y112119D01*
X34595Y112028D01*
X34607Y111999D01*
X34612Y111967D01*
X34655Y111886D01*
X34691Y111802D01*
X34717Y111770D01*
X34728Y111749D01*
X34751Y111727D01*
X34796Y111671D01*
X61671Y84796D01*
X61745Y84743D01*
X61815Y84683D01*
X61845Y84671D01*
X61871Y84652D01*
X61958Y84625D01*
X62043Y84591D01*
X62084Y84587D01*
X62106Y84580D01*
X62138Y84581D01*
X62209Y84573D01*
X113082Y84573D01*
X113197Y84592D01*
X113313Y84609D01*
X113319Y84611D01*
X113325Y84612D01*
X113427Y84667D01*
X113532Y84720D01*
X113537Y84725D01*
X113542Y84728D01*
X113622Y84812D01*
X113704Y84896D01*
X113708Y84902D01*
X113712Y84906D01*
X113719Y84923D01*
X113785Y85043D01*
X114580Y86962D01*
X118038Y90420D01*
X122555Y92291D01*
X127445Y92291D01*
X131962Y90420D01*
X135420Y86962D01*
X137291Y82445D01*
X137291Y77555D01*
X135420Y73038D01*
X131962Y69580D01*
X127445Y67709D01*
X122555Y67709D01*
G37*
%LPD*%
%LPC*%
G36*
X382555Y67709D02*
X382555Y67709D01*
X378038Y69580D01*
X374580Y73038D01*
X373785Y74957D01*
X373723Y75057D01*
X373664Y75157D01*
X373659Y75161D01*
X373656Y75166D01*
X373565Y75241D01*
X373477Y75317D01*
X373471Y75319D01*
X373466Y75323D01*
X373358Y75365D01*
X373249Y75409D01*
X373241Y75410D01*
X373237Y75411D01*
X373218Y75412D01*
X373082Y75427D01*
X318106Y75427D01*
X285427Y108106D01*
X285427Y430894D01*
X288329Y433796D01*
X312765Y458232D01*
X312833Y458326D01*
X312903Y458421D01*
X312905Y458427D01*
X312909Y458432D01*
X312943Y458543D01*
X312979Y458655D01*
X312979Y458661D01*
X312981Y458667D01*
X312978Y458784D01*
X312977Y458901D01*
X312975Y458908D01*
X312975Y458913D01*
X312968Y458930D01*
X312930Y459062D01*
X311959Y461406D01*
X311959Y466594D01*
X313945Y471387D01*
X317613Y475055D01*
X322406Y477041D01*
X327594Y477041D01*
X332387Y475055D01*
X336055Y471387D01*
X338041Y466594D01*
X338041Y461406D01*
X336055Y456613D01*
X332387Y452945D01*
X327594Y450959D01*
X322406Y450959D01*
X320062Y451930D01*
X319948Y451957D01*
X319835Y451986D01*
X319828Y451985D01*
X319822Y451986D01*
X319706Y451975D01*
X319589Y451966D01*
X319584Y451964D01*
X319577Y451963D01*
X319470Y451916D01*
X319363Y451870D01*
X319357Y451865D01*
X319353Y451863D01*
X319339Y451851D01*
X319232Y451765D01*
X294796Y427329D01*
X294743Y427255D01*
X294683Y427185D01*
X294671Y427155D01*
X294652Y427129D01*
X294625Y427042D01*
X294591Y426957D01*
X294587Y426916D01*
X294580Y426894D01*
X294581Y426862D01*
X294573Y426791D01*
X294573Y112209D01*
X294587Y112119D01*
X294595Y112028D01*
X294607Y111999D01*
X294612Y111967D01*
X294655Y111886D01*
X294691Y111802D01*
X294717Y111770D01*
X294728Y111749D01*
X294751Y111727D01*
X294796Y111671D01*
X321671Y84796D01*
X321745Y84743D01*
X321815Y84683D01*
X321845Y84671D01*
X321871Y84652D01*
X321958Y84625D01*
X322043Y84591D01*
X322084Y84587D01*
X322106Y84580D01*
X322138Y84581D01*
X322209Y84573D01*
X373082Y84573D01*
X373197Y84592D01*
X373313Y84609D01*
X373319Y84611D01*
X373325Y84612D01*
X373427Y84667D01*
X373532Y84720D01*
X373537Y84725D01*
X373542Y84728D01*
X373622Y84812D01*
X373704Y84896D01*
X373708Y84902D01*
X373712Y84906D01*
X373719Y84923D01*
X373785Y85043D01*
X374580Y86962D01*
X378038Y90420D01*
X382555Y92291D01*
X387445Y92291D01*
X391962Y90420D01*
X395420Y86962D01*
X397291Y82445D01*
X397291Y77555D01*
X395420Y73038D01*
X391962Y69580D01*
X387445Y67709D01*
X382555Y67709D01*
G37*
%LPD*%
%LPC*%
G36*
X147854Y244209D02*
X147854Y244209D01*
X143888Y245852D01*
X140852Y248888D01*
X139209Y252854D01*
X139209Y257146D01*
X140852Y261112D01*
X143888Y264148D01*
X144957Y264591D01*
X145057Y264653D01*
X145157Y264713D01*
X145161Y264717D01*
X145166Y264721D01*
X145241Y264811D01*
X145317Y264899D01*
X145319Y264905D01*
X145323Y264910D01*
X145365Y265019D01*
X145409Y265128D01*
X145410Y265135D01*
X145411Y265140D01*
X145412Y265158D01*
X145427Y265294D01*
X145427Y361894D01*
X175204Y391671D01*
X175257Y391745D01*
X175317Y391815D01*
X175329Y391845D01*
X175348Y391871D01*
X175375Y391958D01*
X175409Y392043D01*
X175413Y392084D01*
X175420Y392106D01*
X175419Y392138D01*
X175427Y392209D01*
X175427Y407791D01*
X175413Y407881D01*
X175405Y407972D01*
X175393Y408001D01*
X175388Y408033D01*
X175345Y408114D01*
X175309Y408198D01*
X175283Y408230D01*
X175272Y408251D01*
X175249Y408273D01*
X175204Y408329D01*
X145427Y438106D01*
X145427Y537791D01*
X145413Y537881D01*
X145405Y537972D01*
X145393Y538001D01*
X145388Y538033D01*
X145345Y538114D01*
X145309Y538198D01*
X145283Y538230D01*
X145272Y538251D01*
X145249Y538273D01*
X145204Y538329D01*
X65427Y618106D01*
X65427Y625316D01*
X65413Y625406D01*
X65405Y625497D01*
X65393Y625526D01*
X65388Y625558D01*
X65345Y625639D01*
X65309Y625723D01*
X65283Y625755D01*
X65272Y625776D01*
X65249Y625798D01*
X65204Y625854D01*
X64640Y626418D01*
X63677Y628742D01*
X63677Y631258D01*
X64640Y633582D01*
X66418Y635360D01*
X68742Y636323D01*
X71258Y636323D01*
X73582Y635360D01*
X75360Y633582D01*
X76323Y631258D01*
X76323Y628742D01*
X75360Y626418D01*
X74796Y625854D01*
X74743Y625780D01*
X74683Y625711D01*
X74671Y625680D01*
X74652Y625654D01*
X74625Y625567D01*
X74591Y625482D01*
X74587Y625441D01*
X74580Y625419D01*
X74581Y625387D01*
X74573Y625316D01*
X74573Y622209D01*
X74578Y622175D01*
X74577Y622166D01*
X74587Y622122D01*
X74587Y622119D01*
X74595Y622028D01*
X74607Y621999D01*
X74612Y621967D01*
X74627Y621940D01*
X74630Y621926D01*
X74659Y621877D01*
X74691Y621802D01*
X74717Y621770D01*
X74728Y621749D01*
X74745Y621732D01*
X74756Y621715D01*
X74771Y621702D01*
X74796Y621671D01*
X154573Y541894D01*
X154573Y442209D01*
X154587Y442119D01*
X154595Y442028D01*
X154607Y441999D01*
X154612Y441967D01*
X154655Y441886D01*
X154691Y441802D01*
X154717Y441770D01*
X154728Y441749D01*
X154751Y441727D01*
X154796Y441671D01*
X184573Y411894D01*
X184573Y388106D01*
X154796Y358329D01*
X154743Y358255D01*
X154683Y358185D01*
X154671Y358155D01*
X154652Y358129D01*
X154625Y358042D01*
X154591Y357957D01*
X154587Y357916D01*
X154580Y357894D01*
X154581Y357862D01*
X154573Y357791D01*
X154573Y265294D01*
X154592Y265179D01*
X154609Y265063D01*
X154611Y265058D01*
X154612Y265052D01*
X154667Y264949D01*
X154720Y264844D01*
X154725Y264840D01*
X154728Y264834D01*
X154812Y264754D01*
X154896Y264672D01*
X154902Y264668D01*
X154906Y264665D01*
X154923Y264657D01*
X155043Y264591D01*
X156112Y264148D01*
X159148Y261112D01*
X160791Y257146D01*
X160791Y252854D01*
X159148Y248888D01*
X156112Y245852D01*
X152146Y244209D01*
X147854Y244209D01*
G37*
%LPD*%
%LPC*%
G36*
X407854Y244209D02*
X407854Y244209D01*
X403888Y245852D01*
X400852Y248888D01*
X399209Y252854D01*
X399209Y257146D01*
X400852Y261112D01*
X403888Y264148D01*
X404957Y264591D01*
X405057Y264653D01*
X405157Y264713D01*
X405161Y264717D01*
X405166Y264721D01*
X405241Y264811D01*
X405317Y264899D01*
X405319Y264905D01*
X405323Y264910D01*
X405365Y265019D01*
X405409Y265128D01*
X405410Y265135D01*
X405411Y265140D01*
X405412Y265158D01*
X405427Y265294D01*
X405427Y361894D01*
X435204Y391671D01*
X435257Y391745D01*
X435317Y391815D01*
X435329Y391845D01*
X435348Y391871D01*
X435375Y391958D01*
X435409Y392043D01*
X435413Y392084D01*
X435420Y392106D01*
X435419Y392138D01*
X435427Y392209D01*
X435427Y407791D01*
X435413Y407881D01*
X435405Y407972D01*
X435393Y408001D01*
X435388Y408033D01*
X435345Y408114D01*
X435309Y408198D01*
X435283Y408230D01*
X435272Y408251D01*
X435249Y408273D01*
X435204Y408329D01*
X405427Y438106D01*
X405427Y537791D01*
X405413Y537881D01*
X405405Y537972D01*
X405393Y538001D01*
X405388Y538033D01*
X405345Y538114D01*
X405309Y538198D01*
X405283Y538230D01*
X405272Y538251D01*
X405249Y538273D01*
X405204Y538329D01*
X325427Y618106D01*
X325427Y625316D01*
X325413Y625406D01*
X325405Y625497D01*
X325393Y625526D01*
X325388Y625558D01*
X325345Y625639D01*
X325309Y625723D01*
X325283Y625755D01*
X325272Y625776D01*
X325249Y625798D01*
X325204Y625854D01*
X324640Y626418D01*
X323677Y628742D01*
X323677Y631258D01*
X324640Y633582D01*
X326418Y635360D01*
X328742Y636323D01*
X331258Y636323D01*
X333582Y635360D01*
X335360Y633582D01*
X336323Y631258D01*
X336323Y628742D01*
X335360Y626418D01*
X334796Y625854D01*
X334743Y625780D01*
X334683Y625711D01*
X334671Y625680D01*
X334652Y625654D01*
X334625Y625567D01*
X334591Y625482D01*
X334587Y625441D01*
X334580Y625419D01*
X334581Y625387D01*
X334573Y625316D01*
X334573Y622209D01*
X334578Y622175D01*
X334577Y622166D01*
X334587Y622122D01*
X334587Y622119D01*
X334595Y622028D01*
X334607Y621999D01*
X334612Y621967D01*
X334627Y621940D01*
X334630Y621926D01*
X334659Y621877D01*
X334691Y621802D01*
X334717Y621770D01*
X334728Y621749D01*
X334745Y621732D01*
X334756Y621715D01*
X334771Y621702D01*
X334796Y621671D01*
X414573Y541894D01*
X414573Y442209D01*
X414587Y442119D01*
X414595Y442028D01*
X414607Y441999D01*
X414612Y441967D01*
X414655Y441886D01*
X414691Y441802D01*
X414717Y441770D01*
X414728Y441749D01*
X414751Y441727D01*
X414796Y441671D01*
X444573Y411894D01*
X444573Y388106D01*
X414796Y358329D01*
X414743Y358255D01*
X414683Y358185D01*
X414671Y358155D01*
X414652Y358129D01*
X414625Y358042D01*
X414591Y357957D01*
X414587Y357916D01*
X414580Y357894D01*
X414581Y357862D01*
X414573Y357791D01*
X414573Y265294D01*
X414592Y265179D01*
X414609Y265063D01*
X414611Y265058D01*
X414612Y265052D01*
X414667Y264949D01*
X414720Y264844D01*
X414725Y264840D01*
X414728Y264834D01*
X414812Y264754D01*
X414896Y264672D01*
X414902Y264668D01*
X414906Y264665D01*
X414923Y264657D01*
X415043Y264591D01*
X416112Y264148D01*
X419148Y261112D01*
X420791Y257146D01*
X420791Y252854D01*
X419148Y248888D01*
X416112Y245852D01*
X412146Y244209D01*
X407854Y244209D01*
G37*
%LPD*%
%LPC*%
G36*
X182406Y572959D02*
X182406Y572959D01*
X177613Y574945D01*
X173945Y578613D01*
X171959Y583406D01*
X171959Y588594D01*
X173945Y593387D01*
X177613Y597055D01*
X179957Y598026D01*
X180057Y598088D01*
X180157Y598148D01*
X180161Y598153D01*
X180166Y598156D01*
X180241Y598246D01*
X180317Y598335D01*
X180319Y598341D01*
X180323Y598346D01*
X180365Y598454D01*
X180409Y598563D01*
X180410Y598571D01*
X180411Y598575D01*
X180412Y598593D01*
X180427Y598730D01*
X180427Y662791D01*
X180413Y662881D01*
X180405Y662972D01*
X180393Y663001D01*
X180388Y663033D01*
X180345Y663114D01*
X180309Y663198D01*
X180283Y663230D01*
X180272Y663251D01*
X180249Y663273D01*
X180204Y663329D01*
X145427Y698106D01*
X145427Y761894D01*
X184404Y800871D01*
X184457Y800945D01*
X184517Y801015D01*
X184529Y801045D01*
X184548Y801071D01*
X184575Y801158D01*
X184609Y801243D01*
X184613Y801284D01*
X184620Y801306D01*
X184619Y801338D01*
X184627Y801409D01*
X184627Y830188D01*
X184613Y830278D01*
X184605Y830369D01*
X184593Y830399D01*
X184588Y830431D01*
X184545Y830511D01*
X184509Y830595D01*
X184483Y830627D01*
X184472Y830648D01*
X184449Y830670D01*
X184404Y830726D01*
X179039Y836091D01*
X179039Y844509D01*
X184991Y850461D01*
X193409Y850461D01*
X199361Y844509D01*
X199361Y836091D01*
X193996Y830726D01*
X193943Y830652D01*
X193883Y830583D01*
X193871Y830553D01*
X193852Y830527D01*
X193825Y830440D01*
X193791Y830355D01*
X193787Y830314D01*
X193780Y830291D01*
X193781Y830259D01*
X193773Y830188D01*
X193773Y797306D01*
X154796Y758329D01*
X154743Y758255D01*
X154683Y758185D01*
X154671Y758155D01*
X154652Y758129D01*
X154625Y758042D01*
X154591Y757957D01*
X154587Y757916D01*
X154580Y757894D01*
X154581Y757862D01*
X154573Y757791D01*
X154573Y702209D01*
X154587Y702119D01*
X154595Y702028D01*
X154607Y701999D01*
X154612Y701967D01*
X154655Y701886D01*
X154691Y701802D01*
X154717Y701770D01*
X154728Y701749D01*
X154751Y701727D01*
X154796Y701671D01*
X189573Y666894D01*
X189573Y598730D01*
X189592Y598615D01*
X189609Y598499D01*
X189611Y598493D01*
X189612Y598487D01*
X189667Y598384D01*
X189720Y598280D01*
X189725Y598275D01*
X189728Y598270D01*
X189812Y598190D01*
X189896Y598107D01*
X189902Y598104D01*
X189906Y598100D01*
X189923Y598092D01*
X190043Y598026D01*
X192387Y597055D01*
X196055Y593387D01*
X198041Y588594D01*
X198041Y583406D01*
X196055Y578613D01*
X192387Y574945D01*
X187594Y572959D01*
X182406Y572959D01*
G37*
%LPD*%
%LPC*%
G36*
X442406Y572959D02*
X442406Y572959D01*
X437613Y574945D01*
X433945Y578613D01*
X431959Y583406D01*
X431959Y588594D01*
X433945Y593387D01*
X437613Y597055D01*
X439957Y598026D01*
X440057Y598088D01*
X440157Y598148D01*
X440161Y598153D01*
X440166Y598156D01*
X440241Y598246D01*
X440317Y598335D01*
X440319Y598341D01*
X440323Y598346D01*
X440365Y598454D01*
X440409Y598563D01*
X440410Y598571D01*
X440411Y598575D01*
X440412Y598593D01*
X440427Y598730D01*
X440427Y662791D01*
X440413Y662881D01*
X440405Y662972D01*
X440393Y663001D01*
X440388Y663033D01*
X440345Y663114D01*
X440309Y663198D01*
X440283Y663230D01*
X440272Y663251D01*
X440249Y663273D01*
X440204Y663329D01*
X405427Y698106D01*
X405427Y761894D01*
X443704Y800171D01*
X443757Y800245D01*
X443817Y800315D01*
X443829Y800345D01*
X443848Y800371D01*
X443875Y800458D01*
X443909Y800543D01*
X443913Y800584D01*
X443920Y800606D01*
X443919Y800638D01*
X443927Y800709D01*
X443927Y830188D01*
X443913Y830278D01*
X443905Y830369D01*
X443893Y830399D01*
X443888Y830431D01*
X443845Y830511D01*
X443809Y830595D01*
X443783Y830627D01*
X443772Y830648D01*
X443749Y830670D01*
X443704Y830726D01*
X438339Y836091D01*
X438339Y844509D01*
X444291Y850461D01*
X452709Y850461D01*
X458661Y844509D01*
X458661Y836091D01*
X453296Y830726D01*
X453243Y830652D01*
X453183Y830583D01*
X453171Y830553D01*
X453152Y830527D01*
X453125Y830440D01*
X453091Y830355D01*
X453087Y830314D01*
X453080Y830291D01*
X453081Y830259D01*
X453073Y830188D01*
X453073Y796606D01*
X414796Y758329D01*
X414743Y758255D01*
X414683Y758185D01*
X414671Y758155D01*
X414652Y758129D01*
X414625Y758042D01*
X414591Y757957D01*
X414587Y757916D01*
X414580Y757894D01*
X414581Y757862D01*
X414573Y757791D01*
X414573Y702209D01*
X414587Y702119D01*
X414595Y702028D01*
X414607Y701999D01*
X414612Y701967D01*
X414655Y701886D01*
X414691Y701802D01*
X414717Y701770D01*
X414728Y701749D01*
X414751Y701727D01*
X414796Y701671D01*
X449573Y666894D01*
X449573Y598730D01*
X449592Y598615D01*
X449609Y598499D01*
X449611Y598493D01*
X449612Y598487D01*
X449667Y598384D01*
X449720Y598280D01*
X449725Y598275D01*
X449728Y598270D01*
X449812Y598190D01*
X449896Y598107D01*
X449902Y598104D01*
X449906Y598100D01*
X449923Y598092D01*
X450043Y598026D01*
X452387Y597055D01*
X456055Y593387D01*
X458041Y588594D01*
X458041Y583406D01*
X456055Y578613D01*
X452387Y574945D01*
X447594Y572959D01*
X442406Y572959D01*
G37*
%LPD*%
%LPC*%
G36*
X854476Y121664D02*
X854476Y121664D01*
X846664Y129476D01*
X846664Y140524D01*
X854476Y148336D01*
X865524Y148336D01*
X873336Y140524D01*
X873336Y129476D01*
X865524Y121664D01*
X854476Y121664D01*
G37*
%LPD*%
%LPC*%
G36*
X442406Y450959D02*
X442406Y450959D01*
X437613Y452945D01*
X433945Y456613D01*
X431959Y461406D01*
X431959Y466594D01*
X433945Y471387D01*
X437613Y475055D01*
X442406Y477041D01*
X447594Y477041D01*
X452387Y475055D01*
X456055Y471387D01*
X458041Y466594D01*
X458041Y461406D01*
X456055Y456613D01*
X452387Y452945D01*
X447594Y450959D01*
X442406Y450959D01*
G37*
%LPD*%
%LPC*%
G36*
X122406Y592959D02*
X122406Y592959D01*
X117613Y594945D01*
X113945Y598613D01*
X111959Y603406D01*
X111959Y608594D01*
X113945Y613387D01*
X117613Y617055D01*
X122406Y619041D01*
X127594Y619041D01*
X132387Y617055D01*
X136055Y613387D01*
X138041Y608594D01*
X138041Y603406D01*
X136055Y598613D01*
X132387Y594945D01*
X127594Y592959D01*
X122406Y592959D01*
G37*
%LPD*%
%LPC*%
G36*
X182406Y450959D02*
X182406Y450959D01*
X177613Y452945D01*
X173945Y456613D01*
X171959Y461406D01*
X171959Y466594D01*
X173945Y471387D01*
X177613Y475055D01*
X182406Y477041D01*
X187594Y477041D01*
X192387Y475055D01*
X196055Y471387D01*
X198041Y466594D01*
X198041Y461406D01*
X196055Y456613D01*
X192387Y452945D01*
X187594Y450959D01*
X182406Y450959D01*
G37*
%LPD*%
%LPC*%
G36*
X382406Y592959D02*
X382406Y592959D01*
X377613Y594945D01*
X373945Y598613D01*
X371959Y603406D01*
X371959Y608594D01*
X373945Y613387D01*
X377613Y617055D01*
X382406Y619041D01*
X387594Y619041D01*
X392387Y617055D01*
X396055Y613387D01*
X398041Y608594D01*
X398041Y603406D01*
X396055Y598613D01*
X392387Y594945D01*
X387594Y592959D01*
X382406Y592959D01*
G37*
%LPD*%
%LPC*%
G36*
X687555Y67709D02*
X687555Y67709D01*
X683038Y69580D01*
X679580Y73038D01*
X677709Y77555D01*
X677709Y82445D01*
X679580Y86962D01*
X683038Y90420D01*
X687555Y92291D01*
X692445Y92291D01*
X696962Y90420D01*
X700420Y86962D01*
X702291Y82445D01*
X702291Y77555D01*
X700420Y73038D01*
X696962Y69580D01*
X692445Y67709D01*
X687555Y67709D01*
G37*
%LPD*%
%LPC*%
G36*
X832854Y214209D02*
X832854Y214209D01*
X828888Y215852D01*
X825852Y218888D01*
X824209Y222854D01*
X824209Y227146D01*
X825852Y231112D01*
X828888Y234148D01*
X832854Y235791D01*
X837146Y235791D01*
X841112Y234148D01*
X844148Y231112D01*
X845791Y227146D01*
X845791Y222854D01*
X844148Y218888D01*
X841112Y215852D01*
X837146Y214209D01*
X832854Y214209D01*
G37*
%LPD*%
%LPC*%
G36*
X147854Y644209D02*
X147854Y644209D01*
X143888Y645852D01*
X140852Y648888D01*
X139209Y652854D01*
X139209Y657146D01*
X140852Y661112D01*
X143888Y664148D01*
X147854Y665791D01*
X152146Y665791D01*
X156112Y664148D01*
X159148Y661112D01*
X160791Y657146D01*
X160791Y652854D01*
X159148Y648888D01*
X156112Y645852D01*
X152146Y644209D01*
X147854Y644209D01*
G37*
%LPD*%
%LPC*%
G36*
X612854Y644209D02*
X612854Y644209D01*
X608888Y645852D01*
X605852Y648888D01*
X604209Y652854D01*
X604209Y657146D01*
X605852Y661112D01*
X608888Y664148D01*
X612854Y665791D01*
X617146Y665791D01*
X621112Y664148D01*
X624148Y661112D01*
X625791Y657146D01*
X625791Y652854D01*
X624148Y648888D01*
X621112Y645852D01*
X617146Y644209D01*
X612854Y644209D01*
G37*
%LPD*%
%LPC*%
G36*
X357854Y789209D02*
X357854Y789209D01*
X353888Y790852D01*
X350852Y793888D01*
X349209Y797854D01*
X349209Y802146D01*
X350852Y806112D01*
X353888Y809148D01*
X357854Y810791D01*
X362146Y810791D01*
X366112Y809148D01*
X369148Y806112D01*
X370791Y802146D01*
X370791Y797854D01*
X369148Y793888D01*
X366112Y790852D01*
X362146Y789209D01*
X357854Y789209D01*
G37*
%LPD*%
%LPC*%
G36*
X407854Y644209D02*
X407854Y644209D01*
X403888Y645852D01*
X400852Y648888D01*
X399209Y652854D01*
X399209Y657146D01*
X400852Y661112D01*
X403888Y664148D01*
X407854Y665791D01*
X412146Y665791D01*
X416112Y664148D01*
X419148Y661112D01*
X420791Y657146D01*
X420791Y652854D01*
X419148Y648888D01*
X416112Y645852D01*
X412146Y644209D01*
X407854Y644209D01*
G37*
%LPD*%
%LPC*%
G36*
X882854Y214209D02*
X882854Y214209D01*
X878888Y215852D01*
X875852Y218888D01*
X874209Y222854D01*
X874209Y227146D01*
X875852Y231112D01*
X878888Y234148D01*
X882854Y235791D01*
X887146Y235791D01*
X891112Y234148D01*
X894148Y231112D01*
X895791Y227146D01*
X895791Y222854D01*
X894148Y218888D01*
X891112Y215852D01*
X887146Y214209D01*
X882854Y214209D01*
G37*
%LPD*%
%LPC*%
G36*
X612854Y789209D02*
X612854Y789209D01*
X608888Y790852D01*
X605852Y793888D01*
X604209Y797854D01*
X604209Y802146D01*
X605852Y806112D01*
X608888Y809148D01*
X612854Y810791D01*
X617146Y810791D01*
X621112Y809148D01*
X624148Y806112D01*
X625791Y802146D01*
X625791Y797854D01*
X624148Y793888D01*
X621112Y790852D01*
X617146Y789209D01*
X612854Y789209D01*
G37*
%LPD*%
%LPC*%
G36*
X97854Y789209D02*
X97854Y789209D01*
X93888Y790852D01*
X90852Y793888D01*
X89209Y797854D01*
X89209Y802146D01*
X90852Y806112D01*
X93888Y809148D01*
X97854Y810791D01*
X102146Y810791D01*
X106112Y809148D01*
X109148Y806112D01*
X110791Y802146D01*
X110791Y797854D01*
X109148Y793888D01*
X106112Y790852D01*
X102146Y789209D01*
X97854Y789209D01*
G37*
%LPD*%
%LPC*%
G36*
X97854Y644209D02*
X97854Y644209D01*
X93888Y645852D01*
X90852Y648888D01*
X89209Y652854D01*
X89209Y657146D01*
X90852Y661112D01*
X93888Y664148D01*
X97854Y665791D01*
X102146Y665791D01*
X106112Y664148D01*
X109148Y661112D01*
X110791Y657146D01*
X110791Y652854D01*
X109148Y648888D01*
X106112Y645852D01*
X102146Y644209D01*
X97854Y644209D01*
G37*
%LPD*%
%LPC*%
G36*
X612854Y389209D02*
X612854Y389209D01*
X608888Y390852D01*
X605852Y393888D01*
X604209Y397854D01*
X604209Y402146D01*
X605852Y406112D01*
X608888Y409148D01*
X612854Y410791D01*
X617146Y410791D01*
X621112Y409148D01*
X624148Y406112D01*
X625791Y402146D01*
X625791Y397854D01*
X624148Y393888D01*
X621112Y390852D01*
X617146Y389209D01*
X612854Y389209D01*
G37*
%LPD*%
%LPC*%
G36*
X662854Y644209D02*
X662854Y644209D01*
X658888Y645852D01*
X655852Y648888D01*
X654209Y652854D01*
X654209Y657146D01*
X655852Y661112D01*
X658888Y664148D01*
X662854Y665791D01*
X667146Y665791D01*
X671112Y664148D01*
X674148Y661112D01*
X675791Y657146D01*
X675791Y652854D01*
X674148Y648888D01*
X671112Y645852D01*
X667146Y644209D01*
X662854Y644209D01*
G37*
%LPD*%
%LPC*%
G36*
X357854Y644209D02*
X357854Y644209D01*
X353888Y645852D01*
X350852Y648888D01*
X349209Y652854D01*
X349209Y657146D01*
X350852Y661112D01*
X353888Y664148D01*
X357854Y665791D01*
X362146Y665791D01*
X366112Y664148D01*
X369148Y661112D01*
X370791Y657146D01*
X370791Y652854D01*
X369148Y648888D01*
X366112Y645852D01*
X362146Y644209D01*
X357854Y644209D01*
G37*
%LPD*%
%LPC*%
G36*
X832854Y359209D02*
X832854Y359209D01*
X828888Y360852D01*
X825852Y363888D01*
X824209Y367854D01*
X824209Y372146D01*
X825852Y376112D01*
X828888Y379148D01*
X832854Y380791D01*
X837146Y380791D01*
X841112Y379148D01*
X844148Y376112D01*
X845791Y372146D01*
X845791Y367854D01*
X844148Y363888D01*
X841112Y360852D01*
X837146Y359209D01*
X832854Y359209D01*
G37*
%LPD*%
%LPC*%
G36*
X342691Y855539D02*
X342691Y855539D01*
X336739Y861491D01*
X336739Y869909D01*
X342691Y875861D01*
X351109Y875861D01*
X357061Y869909D01*
X357061Y861491D01*
X351109Y855539D01*
X342691Y855539D01*
G37*
%LPD*%
%LPC*%
G36*
X317291Y855539D02*
X317291Y855539D01*
X311339Y861491D01*
X311339Y869909D01*
X317291Y875861D01*
X325709Y875861D01*
X331661Y869909D01*
X331661Y861491D01*
X325709Y855539D01*
X317291Y855539D01*
G37*
%LPD*%
%LPC*%
G36*
X108791Y855539D02*
X108791Y855539D01*
X102839Y861491D01*
X102839Y869909D01*
X108791Y875861D01*
X117209Y875861D01*
X123161Y869909D01*
X123161Y861491D01*
X117209Y855539D01*
X108791Y855539D01*
G37*
%LPD*%
%LPC*%
G36*
X159591Y830139D02*
X159591Y830139D01*
X153639Y836091D01*
X153639Y844509D01*
X159591Y850461D01*
X168009Y850461D01*
X173961Y844509D01*
X173961Y836091D01*
X168009Y830139D01*
X159591Y830139D01*
G37*
%LPD*%
%LPC*%
G36*
X707691Y830139D02*
X707691Y830139D01*
X701739Y836091D01*
X701739Y844509D01*
X707691Y850461D01*
X716109Y850461D01*
X722061Y844509D01*
X722061Y836091D01*
X716109Y830139D01*
X707691Y830139D01*
G37*
%LPD*%
%LPC*%
G36*
X733091Y830139D02*
X733091Y830139D01*
X727139Y836091D01*
X727139Y844509D01*
X733091Y850461D01*
X741509Y850461D01*
X747461Y844509D01*
X747461Y836091D01*
X741509Y830139D01*
X733091Y830139D01*
G37*
%LPD*%
%LPC*%
G36*
X783891Y830139D02*
X783891Y830139D01*
X777939Y836091D01*
X777939Y844509D01*
X783891Y850461D01*
X792309Y850461D01*
X798261Y844509D01*
X798261Y836091D01*
X792309Y830139D01*
X783891Y830139D01*
G37*
%LPD*%
%LPC*%
G36*
X368091Y830139D02*
X368091Y830139D01*
X362139Y836091D01*
X362139Y844509D01*
X368091Y850461D01*
X376509Y850461D01*
X382461Y844509D01*
X382461Y836091D01*
X376509Y830139D01*
X368091Y830139D01*
G37*
%LPD*%
%LPC*%
G36*
X393491Y830139D02*
X393491Y830139D01*
X387539Y836091D01*
X387539Y844509D01*
X393491Y850461D01*
X401909Y850461D01*
X407861Y844509D01*
X407861Y836091D01*
X401909Y830139D01*
X393491Y830139D01*
G37*
%LPD*%
%LPC*%
G36*
X418891Y830139D02*
X418891Y830139D01*
X412939Y836091D01*
X412939Y844509D01*
X418891Y850461D01*
X427309Y850461D01*
X433261Y844509D01*
X433261Y836091D01*
X427309Y830139D01*
X418891Y830139D01*
G37*
%LPD*%
%LPC*%
G36*
X57991Y855539D02*
X57991Y855539D01*
X52039Y861491D01*
X52039Y869909D01*
X57991Y875861D01*
X66409Y875861D01*
X72361Y869909D01*
X72361Y861491D01*
X66409Y855539D01*
X57991Y855539D01*
G37*
%LPD*%
%LPC*%
G36*
X733091Y855539D02*
X733091Y855539D01*
X727139Y861491D01*
X727139Y869909D01*
X733091Y875861D01*
X741509Y875861D01*
X747461Y869909D01*
X747461Y861491D01*
X741509Y855539D01*
X733091Y855539D01*
G37*
%LPD*%
%LPC*%
G36*
X707691Y855539D02*
X707691Y855539D01*
X701739Y861491D01*
X701739Y869909D01*
X707691Y875861D01*
X716109Y875861D01*
X722061Y869909D01*
X722061Y861491D01*
X716109Y855539D01*
X707691Y855539D01*
G37*
%LPD*%
%LPC*%
G36*
X682291Y855539D02*
X682291Y855539D01*
X676339Y861491D01*
X676339Y869909D01*
X682291Y875861D01*
X690709Y875861D01*
X696661Y869909D01*
X696661Y861491D01*
X690709Y855539D01*
X682291Y855539D01*
G37*
%LPD*%
%LPC*%
G36*
X834691Y830139D02*
X834691Y830139D01*
X828739Y836091D01*
X828739Y844509D01*
X834691Y850461D01*
X843109Y850461D01*
X849061Y844509D01*
X849061Y836091D01*
X843109Y830139D01*
X834691Y830139D01*
G37*
%LPD*%
%LPC*%
G36*
X860091Y830139D02*
X860091Y830139D01*
X854139Y836091D01*
X854139Y844509D01*
X860091Y850461D01*
X868509Y850461D01*
X874461Y844509D01*
X874461Y836091D01*
X868509Y830139D01*
X860091Y830139D01*
G37*
%LPD*%
%LPC*%
G36*
X885491Y830139D02*
X885491Y830139D01*
X879539Y836091D01*
X879539Y844509D01*
X885491Y850461D01*
X893909Y850461D01*
X899861Y844509D01*
X899861Y836091D01*
X893909Y830139D01*
X885491Y830139D01*
G37*
%LPD*%
%LPC*%
G36*
X682291Y830139D02*
X682291Y830139D01*
X676339Y836091D01*
X676339Y844509D01*
X682291Y850461D01*
X690709Y850461D01*
X696661Y844509D01*
X696661Y836091D01*
X690709Y830139D01*
X682291Y830139D01*
G37*
%LPD*%
%LPC*%
G36*
X809291Y830139D02*
X809291Y830139D01*
X803339Y836091D01*
X803339Y844509D01*
X809291Y850461D01*
X817709Y850461D01*
X823661Y844509D01*
X823661Y836091D01*
X817709Y830139D01*
X809291Y830139D01*
G37*
%LPD*%
%LPC*%
G36*
X758491Y830139D02*
X758491Y830139D01*
X752539Y836091D01*
X752539Y844509D01*
X758491Y850461D01*
X766909Y850461D01*
X772861Y844509D01*
X772861Y836091D01*
X766909Y830139D01*
X758491Y830139D01*
G37*
%LPD*%
%LPC*%
G36*
X108791Y830139D02*
X108791Y830139D01*
X102839Y836091D01*
X102839Y844509D01*
X108791Y850461D01*
X117209Y850461D01*
X123161Y844509D01*
X123161Y836091D01*
X117209Y830139D01*
X108791Y830139D01*
G37*
%LPD*%
%LPC*%
G36*
X83391Y855539D02*
X83391Y855539D01*
X77439Y861491D01*
X77439Y869909D01*
X83391Y875861D01*
X91809Y875861D01*
X97761Y869909D01*
X97761Y861491D01*
X91809Y855539D01*
X83391Y855539D01*
G37*
%LPD*%
%LPC*%
G36*
X342691Y830139D02*
X342691Y830139D01*
X336739Y836091D01*
X336739Y844509D01*
X342691Y850461D01*
X351109Y850461D01*
X357061Y844509D01*
X357061Y836091D01*
X351109Y830139D01*
X342691Y830139D01*
G37*
%LPD*%
%LPC*%
G36*
X83391Y830139D02*
X83391Y830139D01*
X77439Y836091D01*
X77439Y844509D01*
X83391Y850461D01*
X91809Y850461D01*
X97761Y844509D01*
X97761Y836091D01*
X91809Y830139D01*
X83391Y830139D01*
G37*
%LPD*%
%LPC*%
G36*
X210391Y830139D02*
X210391Y830139D01*
X204439Y836091D01*
X204439Y844509D01*
X210391Y850461D01*
X218809Y850461D01*
X224761Y844509D01*
X224761Y836091D01*
X218809Y830139D01*
X210391Y830139D01*
G37*
%LPD*%
%LPC*%
G36*
X606091Y830139D02*
X606091Y830139D01*
X600139Y836091D01*
X600139Y844509D01*
X606091Y850461D01*
X614509Y850461D01*
X620461Y844509D01*
X620461Y836091D01*
X614509Y830139D01*
X606091Y830139D01*
G37*
%LPD*%
%LPC*%
G36*
X291891Y855539D02*
X291891Y855539D01*
X285939Y861491D01*
X285939Y869909D01*
X291891Y875861D01*
X300309Y875861D01*
X306261Y869909D01*
X306261Y861491D01*
X300309Y855539D01*
X291891Y855539D01*
G37*
%LPD*%
%LPC*%
G36*
X469691Y830139D02*
X469691Y830139D01*
X463739Y836091D01*
X463739Y844509D01*
X469691Y850461D01*
X478109Y850461D01*
X484061Y844509D01*
X484061Y836091D01*
X478109Y830139D01*
X469691Y830139D01*
G37*
%LPD*%
%LPC*%
G36*
X656891Y855539D02*
X656891Y855539D01*
X650939Y861491D01*
X650939Y869909D01*
X656891Y875861D01*
X665309Y875861D01*
X671261Y869909D01*
X671261Y861491D01*
X665309Y855539D01*
X656891Y855539D01*
G37*
%LPD*%
%LPC*%
G36*
X631491Y855539D02*
X631491Y855539D01*
X625539Y861491D01*
X625539Y869909D01*
X631491Y875861D01*
X639909Y875861D01*
X645861Y869909D01*
X645861Y861491D01*
X639909Y855539D01*
X631491Y855539D01*
G37*
%LPD*%
%LPC*%
G36*
X32591Y855539D02*
X32591Y855539D01*
X26639Y861491D01*
X26639Y869909D01*
X32591Y875861D01*
X41009Y875861D01*
X46961Y869909D01*
X46961Y861491D01*
X41009Y855539D01*
X32591Y855539D01*
G37*
%LPD*%
%LPC*%
G36*
X606091Y855539D02*
X606091Y855539D01*
X600139Y861491D01*
X600139Y869909D01*
X606091Y875861D01*
X614509Y875861D01*
X620461Y869909D01*
X620461Y861491D01*
X614509Y855539D01*
X606091Y855539D01*
G37*
%LPD*%
%LPC*%
G36*
X368091Y855539D02*
X368091Y855539D01*
X362139Y861491D01*
X362139Y869909D01*
X368091Y875861D01*
X376509Y875861D01*
X382461Y869909D01*
X382461Y861491D01*
X376509Y855539D01*
X368091Y855539D01*
G37*
%LPD*%
%LPC*%
G36*
X134191Y830139D02*
X134191Y830139D01*
X128239Y836091D01*
X128239Y844509D01*
X134191Y850461D01*
X142609Y850461D01*
X148561Y844509D01*
X148561Y836091D01*
X142609Y830139D01*
X134191Y830139D01*
G37*
%LPD*%
%LPC*%
G36*
X583023Y731523D02*
X583023Y731523D01*
X583023Y752535D01*
X585907Y752155D01*
X588761Y751390D01*
X591491Y750260D01*
X594050Y748782D01*
X596394Y746983D01*
X598483Y744894D01*
X600282Y742550D01*
X601760Y739991D01*
X602890Y737261D01*
X603655Y734407D01*
X604035Y731523D01*
X583023Y731523D01*
G37*
%LPD*%
%LPC*%
G36*
X700023Y731523D02*
X700023Y731523D01*
X700023Y752535D01*
X702907Y752155D01*
X705761Y751390D01*
X708491Y750260D01*
X711050Y748782D01*
X713394Y746983D01*
X715483Y744894D01*
X717282Y742550D01*
X718760Y739991D01*
X719890Y737261D01*
X720655Y734407D01*
X721035Y731523D01*
X700023Y731523D01*
G37*
%LPD*%
%LPC*%
G36*
X700023Y331523D02*
X700023Y331523D01*
X700023Y352535D01*
X702907Y352155D01*
X705761Y351390D01*
X708491Y350260D01*
X711050Y348782D01*
X713394Y346983D01*
X715483Y344894D01*
X717282Y342550D01*
X718760Y339991D01*
X719890Y337261D01*
X720655Y334407D01*
X721035Y331523D01*
X700023Y331523D01*
G37*
%LPD*%
%LPC*%
G36*
X328023Y331523D02*
X328023Y331523D01*
X328023Y352535D01*
X330907Y352155D01*
X333761Y351390D01*
X336491Y350260D01*
X339050Y348782D01*
X341394Y346983D01*
X343483Y344894D01*
X345282Y342550D01*
X346760Y339991D01*
X347890Y337261D01*
X348655Y334407D01*
X349035Y331523D01*
X328023Y331523D01*
G37*
%LPD*%
%LPC*%
G36*
X583023Y331523D02*
X583023Y331523D01*
X583023Y352535D01*
X585907Y352155D01*
X588761Y351390D01*
X591491Y350260D01*
X594050Y348782D01*
X596394Y346983D01*
X598483Y344894D01*
X600282Y342550D01*
X601760Y339991D01*
X602890Y337261D01*
X603655Y334407D01*
X604035Y331523D01*
X583023Y331523D01*
G37*
%LPD*%
%LPC*%
G36*
X68023Y331523D02*
X68023Y331523D01*
X68023Y352535D01*
X70907Y352155D01*
X73761Y351390D01*
X76491Y350260D01*
X79050Y348782D01*
X81394Y346983D01*
X83483Y344894D01*
X85282Y342550D01*
X86760Y339991D01*
X87890Y337261D01*
X88655Y334407D01*
X89035Y331523D01*
X68023Y331523D01*
G37*
%LPD*%
%LPC*%
G36*
X445023Y331523D02*
X445023Y331523D01*
X445023Y352535D01*
X447907Y352155D01*
X450761Y351390D01*
X453491Y350260D01*
X456050Y348782D01*
X458394Y346983D01*
X460483Y344894D01*
X462282Y342550D01*
X463760Y339991D01*
X464890Y337261D01*
X465655Y334407D01*
X466035Y331523D01*
X445023Y331523D01*
G37*
%LPD*%
%LPC*%
G36*
X185023Y331523D02*
X185023Y331523D01*
X185023Y352535D01*
X187907Y352155D01*
X190761Y351390D01*
X193491Y350260D01*
X196050Y348782D01*
X198394Y346983D01*
X200483Y344894D01*
X202282Y342550D01*
X203760Y339991D01*
X204890Y337261D01*
X205655Y334407D01*
X206035Y331523D01*
X185023Y331523D01*
G37*
%LPD*%
%LPC*%
G36*
X920023Y301523D02*
X920023Y301523D01*
X920023Y322535D01*
X922907Y322155D01*
X925761Y321390D01*
X928491Y320260D01*
X931050Y318782D01*
X933394Y316983D01*
X935483Y314894D01*
X937282Y312550D01*
X938760Y309991D01*
X939890Y307261D01*
X940655Y304407D01*
X941035Y301523D01*
X920023Y301523D01*
G37*
%LPD*%
%LPC*%
G36*
X803023Y301523D02*
X803023Y301523D01*
X803023Y322535D01*
X805907Y322155D01*
X808761Y321390D01*
X811491Y320260D01*
X814050Y318782D01*
X816394Y316983D01*
X818483Y314894D01*
X820282Y312550D01*
X821760Y309991D01*
X822890Y307261D01*
X823655Y304407D01*
X824035Y301523D01*
X803023Y301523D01*
G37*
%LPD*%
%LPC*%
G36*
X68023Y731523D02*
X68023Y731523D01*
X68023Y752535D01*
X70907Y752155D01*
X73761Y751390D01*
X76491Y750260D01*
X79050Y748782D01*
X81394Y746983D01*
X83483Y744894D01*
X85282Y742550D01*
X86760Y739991D01*
X87890Y737261D01*
X88655Y734407D01*
X89035Y731523D01*
X68023Y731523D01*
G37*
%LPD*%
%LPC*%
G36*
X445023Y731523D02*
X445023Y731523D01*
X445023Y752535D01*
X447907Y752155D01*
X450761Y751390D01*
X453491Y750260D01*
X456050Y748782D01*
X458394Y746983D01*
X460483Y744894D01*
X462282Y742550D01*
X463760Y739991D01*
X464890Y737261D01*
X465655Y734407D01*
X466035Y731523D01*
X445023Y731523D01*
G37*
%LPD*%
%LPC*%
G36*
X328023Y731523D02*
X328023Y731523D01*
X328023Y752535D01*
X330907Y752155D01*
X333761Y751390D01*
X336491Y750260D01*
X339050Y748782D01*
X341394Y746983D01*
X343483Y744894D01*
X345282Y742550D01*
X346760Y739991D01*
X347890Y737261D01*
X348655Y734407D01*
X349035Y731523D01*
X328023Y731523D01*
G37*
%LPD*%
%LPC*%
G36*
X185023Y731523D02*
X185023Y731523D01*
X185023Y752535D01*
X187907Y752155D01*
X190761Y751390D01*
X193491Y750260D01*
X196050Y748782D01*
X198394Y746983D01*
X200483Y744894D01*
X202282Y742550D01*
X203760Y739991D01*
X204890Y737261D01*
X205655Y734407D01*
X206035Y731523D01*
X185023Y731523D01*
G37*
%LPD*%
%LPC*%
G36*
X445023Y328477D02*
X445023Y328477D01*
X466035Y328477D01*
X465655Y325593D01*
X464890Y322739D01*
X463760Y320009D01*
X462282Y317450D01*
X460483Y315106D01*
X458394Y313017D01*
X456050Y311218D01*
X453491Y309740D01*
X450761Y308610D01*
X447907Y307845D01*
X445023Y307465D01*
X445023Y328477D01*
G37*
%LPD*%
%LPC*%
G36*
X328023Y728477D02*
X328023Y728477D01*
X349035Y728477D01*
X348655Y725593D01*
X347890Y722739D01*
X346760Y720009D01*
X345282Y717450D01*
X343483Y715106D01*
X341394Y713017D01*
X339050Y711218D01*
X336491Y709740D01*
X333761Y708610D01*
X330907Y707845D01*
X328023Y707465D01*
X328023Y728477D01*
G37*
%LPD*%
%LPC*%
G36*
X558965Y731523D02*
X558965Y731523D01*
X559345Y734407D01*
X560110Y737261D01*
X561240Y739991D01*
X562718Y742550D01*
X564517Y744894D01*
X566606Y746983D01*
X568950Y748782D01*
X571509Y750260D01*
X574239Y751390D01*
X577093Y752155D01*
X579977Y752535D01*
X579977Y731523D01*
X558965Y731523D01*
G37*
%LPD*%
%LPC*%
G36*
X700023Y728477D02*
X700023Y728477D01*
X721035Y728477D01*
X720655Y725593D01*
X719890Y722739D01*
X718760Y720009D01*
X717282Y717450D01*
X715483Y715106D01*
X713394Y713017D01*
X711050Y711218D01*
X708491Y709740D01*
X705761Y708610D01*
X702907Y707845D01*
X700023Y707465D01*
X700023Y728477D01*
G37*
%LPD*%
%LPC*%
G36*
X445023Y728477D02*
X445023Y728477D01*
X466035Y728477D01*
X465655Y725593D01*
X464890Y722739D01*
X463760Y720009D01*
X462282Y717450D01*
X460483Y715106D01*
X458394Y713017D01*
X456050Y711218D01*
X453491Y709740D01*
X450761Y708610D01*
X447907Y707845D01*
X445023Y707465D01*
X445023Y728477D01*
G37*
%LPD*%
%LPC*%
G36*
X583023Y728477D02*
X583023Y728477D01*
X604035Y728477D01*
X603655Y725593D01*
X602890Y722739D01*
X601760Y720009D01*
X600282Y717450D01*
X598483Y715106D01*
X596394Y713017D01*
X594050Y711218D01*
X591491Y709740D01*
X588761Y708610D01*
X585907Y707845D01*
X583023Y707465D01*
X583023Y728477D01*
G37*
%LPD*%
%LPC*%
G36*
X328023Y328477D02*
X328023Y328477D01*
X349035Y328477D01*
X348655Y325593D01*
X347890Y322739D01*
X346760Y320009D01*
X345282Y317450D01*
X343483Y315106D01*
X341394Y313017D01*
X339050Y311218D01*
X336491Y309740D01*
X333761Y308610D01*
X330907Y307845D01*
X328023Y307465D01*
X328023Y328477D01*
G37*
%LPD*%
%LPC*%
G36*
X558965Y331523D02*
X558965Y331523D01*
X559345Y334407D01*
X560110Y337261D01*
X561240Y339991D01*
X562718Y342550D01*
X564517Y344894D01*
X566606Y346983D01*
X568950Y348782D01*
X571509Y350260D01*
X574239Y351390D01*
X577093Y352155D01*
X579977Y352535D01*
X579977Y331523D01*
X558965Y331523D01*
G37*
%LPD*%
%LPC*%
G36*
X185023Y328477D02*
X185023Y328477D01*
X206035Y328477D01*
X205655Y325593D01*
X204890Y322739D01*
X203760Y320009D01*
X202282Y317450D01*
X200483Y315106D01*
X198394Y313017D01*
X196050Y311218D01*
X193491Y309740D01*
X190761Y308610D01*
X187907Y307845D01*
X185023Y307465D01*
X185023Y328477D01*
G37*
%LPD*%
%LPC*%
G36*
X43965Y331523D02*
X43965Y331523D01*
X44345Y334407D01*
X45110Y337261D01*
X46240Y339991D01*
X47718Y342550D01*
X49517Y344894D01*
X51606Y346983D01*
X53950Y348782D01*
X56509Y350260D01*
X59239Y351390D01*
X62093Y352155D01*
X64977Y352535D01*
X64977Y331523D01*
X43965Y331523D01*
G37*
%LPD*%
%LPC*%
G36*
X803023Y298477D02*
X803023Y298477D01*
X824035Y298477D01*
X823655Y295593D01*
X822890Y292739D01*
X821760Y290009D01*
X820282Y287450D01*
X818483Y285106D01*
X816394Y283017D01*
X814050Y281218D01*
X811491Y279740D01*
X808761Y278610D01*
X805907Y277845D01*
X803023Y277465D01*
X803023Y298477D01*
G37*
%LPD*%
%LPC*%
G36*
X160965Y331523D02*
X160965Y331523D01*
X161345Y334407D01*
X162110Y337261D01*
X163240Y339991D01*
X164718Y342550D01*
X166517Y344894D01*
X168606Y346983D01*
X170950Y348782D01*
X173509Y350260D01*
X176239Y351390D01*
X179093Y352155D01*
X181977Y352535D01*
X181977Y331523D01*
X160965Y331523D01*
G37*
%LPD*%
%LPC*%
G36*
X303965Y331523D02*
X303965Y331523D01*
X304345Y334407D01*
X305110Y337261D01*
X306240Y339991D01*
X307718Y342550D01*
X309517Y344894D01*
X311606Y346983D01*
X313950Y348782D01*
X316509Y350260D01*
X319239Y351390D01*
X322093Y352155D01*
X324977Y352535D01*
X324977Y331523D01*
X303965Y331523D01*
G37*
%LPD*%
%LPC*%
G36*
X420965Y331523D02*
X420965Y331523D01*
X421345Y334407D01*
X422110Y337261D01*
X423240Y339991D01*
X424718Y342550D01*
X426517Y344894D01*
X428606Y346983D01*
X430950Y348782D01*
X433509Y350260D01*
X436239Y351390D01*
X439093Y352155D01*
X441977Y352535D01*
X441977Y331523D01*
X420965Y331523D01*
G37*
%LPD*%
%LPC*%
G36*
X920023Y298477D02*
X920023Y298477D01*
X941035Y298477D01*
X940655Y295593D01*
X939890Y292739D01*
X938760Y290009D01*
X937282Y287450D01*
X935483Y285106D01*
X933394Y283017D01*
X931050Y281218D01*
X928491Y279740D01*
X925761Y278610D01*
X922907Y277845D01*
X920023Y277465D01*
X920023Y298477D01*
G37*
%LPD*%
%LPC*%
G36*
X675965Y331523D02*
X675965Y331523D01*
X676345Y334407D01*
X677110Y337261D01*
X678240Y339991D01*
X679718Y342550D01*
X681517Y344894D01*
X683606Y346983D01*
X685950Y348782D01*
X688509Y350260D01*
X691239Y351390D01*
X694093Y352155D01*
X696977Y352535D01*
X696977Y331523D01*
X675965Y331523D01*
G37*
%LPD*%
%LPC*%
G36*
X895965Y301523D02*
X895965Y301523D01*
X896345Y304407D01*
X897110Y307261D01*
X898240Y309991D01*
X899718Y312550D01*
X901517Y314894D01*
X903606Y316983D01*
X905950Y318782D01*
X908509Y320260D01*
X911239Y321390D01*
X914093Y322155D01*
X916977Y322535D01*
X916977Y301523D01*
X895965Y301523D01*
G37*
%LPD*%
%LPC*%
G36*
X778965Y301523D02*
X778965Y301523D01*
X779345Y304407D01*
X780110Y307261D01*
X781240Y309991D01*
X782718Y312550D01*
X784517Y314894D01*
X786606Y316983D01*
X788950Y318782D01*
X791509Y320260D01*
X794239Y321390D01*
X797093Y322155D01*
X799977Y322535D01*
X799977Y301523D01*
X778965Y301523D01*
G37*
%LPD*%
%LPC*%
G36*
X700023Y328477D02*
X700023Y328477D01*
X721035Y328477D01*
X720655Y325593D01*
X719890Y322739D01*
X718760Y320009D01*
X717282Y317450D01*
X715483Y315106D01*
X713394Y313017D01*
X711050Y311218D01*
X708491Y309740D01*
X705761Y308610D01*
X702907Y307845D01*
X700023Y307465D01*
X700023Y328477D01*
G37*
%LPD*%
%LPC*%
G36*
X583023Y328477D02*
X583023Y328477D01*
X604035Y328477D01*
X603655Y325593D01*
X602890Y322739D01*
X601760Y320009D01*
X600282Y317450D01*
X598483Y315106D01*
X596394Y313017D01*
X594050Y311218D01*
X591491Y309740D01*
X588761Y308610D01*
X585907Y307845D01*
X583023Y307465D01*
X583023Y328477D01*
G37*
%LPD*%
%LPC*%
G36*
X68023Y328477D02*
X68023Y328477D01*
X89035Y328477D01*
X88655Y325593D01*
X87890Y322739D01*
X86760Y320009D01*
X85282Y317450D01*
X83483Y315106D01*
X81394Y313017D01*
X79050Y311218D01*
X76491Y309740D01*
X73761Y308610D01*
X70907Y307845D01*
X68023Y307465D01*
X68023Y328477D01*
G37*
%LPD*%
%LPC*%
G36*
X675965Y731523D02*
X675965Y731523D01*
X676345Y734407D01*
X677110Y737261D01*
X678240Y739991D01*
X679718Y742550D01*
X681517Y744894D01*
X683606Y746983D01*
X685950Y748782D01*
X688509Y750260D01*
X691239Y751390D01*
X694093Y752155D01*
X696977Y752535D01*
X696977Y731523D01*
X675965Y731523D01*
G37*
%LPD*%
%LPC*%
G36*
X43965Y731523D02*
X43965Y731523D01*
X44345Y734407D01*
X45110Y737261D01*
X46240Y739991D01*
X47718Y742550D01*
X49517Y744894D01*
X51606Y746983D01*
X53950Y748782D01*
X56509Y750260D01*
X59239Y751390D01*
X62093Y752155D01*
X64977Y752535D01*
X64977Y731523D01*
X43965Y731523D01*
G37*
%LPD*%
%LPC*%
G36*
X160965Y731523D02*
X160965Y731523D01*
X161345Y734407D01*
X162110Y737261D01*
X163240Y739991D01*
X164718Y742550D01*
X166517Y744894D01*
X168606Y746983D01*
X170950Y748782D01*
X173509Y750260D01*
X176239Y751390D01*
X179093Y752155D01*
X181977Y752535D01*
X181977Y731523D01*
X160965Y731523D01*
G37*
%LPD*%
%LPC*%
G36*
X68023Y728477D02*
X68023Y728477D01*
X89035Y728477D01*
X88655Y725593D01*
X87890Y722739D01*
X86760Y720009D01*
X85282Y717450D01*
X83483Y715106D01*
X81394Y713017D01*
X79050Y711218D01*
X76491Y709740D01*
X73761Y708610D01*
X70907Y707845D01*
X68023Y707465D01*
X68023Y728477D01*
G37*
%LPD*%
%LPC*%
G36*
X303965Y731523D02*
X303965Y731523D01*
X304345Y734407D01*
X305110Y737261D01*
X306240Y739991D01*
X307718Y742550D01*
X309517Y744894D01*
X311606Y746983D01*
X313950Y748782D01*
X316509Y750260D01*
X319239Y751390D01*
X322093Y752155D01*
X324977Y752535D01*
X324977Y731523D01*
X303965Y731523D01*
G37*
%LPD*%
%LPC*%
G36*
X185023Y728477D02*
X185023Y728477D01*
X206035Y728477D01*
X205655Y725593D01*
X204890Y722739D01*
X203760Y720009D01*
X202282Y717450D01*
X200483Y715106D01*
X198394Y713017D01*
X196050Y711218D01*
X193491Y709740D01*
X190761Y708610D01*
X187907Y707845D01*
X185023Y707465D01*
X185023Y728477D01*
G37*
%LPD*%
%LPC*%
G36*
X420965Y731523D02*
X420965Y731523D01*
X421345Y734407D01*
X422110Y737261D01*
X423240Y739991D01*
X424718Y742550D01*
X426517Y744894D01*
X428606Y746983D01*
X430950Y748782D01*
X433509Y750260D01*
X436239Y751390D01*
X439093Y752155D01*
X441977Y752535D01*
X441977Y731523D01*
X420965Y731523D01*
G37*
%LPD*%
%LPC*%
G36*
X577093Y307845D02*
X577093Y307845D01*
X574239Y308610D01*
X571509Y309740D01*
X568950Y311218D01*
X566606Y313017D01*
X564517Y315106D01*
X562718Y317450D01*
X561240Y320009D01*
X560110Y322739D01*
X559345Y325593D01*
X558965Y328477D01*
X579977Y328477D01*
X579977Y307465D01*
X577093Y307845D01*
G37*
%LPD*%
%LPC*%
G36*
X179093Y707845D02*
X179093Y707845D01*
X176239Y708610D01*
X173509Y709740D01*
X170950Y711218D01*
X168606Y713017D01*
X166517Y715106D01*
X164718Y717450D01*
X163240Y720009D01*
X162110Y722739D01*
X161345Y725593D01*
X160965Y728477D01*
X181977Y728477D01*
X181977Y707465D01*
X179093Y707845D01*
G37*
%LPD*%
%LPC*%
G36*
X322093Y707845D02*
X322093Y707845D01*
X319239Y708610D01*
X316509Y709740D01*
X313950Y711218D01*
X311606Y713017D01*
X309517Y715106D01*
X307718Y717450D01*
X306240Y720009D01*
X305110Y722739D01*
X304345Y725593D01*
X303965Y728477D01*
X324977Y728477D01*
X324977Y707465D01*
X322093Y707845D01*
G37*
%LPD*%
%LPC*%
G36*
X439093Y707845D02*
X439093Y707845D01*
X436239Y708610D01*
X433509Y709740D01*
X430950Y711218D01*
X428606Y713017D01*
X426517Y715106D01*
X424718Y717450D01*
X423240Y720009D01*
X422110Y722739D01*
X421345Y725593D01*
X420965Y728477D01*
X441977Y728477D01*
X441977Y707465D01*
X439093Y707845D01*
G37*
%LPD*%
%LPC*%
G36*
X914093Y277845D02*
X914093Y277845D01*
X911239Y278610D01*
X908509Y279740D01*
X905950Y281218D01*
X903606Y283017D01*
X901517Y285106D01*
X899718Y287450D01*
X898240Y290009D01*
X897110Y292739D01*
X896345Y295593D01*
X895965Y298477D01*
X916977Y298477D01*
X916977Y277465D01*
X914093Y277845D01*
G37*
%LPD*%
%LPC*%
G36*
X694093Y707845D02*
X694093Y707845D01*
X691239Y708610D01*
X688509Y709740D01*
X685950Y711218D01*
X683606Y713017D01*
X681517Y715106D01*
X679718Y717450D01*
X678240Y720009D01*
X677110Y722739D01*
X676345Y725593D01*
X675965Y728477D01*
X696977Y728477D01*
X696977Y707465D01*
X694093Y707845D01*
G37*
%LPD*%
%LPC*%
G36*
X797093Y277845D02*
X797093Y277845D01*
X794239Y278610D01*
X791509Y279740D01*
X788950Y281218D01*
X786606Y283017D01*
X784517Y285106D01*
X782718Y287450D01*
X781240Y290009D01*
X780110Y292739D01*
X779345Y295593D01*
X778965Y298477D01*
X799977Y298477D01*
X799977Y277465D01*
X797093Y277845D01*
G37*
%LPD*%
%LPC*%
G36*
X179093Y307845D02*
X179093Y307845D01*
X176239Y308610D01*
X173509Y309740D01*
X170950Y311218D01*
X168606Y313017D01*
X166517Y315106D01*
X164718Y317450D01*
X163240Y320009D01*
X162110Y322739D01*
X161345Y325593D01*
X160965Y328477D01*
X181977Y328477D01*
X181977Y307465D01*
X179093Y307845D01*
G37*
%LPD*%
%LPC*%
G36*
X694093Y307845D02*
X694093Y307845D01*
X691239Y308610D01*
X688509Y309740D01*
X685950Y311218D01*
X683606Y313017D01*
X681517Y315106D01*
X679718Y317450D01*
X678240Y320009D01*
X677110Y322739D01*
X676345Y325593D01*
X675965Y328477D01*
X696977Y328477D01*
X696977Y307465D01*
X694093Y307845D01*
G37*
%LPD*%
%LPC*%
G36*
X62093Y307845D02*
X62093Y307845D01*
X59239Y308610D01*
X56509Y309740D01*
X53950Y311218D01*
X51606Y313017D01*
X49517Y315106D01*
X47718Y317450D01*
X46240Y320009D01*
X45110Y322739D01*
X44345Y325593D01*
X43965Y328477D01*
X64977Y328477D01*
X64977Y307465D01*
X62093Y307845D01*
G37*
%LPD*%
%LPC*%
G36*
X322093Y307845D02*
X322093Y307845D01*
X319239Y308610D01*
X316509Y309740D01*
X313950Y311218D01*
X311606Y313017D01*
X309517Y315106D01*
X307718Y317450D01*
X306240Y320009D01*
X305110Y322739D01*
X304345Y325593D01*
X303965Y328477D01*
X324977Y328477D01*
X324977Y307465D01*
X322093Y307845D01*
G37*
%LPD*%
%LPC*%
G36*
X439093Y307845D02*
X439093Y307845D01*
X436239Y308610D01*
X433509Y309740D01*
X430950Y311218D01*
X428606Y313017D01*
X426517Y315106D01*
X424718Y317450D01*
X423240Y320009D01*
X422110Y322739D01*
X421345Y325593D01*
X420965Y328477D01*
X441977Y328477D01*
X441977Y307465D01*
X439093Y307845D01*
G37*
%LPD*%
%LPC*%
G36*
X577093Y707845D02*
X577093Y707845D01*
X574239Y708610D01*
X571509Y709740D01*
X568950Y711218D01*
X566606Y713017D01*
X564517Y715106D01*
X562718Y717450D01*
X561240Y720009D01*
X560110Y722739D01*
X559345Y725593D01*
X558965Y728477D01*
X579977Y728477D01*
X579977Y707465D01*
X577093Y707845D01*
G37*
%LPD*%
%LPC*%
G36*
X62093Y707845D02*
X62093Y707845D01*
X59239Y708610D01*
X56509Y709740D01*
X53950Y711218D01*
X51606Y713017D01*
X49517Y715106D01*
X47718Y717450D01*
X46240Y720009D01*
X45110Y722739D01*
X44345Y725593D01*
X43965Y728477D01*
X64977Y728477D01*
X64977Y707465D01*
X62093Y707845D01*
G37*
%LPD*%
%LPC*%
G36*
X197662Y197397D02*
X197662Y197397D01*
X192305Y202754D01*
X192305Y210329D01*
X197662Y215686D01*
X205238Y215686D01*
X210595Y210329D01*
X210595Y202754D01*
X205238Y197397D01*
X197662Y197397D01*
G37*
%LPD*%
%LPC*%
G36*
X447662Y192302D02*
X447662Y192302D01*
X442305Y197659D01*
X442305Y205235D01*
X447662Y210592D01*
X455238Y210592D01*
X460595Y205235D01*
X460595Y197659D01*
X455238Y192302D01*
X447662Y192302D01*
G37*
%LPD*%
%LPC*%
G36*
X578181Y161015D02*
X578181Y161015D01*
X574820Y162407D01*
X572247Y164980D01*
X570855Y168341D01*
X570855Y171979D01*
X572247Y175340D01*
X574820Y177913D01*
X578181Y179305D01*
X581819Y179305D01*
X585180Y177913D01*
X587753Y175340D01*
X589145Y171979D01*
X589145Y168341D01*
X587753Y164980D01*
X585180Y162407D01*
X581819Y161015D01*
X578181Y161015D01*
G37*
%LPD*%
%LPC*%
G36*
X199631Y177077D02*
X199631Y177077D01*
X196270Y178469D01*
X193697Y181041D01*
X192305Y184403D01*
X192305Y188040D01*
X193697Y191402D01*
X196270Y193974D01*
X199631Y195366D01*
X203269Y195366D01*
X206630Y193974D01*
X209203Y191402D01*
X210595Y188040D01*
X210595Y184403D01*
X209203Y181041D01*
X206630Y178469D01*
X203269Y177077D01*
X199631Y177077D01*
G37*
%LPD*%
%LPC*%
G36*
X449631Y171982D02*
X449631Y171982D01*
X446270Y173374D01*
X443697Y175947D01*
X442305Y179308D01*
X442305Y182946D01*
X443697Y186307D01*
X446270Y188880D01*
X449631Y190272D01*
X453269Y190272D01*
X456630Y188880D01*
X459203Y186307D01*
X460595Y182946D01*
X460595Y179308D01*
X459203Y175947D01*
X456630Y173374D01*
X453269Y171982D01*
X449631Y171982D01*
G37*
%LPD*%
%LPC*%
G36*
X59361Y220695D02*
X59361Y220695D01*
X56000Y222087D01*
X53427Y224660D01*
X52035Y228021D01*
X52035Y231659D01*
X53427Y235020D01*
X56000Y237593D01*
X59361Y238985D01*
X62999Y238985D01*
X66360Y237593D01*
X68933Y235020D01*
X70325Y231659D01*
X70325Y228021D01*
X68933Y224660D01*
X66360Y222087D01*
X62999Y220695D01*
X59361Y220695D01*
G37*
%LPD*%
%LPC*%
G36*
X318181Y220695D02*
X318181Y220695D01*
X314820Y222087D01*
X312247Y224660D01*
X310855Y228021D01*
X310855Y231659D01*
X312247Y235020D01*
X314820Y237593D01*
X318181Y238985D01*
X321819Y238985D01*
X325180Y237593D01*
X327753Y235020D01*
X329145Y231659D01*
X329145Y228021D01*
X327753Y224660D01*
X325180Y222087D01*
X321819Y220695D01*
X318181Y220695D01*
G37*
%LPD*%
%LPC*%
G36*
X308181Y161015D02*
X308181Y161015D01*
X304820Y162407D01*
X302247Y164980D01*
X300855Y168341D01*
X300855Y171979D01*
X302247Y175340D01*
X304820Y177913D01*
X308181Y179305D01*
X311819Y179305D01*
X315180Y177913D01*
X317753Y175340D01*
X319145Y171979D01*
X319145Y168341D01*
X317753Y164980D01*
X315180Y162407D01*
X311819Y161015D01*
X308181Y161015D01*
G37*
%LPD*%
%LPC*%
G36*
X48181Y161015D02*
X48181Y161015D01*
X44820Y162407D01*
X42247Y164980D01*
X40855Y168341D01*
X40855Y171979D01*
X42247Y175340D01*
X44820Y177913D01*
X48181Y179305D01*
X51819Y179305D01*
X55180Y177913D01*
X57753Y175340D01*
X59145Y171979D01*
X59145Y168341D01*
X57753Y164980D01*
X55180Y162407D01*
X51819Y161015D01*
X48181Y161015D01*
G37*
%LPD*%
%LPC*%
G36*
X421523Y116523D02*
X421523Y116523D01*
X421523Y132492D01*
X423429Y132241D01*
X425650Y131645D01*
X427775Y130766D01*
X429766Y129616D01*
X431590Y128216D01*
X433216Y126590D01*
X434616Y124766D01*
X435766Y122775D01*
X436645Y120650D01*
X437241Y118429D01*
X437492Y116523D01*
X421523Y116523D01*
G37*
%LPD*%
%LPC*%
G36*
X726523Y46523D02*
X726523Y46523D01*
X726523Y62492D01*
X728429Y62241D01*
X730650Y61645D01*
X732775Y60766D01*
X734766Y59616D01*
X736590Y58216D01*
X738216Y56590D01*
X739616Y54766D01*
X740766Y52775D01*
X741645Y50650D01*
X742241Y48429D01*
X742492Y46523D01*
X726523Y46523D01*
G37*
%LPD*%
%LPC*%
G36*
X656523Y46523D02*
X656523Y46523D01*
X656523Y62492D01*
X658429Y62241D01*
X660650Y61645D01*
X662775Y60766D01*
X664766Y59616D01*
X666590Y58216D01*
X668216Y56590D01*
X669616Y54766D01*
X670766Y52775D01*
X671645Y50650D01*
X672241Y48429D01*
X672492Y46523D01*
X656523Y46523D01*
G37*
%LPD*%
%LPC*%
G36*
X351523Y46523D02*
X351523Y46523D01*
X351523Y62492D01*
X353429Y62241D01*
X355650Y61645D01*
X357775Y60766D01*
X359766Y59616D01*
X361590Y58216D01*
X363216Y56590D01*
X364616Y54766D01*
X365766Y52775D01*
X366645Y50650D01*
X367241Y48429D01*
X367492Y46523D01*
X351523Y46523D01*
G37*
%LPD*%
%LPC*%
G36*
X421523Y46523D02*
X421523Y46523D01*
X421523Y62492D01*
X423429Y62241D01*
X425650Y61645D01*
X427775Y60766D01*
X429766Y59616D01*
X431590Y58216D01*
X433216Y56590D01*
X434616Y54766D01*
X435766Y52775D01*
X436645Y50650D01*
X437241Y48429D01*
X437492Y46523D01*
X421523Y46523D01*
G37*
%LPD*%
%LPC*%
G36*
X91523Y116523D02*
X91523Y116523D01*
X91523Y132492D01*
X93429Y132241D01*
X95650Y131645D01*
X97775Y130766D01*
X99766Y129616D01*
X101590Y128216D01*
X103216Y126590D01*
X104616Y124766D01*
X105766Y122775D01*
X106645Y120650D01*
X107241Y118429D01*
X107492Y116523D01*
X91523Y116523D01*
G37*
%LPD*%
%LPC*%
G36*
X351523Y116523D02*
X351523Y116523D01*
X351523Y132492D01*
X353429Y132241D01*
X355650Y131645D01*
X357775Y130766D01*
X359766Y129616D01*
X361590Y128216D01*
X363216Y126590D01*
X364616Y124766D01*
X365766Y122775D01*
X366645Y120650D01*
X367241Y118429D01*
X367492Y116523D01*
X351523Y116523D01*
G37*
%LPD*%
%LPC*%
G36*
X161523Y116523D02*
X161523Y116523D01*
X161523Y132492D01*
X163429Y132241D01*
X165650Y131645D01*
X167775Y130766D01*
X169766Y129616D01*
X171590Y128216D01*
X173216Y126590D01*
X174616Y124766D01*
X175766Y122775D01*
X176645Y120650D01*
X177241Y118429D01*
X177492Y116523D01*
X161523Y116523D01*
G37*
%LPD*%
%LPC*%
G36*
X91523Y46523D02*
X91523Y46523D01*
X91523Y62492D01*
X93429Y62241D01*
X95650Y61645D01*
X97775Y60766D01*
X99766Y59616D01*
X101590Y58216D01*
X103216Y56590D01*
X104616Y54766D01*
X105766Y52775D01*
X106645Y50650D01*
X107241Y48429D01*
X107492Y46523D01*
X91523Y46523D01*
G37*
%LPD*%
%LPC*%
G36*
X726523Y116523D02*
X726523Y116523D01*
X726523Y132492D01*
X728429Y132241D01*
X730650Y131645D01*
X732775Y130766D01*
X734766Y129616D01*
X736590Y128216D01*
X738216Y126590D01*
X739616Y124766D01*
X740766Y122775D01*
X741645Y120650D01*
X742241Y118429D01*
X742492Y116523D01*
X726523Y116523D01*
G37*
%LPD*%
%LPC*%
G36*
X161523Y46523D02*
X161523Y46523D01*
X161523Y62492D01*
X163429Y62241D01*
X165650Y61645D01*
X167775Y60766D01*
X169766Y59616D01*
X171590Y58216D01*
X173216Y56590D01*
X174616Y54766D01*
X175766Y52775D01*
X176645Y50650D01*
X177241Y48429D01*
X177492Y46523D01*
X161523Y46523D01*
G37*
%LPD*%
%LPC*%
G36*
X656523Y116523D02*
X656523Y116523D01*
X656523Y132492D01*
X658429Y132241D01*
X660650Y131645D01*
X662775Y130766D01*
X664766Y129616D01*
X666590Y128216D01*
X668216Y126590D01*
X669616Y124766D01*
X670766Y122775D01*
X671645Y120650D01*
X672241Y118429D01*
X672492Y116523D01*
X656523Y116523D01*
G37*
%LPD*%
%LPC*%
G36*
X351523Y43477D02*
X351523Y43477D01*
X367492Y43477D01*
X367241Y41571D01*
X366645Y39350D01*
X365766Y37225D01*
X364616Y35234D01*
X363216Y33410D01*
X361590Y31784D01*
X359766Y30384D01*
X357775Y29234D01*
X355650Y28355D01*
X353429Y27759D01*
X351523Y27508D01*
X351523Y43477D01*
G37*
%LPD*%
%LPC*%
G36*
X161523Y43477D02*
X161523Y43477D01*
X177492Y43477D01*
X177241Y41571D01*
X176645Y39350D01*
X175766Y37225D01*
X174616Y35234D01*
X173216Y33410D01*
X171590Y31784D01*
X169766Y30384D01*
X167775Y29234D01*
X165650Y28355D01*
X163429Y27759D01*
X161523Y27508D01*
X161523Y43477D01*
G37*
%LPD*%
%LPC*%
G36*
X91523Y43477D02*
X91523Y43477D01*
X107492Y43477D01*
X107241Y41571D01*
X106645Y39350D01*
X105766Y37225D01*
X104616Y35234D01*
X103216Y33410D01*
X101590Y31784D01*
X99766Y30384D01*
X97775Y29234D01*
X95650Y28355D01*
X93429Y27759D01*
X91523Y27508D01*
X91523Y43477D01*
G37*
%LPD*%
%LPC*%
G36*
X726523Y113477D02*
X726523Y113477D01*
X742492Y113477D01*
X742241Y111571D01*
X741645Y109350D01*
X740766Y107225D01*
X739616Y105234D01*
X738216Y103410D01*
X736590Y101784D01*
X734766Y100384D01*
X732775Y99234D01*
X730650Y98355D01*
X728429Y97759D01*
X726523Y97508D01*
X726523Y113477D01*
G37*
%LPD*%
%LPC*%
G36*
X402508Y116523D02*
X402508Y116523D01*
X402759Y118429D01*
X403355Y120650D01*
X404234Y122775D01*
X405384Y124766D01*
X406784Y126590D01*
X408410Y128216D01*
X410234Y129616D01*
X412225Y130766D01*
X414350Y131645D01*
X416571Y132241D01*
X418477Y132492D01*
X418477Y116523D01*
X402508Y116523D01*
G37*
%LPD*%
%LPC*%
G36*
X72508Y116523D02*
X72508Y116523D01*
X72759Y118429D01*
X73355Y120650D01*
X74234Y122775D01*
X75384Y124766D01*
X76784Y126590D01*
X78410Y128216D01*
X80234Y129616D01*
X82225Y130766D01*
X84350Y131645D01*
X86571Y132241D01*
X88477Y132492D01*
X88477Y116523D01*
X72508Y116523D01*
G37*
%LPD*%
%LPC*%
G36*
X142508Y116523D02*
X142508Y116523D01*
X142759Y118429D01*
X143355Y120650D01*
X144234Y122775D01*
X145384Y124766D01*
X146784Y126590D01*
X148410Y128216D01*
X150234Y129616D01*
X152225Y130766D01*
X154350Y131645D01*
X156571Y132241D01*
X158477Y132492D01*
X158477Y116523D01*
X142508Y116523D01*
G37*
%LPD*%
%LPC*%
G36*
X637508Y116523D02*
X637508Y116523D01*
X637759Y118429D01*
X638355Y120650D01*
X639234Y122775D01*
X640384Y124766D01*
X641784Y126590D01*
X643410Y128216D01*
X645234Y129616D01*
X647225Y130766D01*
X649350Y131645D01*
X651571Y132241D01*
X653477Y132492D01*
X653477Y116523D01*
X637508Y116523D01*
G37*
%LPD*%
%LPC*%
G36*
X707508Y116523D02*
X707508Y116523D01*
X707759Y118429D01*
X708355Y120650D01*
X709234Y122775D01*
X710384Y124766D01*
X711784Y126590D01*
X713410Y128216D01*
X715234Y129616D01*
X717225Y130766D01*
X719350Y131645D01*
X721571Y132241D01*
X723477Y132492D01*
X723477Y116523D01*
X707508Y116523D01*
G37*
%LPD*%
%LPC*%
G36*
X332508Y116523D02*
X332508Y116523D01*
X332759Y118429D01*
X333355Y120650D01*
X334234Y122775D01*
X335384Y124766D01*
X336784Y126590D01*
X338410Y128216D01*
X340234Y129616D01*
X342225Y130766D01*
X344350Y131645D01*
X346571Y132241D01*
X348477Y132492D01*
X348477Y116523D01*
X332508Y116523D01*
G37*
%LPD*%
%LPC*%
G36*
X656523Y113477D02*
X656523Y113477D01*
X672492Y113477D01*
X672241Y111571D01*
X671645Y109350D01*
X670766Y107225D01*
X669616Y105234D01*
X668216Y103410D01*
X666590Y101784D01*
X664766Y100384D01*
X662775Y99234D01*
X660650Y98355D01*
X658429Y97759D01*
X656523Y97508D01*
X656523Y113477D01*
G37*
%LPD*%
%LPC*%
G36*
X421523Y113477D02*
X421523Y113477D01*
X437492Y113477D01*
X437241Y111571D01*
X436645Y109350D01*
X435766Y107225D01*
X434616Y105234D01*
X433216Y103410D01*
X431590Y101784D01*
X429766Y100384D01*
X427775Y99234D01*
X425650Y98355D01*
X423429Y97759D01*
X421523Y97508D01*
X421523Y113477D01*
G37*
%LPD*%
%LPC*%
G36*
X351523Y113477D02*
X351523Y113477D01*
X367492Y113477D01*
X367241Y111571D01*
X366645Y109350D01*
X365766Y107225D01*
X364616Y105234D01*
X363216Y103410D01*
X361590Y101784D01*
X359766Y100384D01*
X357775Y99234D01*
X355650Y98355D01*
X353429Y97759D01*
X351523Y97508D01*
X351523Y113477D01*
G37*
%LPD*%
%LPC*%
G36*
X161523Y113477D02*
X161523Y113477D01*
X177492Y113477D01*
X177241Y111571D01*
X176645Y109350D01*
X175766Y107225D01*
X174616Y105234D01*
X173216Y103410D01*
X171590Y101784D01*
X169766Y100384D01*
X167775Y99234D01*
X165650Y98355D01*
X163429Y97759D01*
X161523Y97508D01*
X161523Y113477D01*
G37*
%LPD*%
%LPC*%
G36*
X91523Y113477D02*
X91523Y113477D01*
X107492Y113477D01*
X107241Y111571D01*
X106645Y109350D01*
X105766Y107225D01*
X104616Y105234D01*
X103216Y103410D01*
X101590Y101784D01*
X99766Y100384D01*
X97775Y99234D01*
X95650Y98355D01*
X93429Y97759D01*
X91523Y97508D01*
X91523Y113477D01*
G37*
%LPD*%
%LPC*%
G36*
X72508Y46523D02*
X72508Y46523D01*
X72759Y48429D01*
X73355Y50650D01*
X74234Y52775D01*
X75384Y54766D01*
X76784Y56590D01*
X78410Y58216D01*
X80234Y59616D01*
X82225Y60766D01*
X84350Y61645D01*
X86571Y62241D01*
X88477Y62492D01*
X88477Y46523D01*
X72508Y46523D01*
G37*
%LPD*%
%LPC*%
G36*
X142508Y46523D02*
X142508Y46523D01*
X142759Y48429D01*
X143355Y50650D01*
X144234Y52775D01*
X145384Y54766D01*
X146784Y56590D01*
X148410Y58216D01*
X150234Y59616D01*
X152225Y60766D01*
X154350Y61645D01*
X156571Y62241D01*
X158477Y62492D01*
X158477Y46523D01*
X142508Y46523D01*
G37*
%LPD*%
%LPC*%
G36*
X332508Y46523D02*
X332508Y46523D01*
X332759Y48429D01*
X333355Y50650D01*
X334234Y52775D01*
X335384Y54766D01*
X336784Y56590D01*
X338410Y58216D01*
X340234Y59616D01*
X342225Y60766D01*
X344350Y61645D01*
X346571Y62241D01*
X348477Y62492D01*
X348477Y46523D01*
X332508Y46523D01*
G37*
%LPD*%
%LPC*%
G36*
X402508Y46523D02*
X402508Y46523D01*
X402759Y48429D01*
X403355Y50650D01*
X404234Y52775D01*
X405384Y54766D01*
X406784Y56590D01*
X408410Y58216D01*
X410234Y59616D01*
X412225Y60766D01*
X414350Y61645D01*
X416571Y62241D01*
X418477Y62492D01*
X418477Y46523D01*
X402508Y46523D01*
G37*
%LPD*%
%LPC*%
G36*
X637508Y46523D02*
X637508Y46523D01*
X637759Y48429D01*
X638355Y50650D01*
X639234Y52775D01*
X640384Y54766D01*
X641784Y56590D01*
X643410Y58216D01*
X645234Y59616D01*
X647225Y60766D01*
X649350Y61645D01*
X651571Y62241D01*
X653477Y62492D01*
X653477Y46523D01*
X637508Y46523D01*
G37*
%LPD*%
%LPC*%
G36*
X707508Y46523D02*
X707508Y46523D01*
X707759Y48429D01*
X708355Y50650D01*
X709234Y52775D01*
X710384Y54766D01*
X711784Y56590D01*
X713410Y58216D01*
X715234Y59616D01*
X717225Y60766D01*
X719350Y61645D01*
X721571Y62241D01*
X723477Y62492D01*
X723477Y46523D01*
X707508Y46523D01*
G37*
%LPD*%
%LPC*%
G36*
X726523Y43477D02*
X726523Y43477D01*
X742492Y43477D01*
X742241Y41571D01*
X741645Y39350D01*
X740766Y37225D01*
X739616Y35234D01*
X738216Y33410D01*
X736590Y31784D01*
X734766Y30384D01*
X732775Y29234D01*
X730650Y28355D01*
X728429Y27759D01*
X726523Y27508D01*
X726523Y43477D01*
G37*
%LPD*%
%LPC*%
G36*
X656523Y43477D02*
X656523Y43477D01*
X672492Y43477D01*
X672241Y41571D01*
X671645Y39350D01*
X670766Y37225D01*
X669616Y35234D01*
X668216Y33410D01*
X666590Y31784D01*
X664766Y30384D01*
X662775Y29234D01*
X660650Y28355D01*
X658429Y27759D01*
X656523Y27508D01*
X656523Y43477D01*
G37*
%LPD*%
%LPC*%
G36*
X421523Y43477D02*
X421523Y43477D01*
X437492Y43477D01*
X437241Y41571D01*
X436645Y39350D01*
X435766Y37225D01*
X434616Y35234D01*
X433216Y33410D01*
X431590Y31784D01*
X429766Y30384D01*
X427775Y29234D01*
X425650Y28355D01*
X423429Y27759D01*
X421523Y27508D01*
X421523Y43477D01*
G37*
%LPD*%
%LPC*%
G36*
X721571Y27759D02*
X721571Y27759D01*
X719350Y28355D01*
X717225Y29234D01*
X715234Y30384D01*
X713410Y31784D01*
X711784Y33410D01*
X710384Y35234D01*
X709234Y37225D01*
X708355Y39350D01*
X707759Y41571D01*
X707508Y43477D01*
X723477Y43477D01*
X723477Y27508D01*
X721571Y27759D01*
G37*
%LPD*%
%LPC*%
G36*
X156571Y27759D02*
X156571Y27759D01*
X154350Y28355D01*
X152225Y29234D01*
X150234Y30384D01*
X148410Y31784D01*
X146784Y33410D01*
X145384Y35234D01*
X144234Y37225D01*
X143355Y39350D01*
X142759Y41571D01*
X142508Y43477D01*
X158477Y43477D01*
X158477Y27508D01*
X156571Y27759D01*
G37*
%LPD*%
%LPC*%
G36*
X346571Y97759D02*
X346571Y97759D01*
X344350Y98355D01*
X342225Y99234D01*
X340234Y100384D01*
X338410Y101784D01*
X336784Y103410D01*
X335384Y105234D01*
X334234Y107225D01*
X333355Y109350D01*
X332759Y111571D01*
X332508Y113477D01*
X348477Y113477D01*
X348477Y97508D01*
X346571Y97759D01*
G37*
%LPD*%
%LPC*%
G36*
X346571Y27759D02*
X346571Y27759D01*
X344350Y28355D01*
X342225Y29234D01*
X340234Y30384D01*
X338410Y31784D01*
X336784Y33410D01*
X335384Y35234D01*
X334234Y37225D01*
X333355Y39350D01*
X332759Y41571D01*
X332508Y43477D01*
X348477Y43477D01*
X348477Y27508D01*
X346571Y27759D01*
G37*
%LPD*%
%LPC*%
G36*
X156571Y97759D02*
X156571Y97759D01*
X154350Y98355D01*
X152225Y99234D01*
X150234Y100384D01*
X148410Y101784D01*
X146784Y103410D01*
X145384Y105234D01*
X144234Y107225D01*
X143355Y109350D01*
X142759Y111571D01*
X142508Y113477D01*
X158477Y113477D01*
X158477Y97508D01*
X156571Y97759D01*
G37*
%LPD*%
%LPC*%
G36*
X86571Y97759D02*
X86571Y97759D01*
X84350Y98355D01*
X82225Y99234D01*
X80234Y100384D01*
X78410Y101784D01*
X76784Y103410D01*
X75384Y105234D01*
X74234Y107225D01*
X73355Y109350D01*
X72759Y111571D01*
X72508Y113477D01*
X88477Y113477D01*
X88477Y97508D01*
X86571Y97759D01*
G37*
%LPD*%
%LPC*%
G36*
X416571Y27759D02*
X416571Y27759D01*
X414350Y28355D01*
X412225Y29234D01*
X410234Y30384D01*
X408410Y31784D01*
X406784Y33410D01*
X405384Y35234D01*
X404234Y37225D01*
X403355Y39350D01*
X402759Y41571D01*
X402508Y43477D01*
X418477Y43477D01*
X418477Y27508D01*
X416571Y27759D01*
G37*
%LPD*%
%LPC*%
G36*
X651571Y27759D02*
X651571Y27759D01*
X649350Y28355D01*
X647225Y29234D01*
X645234Y30384D01*
X643410Y31784D01*
X641784Y33410D01*
X640384Y35234D01*
X639234Y37225D01*
X638355Y39350D01*
X637759Y41571D01*
X637508Y43477D01*
X653477Y43477D01*
X653477Y27508D01*
X651571Y27759D01*
G37*
%LPD*%
%LPC*%
G36*
X721571Y97759D02*
X721571Y97759D01*
X719350Y98355D01*
X717225Y99234D01*
X715234Y100384D01*
X713410Y101784D01*
X711784Y103410D01*
X710384Y105234D01*
X709234Y107225D01*
X708355Y109350D01*
X707759Y111571D01*
X707508Y113477D01*
X723477Y113477D01*
X723477Y97508D01*
X721571Y97759D01*
G37*
%LPD*%
%LPC*%
G36*
X86571Y27759D02*
X86571Y27759D01*
X84350Y28355D01*
X82225Y29234D01*
X80234Y30384D01*
X78410Y31784D01*
X76784Y33410D01*
X75384Y35234D01*
X74234Y37225D01*
X73355Y39350D01*
X72759Y41571D01*
X72508Y43477D01*
X88477Y43477D01*
X88477Y27508D01*
X86571Y27759D01*
G37*
%LPD*%
%LPC*%
G36*
X651571Y97759D02*
X651571Y97759D01*
X649350Y98355D01*
X647225Y99234D01*
X645234Y100384D01*
X643410Y101784D01*
X641784Y103410D01*
X640384Y105234D01*
X639234Y107225D01*
X638355Y109350D01*
X637759Y111571D01*
X637508Y113477D01*
X653477Y113477D01*
X653477Y97508D01*
X651571Y97759D01*
G37*
%LPD*%
%LPC*%
G36*
X416571Y97759D02*
X416571Y97759D01*
X414350Y98355D01*
X412225Y99234D01*
X410234Y100384D01*
X408410Y101784D01*
X406784Y103410D01*
X405384Y105234D01*
X404234Y107225D01*
X403355Y109350D01*
X402759Y111571D01*
X402508Y113477D01*
X418477Y113477D01*
X418477Y97508D01*
X416571Y97759D01*
G37*
%LPD*%
%LPC*%
G36*
X861523Y86523D02*
X861523Y86523D01*
X861523Y98336D01*
X865524Y98336D01*
X873336Y90524D01*
X873336Y86523D01*
X861523Y86523D01*
G37*
%LPD*%
%LPC*%
G36*
X846664Y86523D02*
X846664Y86523D01*
X846664Y90524D01*
X854476Y98336D01*
X858477Y98336D01*
X858477Y86523D01*
X846664Y86523D01*
G37*
%LPD*%
%LPC*%
G36*
X861523Y71664D02*
X861523Y71664D01*
X861523Y83477D01*
X873336Y83477D01*
X873336Y79476D01*
X865524Y71664D01*
X861523Y71664D01*
G37*
%LPD*%
%LPC*%
G36*
X854476Y71664D02*
X854476Y71664D01*
X846664Y79476D01*
X846664Y83477D01*
X858477Y83477D01*
X858477Y71664D01*
X854476Y71664D01*
G37*
%LPD*%
%LPC*%
G36*
X66523Y587523D02*
X66523Y587523D01*
X66523Y598962D01*
X68054Y598720D01*
X70006Y598085D01*
X71835Y597153D01*
X73496Y595947D01*
X74947Y594496D01*
X76153Y592835D01*
X77085Y591006D01*
X77720Y589054D01*
X77962Y587523D01*
X66523Y587523D01*
G37*
%LPD*%
%LPC*%
G36*
X326523Y587523D02*
X326523Y587523D01*
X326523Y598962D01*
X328054Y598720D01*
X330006Y598085D01*
X331835Y597153D01*
X333496Y595947D01*
X334947Y594496D01*
X336153Y592835D01*
X337085Y591006D01*
X337720Y589054D01*
X337962Y587523D01*
X326523Y587523D01*
G37*
%LPD*%
%LPC*%
G36*
X312038Y587523D02*
X312038Y587523D01*
X312280Y589054D01*
X312915Y591006D01*
X313847Y592835D01*
X315053Y594496D01*
X316504Y595947D01*
X318165Y597153D01*
X319994Y598085D01*
X321946Y598720D01*
X323477Y598962D01*
X323477Y587523D01*
X312038Y587523D01*
G37*
%LPD*%
%LPC*%
G36*
X52038Y587523D02*
X52038Y587523D01*
X52280Y589054D01*
X52915Y591006D01*
X53847Y592835D01*
X55053Y594496D01*
X56504Y595947D01*
X58165Y597153D01*
X59994Y598085D01*
X61946Y598720D01*
X63477Y598962D01*
X63477Y587523D01*
X52038Y587523D01*
G37*
%LPD*%
%LPC*%
G36*
X326523Y584477D02*
X326523Y584477D01*
X337962Y584477D01*
X337720Y582946D01*
X337085Y580994D01*
X336153Y579165D01*
X334947Y577504D01*
X333496Y576053D01*
X331835Y574847D01*
X330006Y573915D01*
X328054Y573280D01*
X326523Y573038D01*
X326523Y584477D01*
G37*
%LPD*%
%LPC*%
G36*
X66523Y584477D02*
X66523Y584477D01*
X77962Y584477D01*
X77720Y582946D01*
X77085Y580994D01*
X76153Y579165D01*
X74947Y577504D01*
X73496Y576053D01*
X71835Y574847D01*
X70006Y573915D01*
X68054Y573280D01*
X66523Y573038D01*
X66523Y584477D01*
G37*
%LPD*%
%LPC*%
G36*
X61946Y573280D02*
X61946Y573280D01*
X59994Y573915D01*
X58165Y574847D01*
X56504Y576053D01*
X55053Y577504D01*
X53847Y579165D01*
X52915Y580994D01*
X52280Y582946D01*
X52038Y584477D01*
X63477Y584477D01*
X63477Y573038D01*
X61946Y573280D01*
G37*
%LPD*%
%LPC*%
G36*
X321946Y573280D02*
X321946Y573280D01*
X319994Y573915D01*
X318165Y574847D01*
X316504Y576053D01*
X315053Y577504D01*
X313847Y579165D01*
X312915Y580994D01*
X312280Y582946D01*
X312038Y584477D01*
X323477Y584477D01*
X323477Y573038D01*
X321946Y573280D01*
G37*
%LPD*%
%LPC*%
G36*
X151523Y801523D02*
X151523Y801523D01*
X151523Y810684D01*
X152527Y810525D01*
X154142Y810000D01*
X155655Y809229D01*
X157030Y808231D01*
X158231Y807030D01*
X159229Y805655D01*
X160000Y804142D01*
X160525Y802527D01*
X160684Y801523D01*
X151523Y801523D01*
G37*
%LPD*%
%LPC*%
G36*
X861523Y226523D02*
X861523Y226523D01*
X861523Y235684D01*
X862527Y235525D01*
X864142Y235000D01*
X865655Y234229D01*
X867030Y233231D01*
X868231Y232030D01*
X869229Y230655D01*
X870000Y229142D01*
X870525Y227527D01*
X870684Y226523D01*
X861523Y226523D01*
G37*
%LPD*%
%LPC*%
G36*
X641523Y256523D02*
X641523Y256523D01*
X641523Y265684D01*
X642527Y265525D01*
X644142Y265000D01*
X645655Y264229D01*
X647030Y263231D01*
X648231Y262030D01*
X649229Y260655D01*
X650000Y259142D01*
X650525Y257527D01*
X650684Y256523D01*
X641523Y256523D01*
G37*
%LPD*%
%LPC*%
G36*
X126523Y256523D02*
X126523Y256523D01*
X126523Y265684D01*
X127527Y265525D01*
X129142Y265000D01*
X130655Y264229D01*
X132030Y263231D01*
X133231Y262030D01*
X134229Y260655D01*
X135000Y259142D01*
X135525Y257527D01*
X135684Y256523D01*
X126523Y256523D01*
G37*
%LPD*%
%LPC*%
G36*
X386523Y256523D02*
X386523Y256523D01*
X386523Y265684D01*
X387527Y265525D01*
X389142Y265000D01*
X390655Y264229D01*
X392030Y263231D01*
X393231Y262030D01*
X394229Y260655D01*
X395000Y259142D01*
X395525Y257527D01*
X395684Y256523D01*
X386523Y256523D01*
G37*
%LPD*%
%LPC*%
G36*
X411523Y801523D02*
X411523Y801523D01*
X411523Y810684D01*
X412527Y810525D01*
X414142Y810000D01*
X415655Y809229D01*
X417030Y808231D01*
X418231Y807030D01*
X419229Y805655D01*
X420000Y804142D01*
X420525Y802527D01*
X420684Y801523D01*
X411523Y801523D01*
G37*
%LPD*%
%LPC*%
G36*
X126523Y656523D02*
X126523Y656523D01*
X126523Y665684D01*
X127527Y665525D01*
X129142Y665000D01*
X130655Y664229D01*
X132030Y663231D01*
X133231Y662030D01*
X134229Y660655D01*
X135000Y659142D01*
X135525Y657527D01*
X135684Y656523D01*
X126523Y656523D01*
G37*
%LPD*%
%LPC*%
G36*
X386523Y656523D02*
X386523Y656523D01*
X386523Y665684D01*
X387527Y665525D01*
X389142Y665000D01*
X390655Y664229D01*
X392030Y663231D01*
X393231Y662030D01*
X394229Y660655D01*
X395000Y659142D01*
X395525Y657527D01*
X395684Y656523D01*
X386523Y656523D01*
G37*
%LPD*%
%LPC*%
G36*
X151523Y401523D02*
X151523Y401523D01*
X151523Y410684D01*
X152527Y410525D01*
X154142Y410000D01*
X155655Y409229D01*
X157030Y408231D01*
X158231Y407030D01*
X159229Y405655D01*
X160000Y404142D01*
X160525Y402527D01*
X160684Y401523D01*
X151523Y401523D01*
G37*
%LPD*%
%LPC*%
G36*
X641523Y656523D02*
X641523Y656523D01*
X641523Y665684D01*
X642527Y665525D01*
X644142Y665000D01*
X645655Y664229D01*
X647030Y663231D01*
X648231Y662030D01*
X649229Y660655D01*
X650000Y659142D01*
X650525Y657527D01*
X650684Y656523D01*
X641523Y656523D01*
G37*
%LPD*%
%LPC*%
G36*
X411523Y401523D02*
X411523Y401523D01*
X411523Y410684D01*
X412527Y410525D01*
X414142Y410000D01*
X415655Y409229D01*
X417030Y408231D01*
X418231Y407030D01*
X419229Y405655D01*
X420000Y404142D01*
X420525Y402527D01*
X420684Y401523D01*
X411523Y401523D01*
G37*
%LPD*%
%LPC*%
G36*
X666523Y401523D02*
X666523Y401523D01*
X666523Y410684D01*
X667527Y410525D01*
X669142Y410000D01*
X670655Y409229D01*
X672030Y408231D01*
X673231Y407030D01*
X674229Y405655D01*
X675000Y404142D01*
X675525Y402527D01*
X675684Y401523D01*
X666523Y401523D01*
G37*
%LPD*%
%LPC*%
G36*
X666523Y801523D02*
X666523Y801523D01*
X666523Y810684D01*
X667527Y810525D01*
X669142Y810000D01*
X670655Y809229D01*
X672030Y808231D01*
X673231Y807030D01*
X674229Y805655D01*
X675000Y804142D01*
X675525Y802527D01*
X675684Y801523D01*
X666523Y801523D01*
G37*
%LPD*%
%LPC*%
G36*
X886523Y371523D02*
X886523Y371523D01*
X886523Y380684D01*
X887527Y380525D01*
X889142Y380000D01*
X890655Y379229D01*
X892030Y378231D01*
X893231Y377030D01*
X894229Y375655D01*
X895000Y374142D01*
X895525Y372527D01*
X895684Y371523D01*
X886523Y371523D01*
G37*
%LPD*%
%LPC*%
G36*
X139316Y401523D02*
X139316Y401523D01*
X139475Y402527D01*
X140000Y404142D01*
X140771Y405655D01*
X141769Y407030D01*
X142970Y408231D01*
X144345Y409229D01*
X145858Y410000D01*
X147473Y410525D01*
X148477Y410684D01*
X148477Y401523D01*
X139316Y401523D01*
G37*
%LPD*%
%LPC*%
G36*
X399316Y801523D02*
X399316Y801523D01*
X399475Y802527D01*
X400000Y804142D01*
X400771Y805655D01*
X401769Y807030D01*
X402970Y808231D01*
X404345Y809229D01*
X405858Y810000D01*
X407473Y810525D01*
X408477Y810684D01*
X408477Y801523D01*
X399316Y801523D01*
G37*
%LPD*%
%LPC*%
G36*
X629316Y656523D02*
X629316Y656523D01*
X629475Y657527D01*
X630000Y659142D01*
X630771Y660655D01*
X631769Y662030D01*
X632970Y663231D01*
X634345Y664229D01*
X635858Y665000D01*
X637473Y665525D01*
X638477Y665684D01*
X638477Y656523D01*
X629316Y656523D01*
G37*
%LPD*%
%LPC*%
G36*
X654316Y401523D02*
X654316Y401523D01*
X654475Y402527D01*
X655000Y404142D01*
X655771Y405655D01*
X656769Y407030D01*
X657970Y408231D01*
X659345Y409229D01*
X660858Y410000D01*
X662473Y410525D01*
X663477Y410684D01*
X663477Y401523D01*
X654316Y401523D01*
G37*
%LPD*%
%LPC*%
G36*
X151523Y798477D02*
X151523Y798477D01*
X160684Y798477D01*
X160525Y797473D01*
X160000Y795858D01*
X159229Y794345D01*
X158231Y792970D01*
X157030Y791769D01*
X155655Y790771D01*
X154142Y790000D01*
X152527Y789475D01*
X151523Y789316D01*
X151523Y798477D01*
G37*
%LPD*%
%LPC*%
G36*
X386523Y653477D02*
X386523Y653477D01*
X395684Y653477D01*
X395525Y652473D01*
X395000Y650858D01*
X394229Y649345D01*
X393231Y647970D01*
X392030Y646769D01*
X390655Y645771D01*
X389142Y645000D01*
X387527Y644475D01*
X386523Y644316D01*
X386523Y653477D01*
G37*
%LPD*%
%LPC*%
G36*
X374316Y656523D02*
X374316Y656523D01*
X374475Y657527D01*
X375000Y659142D01*
X375771Y660655D01*
X376769Y662030D01*
X377970Y663231D01*
X379345Y664229D01*
X380858Y665000D01*
X382473Y665525D01*
X383477Y665684D01*
X383477Y656523D01*
X374316Y656523D01*
G37*
%LPD*%
%LPC*%
G36*
X126523Y253477D02*
X126523Y253477D01*
X135684Y253477D01*
X135525Y252473D01*
X135000Y250858D01*
X134229Y249345D01*
X133231Y247970D01*
X132030Y246769D01*
X130655Y245771D01*
X129142Y245000D01*
X127527Y244475D01*
X126523Y244316D01*
X126523Y253477D01*
G37*
%LPD*%
%LPC*%
G36*
X114316Y656523D02*
X114316Y656523D01*
X114475Y657527D01*
X115000Y659142D01*
X115771Y660655D01*
X116769Y662030D01*
X117970Y663231D01*
X119345Y664229D01*
X120858Y665000D01*
X122473Y665525D01*
X123477Y665684D01*
X123477Y656523D01*
X114316Y656523D01*
G37*
%LPD*%
%LPC*%
G36*
X386523Y253477D02*
X386523Y253477D01*
X395684Y253477D01*
X395525Y252473D01*
X395000Y250858D01*
X394229Y249345D01*
X393231Y247970D01*
X392030Y246769D01*
X390655Y245771D01*
X389142Y245000D01*
X387527Y244475D01*
X386523Y244316D01*
X386523Y253477D01*
G37*
%LPD*%
%LPC*%
G36*
X411523Y798477D02*
X411523Y798477D01*
X420684Y798477D01*
X420525Y797473D01*
X420000Y795858D01*
X419229Y794345D01*
X418231Y792970D01*
X417030Y791769D01*
X415655Y790771D01*
X414142Y790000D01*
X412527Y789475D01*
X411523Y789316D01*
X411523Y798477D01*
G37*
%LPD*%
%LPC*%
G36*
X641523Y253477D02*
X641523Y253477D01*
X650684Y253477D01*
X650525Y252473D01*
X650000Y250858D01*
X649229Y249345D01*
X648231Y247970D01*
X647030Y246769D01*
X645655Y245771D01*
X644142Y245000D01*
X642527Y244475D01*
X641523Y244316D01*
X641523Y253477D01*
G37*
%LPD*%
%LPC*%
G36*
X861523Y223477D02*
X861523Y223477D01*
X870684Y223477D01*
X870525Y222473D01*
X870000Y220858D01*
X869229Y219345D01*
X868231Y217970D01*
X867030Y216769D01*
X865655Y215771D01*
X864142Y215000D01*
X862527Y214475D01*
X861523Y214316D01*
X861523Y223477D01*
G37*
%LPD*%
%LPC*%
G36*
X139316Y801523D02*
X139316Y801523D01*
X139475Y802527D01*
X140000Y804142D01*
X140771Y805655D01*
X141769Y807030D01*
X142970Y808231D01*
X144345Y809229D01*
X145858Y810000D01*
X147473Y810525D01*
X148477Y810684D01*
X148477Y801523D01*
X139316Y801523D01*
G37*
%LPD*%
%LPC*%
G36*
X666523Y798477D02*
X666523Y798477D01*
X675684Y798477D01*
X675525Y797473D01*
X675000Y795858D01*
X674229Y794345D01*
X673231Y792970D01*
X672030Y791769D01*
X670655Y790771D01*
X669142Y790000D01*
X667527Y789475D01*
X666523Y789316D01*
X666523Y798477D01*
G37*
%LPD*%
%LPC*%
G36*
X886523Y368477D02*
X886523Y368477D01*
X895684Y368477D01*
X895525Y367473D01*
X895000Y365858D01*
X894229Y364345D01*
X893231Y362970D01*
X892030Y361769D01*
X890655Y360771D01*
X889142Y360000D01*
X887527Y359475D01*
X886523Y359316D01*
X886523Y368477D01*
G37*
%LPD*%
%LPC*%
G36*
X849316Y226523D02*
X849316Y226523D01*
X849475Y227527D01*
X850000Y229142D01*
X850771Y230655D01*
X851769Y232030D01*
X852970Y233231D01*
X854345Y234229D01*
X855858Y235000D01*
X857473Y235525D01*
X858477Y235684D01*
X858477Y226523D01*
X849316Y226523D01*
G37*
%LPD*%
%LPC*%
G36*
X114316Y256523D02*
X114316Y256523D01*
X114475Y257527D01*
X115000Y259142D01*
X115771Y260655D01*
X116769Y262030D01*
X117970Y263231D01*
X119345Y264229D01*
X120858Y265000D01*
X122473Y265525D01*
X123477Y265684D01*
X123477Y256523D01*
X114316Y256523D01*
G37*
%LPD*%
%LPC*%
G36*
X399316Y401523D02*
X399316Y401523D01*
X399475Y402527D01*
X400000Y404142D01*
X400771Y405655D01*
X401769Y407030D01*
X402970Y408231D01*
X404345Y409229D01*
X405858Y410000D01*
X407473Y410525D01*
X408477Y410684D01*
X408477Y401523D01*
X399316Y401523D01*
G37*
%LPD*%
%LPC*%
G36*
X126523Y653477D02*
X126523Y653477D01*
X135684Y653477D01*
X135525Y652473D01*
X135000Y650858D01*
X134229Y649345D01*
X133231Y647970D01*
X132030Y646769D01*
X130655Y645771D01*
X129142Y645000D01*
X127527Y644475D01*
X126523Y644316D01*
X126523Y653477D01*
G37*
%LPD*%
%LPC*%
G36*
X641523Y653477D02*
X641523Y653477D01*
X650684Y653477D01*
X650525Y652473D01*
X650000Y650858D01*
X649229Y649345D01*
X648231Y647970D01*
X647030Y646769D01*
X645655Y645771D01*
X644142Y645000D01*
X642527Y644475D01*
X641523Y644316D01*
X641523Y653477D01*
G37*
%LPD*%
%LPC*%
G36*
X374316Y256523D02*
X374316Y256523D01*
X374475Y257527D01*
X375000Y259142D01*
X375771Y260655D01*
X376769Y262030D01*
X377970Y263231D01*
X379345Y264229D01*
X380858Y265000D01*
X382473Y265525D01*
X383477Y265684D01*
X383477Y256523D01*
X374316Y256523D01*
G37*
%LPD*%
%LPC*%
G36*
X411523Y398477D02*
X411523Y398477D01*
X420684Y398477D01*
X420525Y397473D01*
X420000Y395858D01*
X419229Y394345D01*
X418231Y392970D01*
X417030Y391769D01*
X415655Y390771D01*
X414142Y390000D01*
X412527Y389475D01*
X411523Y389316D01*
X411523Y398477D01*
G37*
%LPD*%
%LPC*%
G36*
X629316Y256523D02*
X629316Y256523D01*
X629475Y257527D01*
X630000Y259142D01*
X630771Y260655D01*
X631769Y262030D01*
X632970Y263231D01*
X634345Y264229D01*
X635858Y265000D01*
X637473Y265525D01*
X638477Y265684D01*
X638477Y256523D01*
X629316Y256523D01*
G37*
%LPD*%
%LPC*%
G36*
X654316Y801523D02*
X654316Y801523D01*
X654475Y802527D01*
X655000Y804142D01*
X655771Y805655D01*
X656769Y807030D01*
X657970Y808231D01*
X659345Y809229D01*
X660858Y810000D01*
X662473Y810525D01*
X663477Y810684D01*
X663477Y801523D01*
X654316Y801523D01*
G37*
%LPD*%
%LPC*%
G36*
X151523Y398477D02*
X151523Y398477D01*
X160684Y398477D01*
X160525Y397473D01*
X160000Y395858D01*
X159229Y394345D01*
X158231Y392970D01*
X157030Y391769D01*
X155655Y390771D01*
X154142Y390000D01*
X152527Y389475D01*
X151523Y389316D01*
X151523Y398477D01*
G37*
%LPD*%
%LPC*%
G36*
X666523Y398477D02*
X666523Y398477D01*
X675684Y398477D01*
X675525Y397473D01*
X675000Y395858D01*
X674229Y394345D01*
X673231Y392970D01*
X672030Y391769D01*
X670655Y390771D01*
X669142Y390000D01*
X667527Y389475D01*
X666523Y389316D01*
X666523Y398477D01*
G37*
%LPD*%
%LPC*%
G36*
X874316Y371523D02*
X874316Y371523D01*
X874475Y372527D01*
X875000Y374142D01*
X875771Y375655D01*
X876769Y377030D01*
X877970Y378231D01*
X879345Y379229D01*
X880858Y380000D01*
X882473Y380525D01*
X883477Y380684D01*
X883477Y371523D01*
X874316Y371523D01*
G37*
%LPD*%
%LPC*%
G36*
X407473Y789475D02*
X407473Y789475D01*
X405858Y790000D01*
X404345Y790771D01*
X402970Y791769D01*
X401769Y792970D01*
X400771Y794345D01*
X400000Y795858D01*
X399475Y797473D01*
X399316Y798477D01*
X408477Y798477D01*
X408477Y789316D01*
X407473Y789475D01*
G37*
%LPD*%
%LPC*%
G36*
X662473Y789475D02*
X662473Y789475D01*
X660858Y790000D01*
X659345Y790771D01*
X657970Y791769D01*
X656769Y792970D01*
X655771Y794345D01*
X655000Y795858D01*
X654475Y797473D01*
X654316Y798477D01*
X663477Y798477D01*
X663477Y789316D01*
X662473Y789475D01*
G37*
%LPD*%
%LPC*%
G36*
X857473Y214475D02*
X857473Y214475D01*
X855858Y215000D01*
X854345Y215771D01*
X852970Y216769D01*
X851769Y217970D01*
X850771Y219345D01*
X850000Y220858D01*
X849475Y222473D01*
X849316Y223477D01*
X858477Y223477D01*
X858477Y214316D01*
X857473Y214475D01*
G37*
%LPD*%
%LPC*%
G36*
X382473Y244475D02*
X382473Y244475D01*
X380858Y245000D01*
X379345Y245771D01*
X377970Y246769D01*
X376769Y247970D01*
X375771Y249345D01*
X375000Y250858D01*
X374475Y252473D01*
X374316Y253477D01*
X383477Y253477D01*
X383477Y244316D01*
X382473Y244475D01*
G37*
%LPD*%
%LPC*%
G36*
X147473Y389475D02*
X147473Y389475D01*
X145858Y390000D01*
X144345Y390771D01*
X142970Y391769D01*
X141769Y392970D01*
X140771Y394345D01*
X140000Y395858D01*
X139475Y397473D01*
X139316Y398477D01*
X148477Y398477D01*
X148477Y389316D01*
X147473Y389475D01*
G37*
%LPD*%
%LPC*%
G36*
X662473Y389475D02*
X662473Y389475D01*
X660858Y390000D01*
X659345Y390771D01*
X657970Y391769D01*
X656769Y392970D01*
X655771Y394345D01*
X655000Y395858D01*
X654475Y397473D01*
X654316Y398477D01*
X663477Y398477D01*
X663477Y389316D01*
X662473Y389475D01*
G37*
%LPD*%
%LPC*%
G36*
X122473Y244475D02*
X122473Y244475D01*
X120858Y245000D01*
X119345Y245771D01*
X117970Y246769D01*
X116769Y247970D01*
X115771Y249345D01*
X115000Y250858D01*
X114475Y252473D01*
X114316Y253477D01*
X123477Y253477D01*
X123477Y244316D01*
X122473Y244475D01*
G37*
%LPD*%
%LPC*%
G36*
X637473Y644475D02*
X637473Y644475D01*
X635858Y645000D01*
X634345Y645771D01*
X632970Y646769D01*
X631769Y647970D01*
X630771Y649345D01*
X630000Y650858D01*
X629475Y652473D01*
X629316Y653477D01*
X638477Y653477D01*
X638477Y644316D01*
X637473Y644475D01*
G37*
%LPD*%
%LPC*%
G36*
X882473Y359475D02*
X882473Y359475D01*
X880858Y360000D01*
X879345Y360771D01*
X877970Y361769D01*
X876769Y362970D01*
X875771Y364345D01*
X875000Y365858D01*
X874475Y367473D01*
X874316Y368477D01*
X883477Y368477D01*
X883477Y359316D01*
X882473Y359475D01*
G37*
%LPD*%
%LPC*%
G36*
X407473Y389475D02*
X407473Y389475D01*
X405858Y390000D01*
X404345Y390771D01*
X402970Y391769D01*
X401769Y392970D01*
X400771Y394345D01*
X400000Y395858D01*
X399475Y397473D01*
X399316Y398477D01*
X408477Y398477D01*
X408477Y389316D01*
X407473Y389475D01*
G37*
%LPD*%
%LPC*%
G36*
X382473Y644475D02*
X382473Y644475D01*
X380858Y645000D01*
X379345Y645771D01*
X377970Y646769D01*
X376769Y647970D01*
X375771Y649345D01*
X375000Y650858D01*
X374475Y652473D01*
X374316Y653477D01*
X383477Y653477D01*
X383477Y644316D01*
X382473Y644475D01*
G37*
%LPD*%
%LPC*%
G36*
X122473Y644475D02*
X122473Y644475D01*
X120858Y645000D01*
X119345Y645771D01*
X117970Y646769D01*
X116769Y647970D01*
X115771Y649345D01*
X115000Y650858D01*
X114475Y652473D01*
X114316Y653477D01*
X123477Y653477D01*
X123477Y644316D01*
X122473Y644475D01*
G37*
%LPD*%
%LPC*%
G36*
X637473Y244475D02*
X637473Y244475D01*
X635858Y245000D01*
X634345Y245771D01*
X632970Y246769D01*
X631769Y247970D01*
X630771Y249345D01*
X630000Y250858D01*
X629475Y252473D01*
X629316Y253477D01*
X638477Y253477D01*
X638477Y244316D01*
X637473Y244475D01*
G37*
%LPD*%
%LPC*%
G36*
X147473Y789475D02*
X147473Y789475D01*
X145858Y790000D01*
X144345Y790771D01*
X142970Y791769D01*
X141769Y792970D01*
X140771Y794345D01*
X140000Y795858D01*
X139475Y797473D01*
X139316Y798477D01*
X148477Y798477D01*
X148477Y789316D01*
X147473Y789475D01*
G37*
%LPD*%
%LPC*%
G36*
X789623Y867223D02*
X789623Y867223D01*
X789623Y875861D01*
X792309Y875861D01*
X798261Y869909D01*
X798261Y867223D01*
X789623Y867223D01*
G37*
%LPD*%
%LPC*%
G36*
X190723Y867223D02*
X190723Y867223D01*
X190723Y875861D01*
X193409Y875861D01*
X199361Y869909D01*
X199361Y867223D01*
X190723Y867223D01*
G37*
%LPD*%
%LPC*%
G36*
X165323Y867223D02*
X165323Y867223D01*
X165323Y875861D01*
X168009Y875861D01*
X173961Y869909D01*
X173961Y867223D01*
X165323Y867223D01*
G37*
%LPD*%
%LPC*%
G36*
X815023Y867223D02*
X815023Y867223D01*
X815023Y875861D01*
X817709Y875861D01*
X823661Y869909D01*
X823661Y867223D01*
X815023Y867223D01*
G37*
%LPD*%
%LPC*%
G36*
X139923Y867223D02*
X139923Y867223D01*
X139923Y875861D01*
X142609Y875861D01*
X148561Y869909D01*
X148561Y867223D01*
X139923Y867223D01*
G37*
%LPD*%
%LPC*%
G36*
X475423Y867223D02*
X475423Y867223D01*
X475423Y875861D01*
X478109Y875861D01*
X484061Y869909D01*
X484061Y867223D01*
X475423Y867223D01*
G37*
%LPD*%
%LPC*%
G36*
X891223Y867223D02*
X891223Y867223D01*
X891223Y875861D01*
X893909Y875861D01*
X899861Y869909D01*
X899861Y867223D01*
X891223Y867223D01*
G37*
%LPD*%
%LPC*%
G36*
X764223Y867223D02*
X764223Y867223D01*
X764223Y875861D01*
X766909Y875861D01*
X772861Y869909D01*
X772861Y867223D01*
X764223Y867223D01*
G37*
%LPD*%
%LPC*%
G36*
X865823Y867223D02*
X865823Y867223D01*
X865823Y875861D01*
X868509Y875861D01*
X874461Y869909D01*
X874461Y867223D01*
X865823Y867223D01*
G37*
%LPD*%
%LPC*%
G36*
X840423Y867223D02*
X840423Y867223D01*
X840423Y875861D01*
X843109Y875861D01*
X849061Y869909D01*
X849061Y867223D01*
X840423Y867223D01*
G37*
%LPD*%
%LPC*%
G36*
X216123Y867223D02*
X216123Y867223D01*
X216123Y875861D01*
X218809Y875861D01*
X224761Y869909D01*
X224761Y867223D01*
X216123Y867223D01*
G37*
%LPD*%
%LPC*%
G36*
X450023Y867223D02*
X450023Y867223D01*
X450023Y875861D01*
X452709Y875861D01*
X458661Y869909D01*
X458661Y867223D01*
X450023Y867223D01*
G37*
%LPD*%
%LPC*%
G36*
X424623Y867223D02*
X424623Y867223D01*
X424623Y875861D01*
X427309Y875861D01*
X433261Y869909D01*
X433261Y867223D01*
X424623Y867223D01*
G37*
%LPD*%
%LPC*%
G36*
X399223Y867223D02*
X399223Y867223D01*
X399223Y875861D01*
X401909Y875861D01*
X407861Y869909D01*
X407861Y867223D01*
X399223Y867223D01*
G37*
%LPD*%
%LPC*%
G36*
X879539Y867223D02*
X879539Y867223D01*
X879539Y869909D01*
X885491Y875861D01*
X888177Y875861D01*
X888177Y867223D01*
X879539Y867223D01*
G37*
%LPD*%
%LPC*%
G36*
X128239Y867223D02*
X128239Y867223D01*
X128239Y869909D01*
X134191Y875861D01*
X136877Y875861D01*
X136877Y867223D01*
X128239Y867223D01*
G37*
%LPD*%
%LPC*%
G36*
X777939Y867223D02*
X777939Y867223D01*
X777939Y869909D01*
X783891Y875861D01*
X786577Y875861D01*
X786577Y867223D01*
X777939Y867223D01*
G37*
%LPD*%
%LPC*%
G36*
X752539Y867223D02*
X752539Y867223D01*
X752539Y869909D01*
X758491Y875861D01*
X761177Y875861D01*
X761177Y867223D01*
X752539Y867223D01*
G37*
%LPD*%
%LPC*%
G36*
X803339Y867223D02*
X803339Y867223D01*
X803339Y869909D01*
X809291Y875861D01*
X811977Y875861D01*
X811977Y867223D01*
X803339Y867223D01*
G37*
%LPD*%
%LPC*%
G36*
X854139Y867223D02*
X854139Y867223D01*
X854139Y869909D01*
X860091Y875861D01*
X862777Y875861D01*
X862777Y867223D01*
X854139Y867223D01*
G37*
%LPD*%
%LPC*%
G36*
X153639Y867223D02*
X153639Y867223D01*
X153639Y869909D01*
X159591Y875861D01*
X162277Y875861D01*
X162277Y867223D01*
X153639Y867223D01*
G37*
%LPD*%
%LPC*%
G36*
X179039Y867223D02*
X179039Y867223D01*
X179039Y869909D01*
X184991Y875861D01*
X187677Y875861D01*
X187677Y867223D01*
X179039Y867223D01*
G37*
%LPD*%
%LPC*%
G36*
X204439Y867223D02*
X204439Y867223D01*
X204439Y869909D01*
X210391Y875861D01*
X213077Y875861D01*
X213077Y867223D01*
X204439Y867223D01*
G37*
%LPD*%
%LPC*%
G36*
X828739Y867223D02*
X828739Y867223D01*
X828739Y869909D01*
X834691Y875861D01*
X837377Y875861D01*
X837377Y867223D01*
X828739Y867223D01*
G37*
%LPD*%
%LPC*%
G36*
X387539Y867223D02*
X387539Y867223D01*
X387539Y869909D01*
X393491Y875861D01*
X396177Y875861D01*
X396177Y867223D01*
X387539Y867223D01*
G37*
%LPD*%
%LPC*%
G36*
X412939Y867223D02*
X412939Y867223D01*
X412939Y869909D01*
X418891Y875861D01*
X421577Y875861D01*
X421577Y867223D01*
X412939Y867223D01*
G37*
%LPD*%
%LPC*%
G36*
X438339Y867223D02*
X438339Y867223D01*
X438339Y869909D01*
X444291Y875861D01*
X446977Y875861D01*
X446977Y867223D01*
X438339Y867223D01*
G37*
%LPD*%
%LPC*%
G36*
X463739Y867223D02*
X463739Y867223D01*
X463739Y869909D01*
X469691Y875861D01*
X472377Y875861D01*
X472377Y867223D01*
X463739Y867223D01*
G37*
%LPD*%
%LPC*%
G36*
X840423Y855539D02*
X840423Y855539D01*
X840423Y864177D01*
X849061Y864177D01*
X849061Y861491D01*
X843109Y855539D01*
X840423Y855539D01*
G37*
%LPD*%
%LPC*%
G36*
X865823Y855539D02*
X865823Y855539D01*
X865823Y864177D01*
X874461Y864177D01*
X874461Y861491D01*
X868509Y855539D01*
X865823Y855539D01*
G37*
%LPD*%
%LPC*%
G36*
X139923Y855539D02*
X139923Y855539D01*
X139923Y864177D01*
X148561Y864177D01*
X148561Y861491D01*
X142609Y855539D01*
X139923Y855539D01*
G37*
%LPD*%
%LPC*%
G36*
X165323Y855539D02*
X165323Y855539D01*
X165323Y864177D01*
X173961Y864177D01*
X173961Y861491D01*
X168009Y855539D01*
X165323Y855539D01*
G37*
%LPD*%
%LPC*%
G36*
X475423Y855539D02*
X475423Y855539D01*
X475423Y864177D01*
X484061Y864177D01*
X484061Y861491D01*
X478109Y855539D01*
X475423Y855539D01*
G37*
%LPD*%
%LPC*%
G36*
X891223Y855539D02*
X891223Y855539D01*
X891223Y864177D01*
X899861Y864177D01*
X899861Y861491D01*
X893909Y855539D01*
X891223Y855539D01*
G37*
%LPD*%
%LPC*%
G36*
X424623Y855539D02*
X424623Y855539D01*
X424623Y864177D01*
X433261Y864177D01*
X433261Y861491D01*
X427309Y855539D01*
X424623Y855539D01*
G37*
%LPD*%
%LPC*%
G36*
X815023Y855539D02*
X815023Y855539D01*
X815023Y864177D01*
X823661Y864177D01*
X823661Y861491D01*
X817709Y855539D01*
X815023Y855539D01*
G37*
%LPD*%
%LPC*%
G36*
X399223Y855539D02*
X399223Y855539D01*
X399223Y864177D01*
X407861Y864177D01*
X407861Y861491D01*
X401909Y855539D01*
X399223Y855539D01*
G37*
%LPD*%
%LPC*%
G36*
X764223Y855539D02*
X764223Y855539D01*
X764223Y864177D01*
X772861Y864177D01*
X772861Y861491D01*
X766909Y855539D01*
X764223Y855539D01*
G37*
%LPD*%
%LPC*%
G36*
X190723Y855539D02*
X190723Y855539D01*
X190723Y864177D01*
X199361Y864177D01*
X199361Y861491D01*
X193409Y855539D01*
X190723Y855539D01*
G37*
%LPD*%
%LPC*%
G36*
X450023Y855539D02*
X450023Y855539D01*
X450023Y864177D01*
X458661Y864177D01*
X458661Y861491D01*
X452709Y855539D01*
X450023Y855539D01*
G37*
%LPD*%
%LPC*%
G36*
X789623Y855539D02*
X789623Y855539D01*
X789623Y864177D01*
X798261Y864177D01*
X798261Y861491D01*
X792309Y855539D01*
X789623Y855539D01*
G37*
%LPD*%
%LPC*%
G36*
X216123Y855539D02*
X216123Y855539D01*
X216123Y864177D01*
X224761Y864177D01*
X224761Y861491D01*
X218809Y855539D01*
X216123Y855539D01*
G37*
%LPD*%
%LPC*%
G36*
X834691Y855539D02*
X834691Y855539D01*
X828739Y861491D01*
X828739Y864177D01*
X837377Y864177D01*
X837377Y855539D01*
X834691Y855539D01*
G37*
%LPD*%
%LPC*%
G36*
X758491Y855539D02*
X758491Y855539D01*
X752539Y861491D01*
X752539Y864177D01*
X761177Y864177D01*
X761177Y855539D01*
X758491Y855539D01*
G37*
%LPD*%
%LPC*%
G36*
X210391Y855539D02*
X210391Y855539D01*
X204439Y861491D01*
X204439Y864177D01*
X213077Y864177D01*
X213077Y855539D01*
X210391Y855539D01*
G37*
%LPD*%
%LPC*%
G36*
X393491Y855539D02*
X393491Y855539D01*
X387539Y861491D01*
X387539Y864177D01*
X396177Y864177D01*
X396177Y855539D01*
X393491Y855539D01*
G37*
%LPD*%
%LPC*%
G36*
X444291Y855539D02*
X444291Y855539D01*
X438339Y861491D01*
X438339Y864177D01*
X446977Y864177D01*
X446977Y855539D01*
X444291Y855539D01*
G37*
%LPD*%
%LPC*%
G36*
X469691Y855539D02*
X469691Y855539D01*
X463739Y861491D01*
X463739Y864177D01*
X472377Y864177D01*
X472377Y855539D01*
X469691Y855539D01*
G37*
%LPD*%
%LPC*%
G36*
X184991Y855539D02*
X184991Y855539D01*
X179039Y861491D01*
X179039Y864177D01*
X187677Y864177D01*
X187677Y855539D01*
X184991Y855539D01*
G37*
%LPD*%
%LPC*%
G36*
X159591Y855539D02*
X159591Y855539D01*
X153639Y861491D01*
X153639Y864177D01*
X162277Y864177D01*
X162277Y855539D01*
X159591Y855539D01*
G37*
%LPD*%
%LPC*%
G36*
X134191Y855539D02*
X134191Y855539D01*
X128239Y861491D01*
X128239Y864177D01*
X136877Y864177D01*
X136877Y855539D01*
X134191Y855539D01*
G37*
%LPD*%
%LPC*%
G36*
X418891Y855539D02*
X418891Y855539D01*
X412939Y861491D01*
X412939Y864177D01*
X421577Y864177D01*
X421577Y855539D01*
X418891Y855539D01*
G37*
%LPD*%
%LPC*%
G36*
X783891Y855539D02*
X783891Y855539D01*
X777939Y861491D01*
X777939Y864177D01*
X786577Y864177D01*
X786577Y855539D01*
X783891Y855539D01*
G37*
%LPD*%
%LPC*%
G36*
X885491Y855539D02*
X885491Y855539D01*
X879539Y861491D01*
X879539Y864177D01*
X888177Y864177D01*
X888177Y855539D01*
X885491Y855539D01*
G37*
%LPD*%
%LPC*%
G36*
X809291Y855539D02*
X809291Y855539D01*
X803339Y861491D01*
X803339Y864177D01*
X811977Y864177D01*
X811977Y855539D01*
X809291Y855539D01*
G37*
%LPD*%
%LPC*%
G36*
X860091Y855539D02*
X860091Y855539D01*
X854139Y861491D01*
X854139Y864177D01*
X862777Y864177D01*
X862777Y855539D01*
X860091Y855539D01*
G37*
%LPD*%
%LPC*%
G36*
X311523Y151363D02*
X311523Y151363D01*
X311523Y158985D01*
X313788Y158985D01*
X319145Y153628D01*
X319145Y151363D01*
X311523Y151363D01*
G37*
%LPD*%
%LPC*%
G36*
X51523Y151363D02*
X51523Y151363D01*
X51523Y158985D01*
X53788Y158985D01*
X59145Y153628D01*
X59145Y151363D01*
X51523Y151363D01*
G37*
%LPD*%
%LPC*%
G36*
X581523Y151363D02*
X581523Y151363D01*
X581523Y158985D01*
X583788Y158985D01*
X589145Y153628D01*
X589145Y151363D01*
X581523Y151363D01*
G37*
%LPD*%
%LPC*%
G36*
X321523Y251683D02*
X321523Y251683D01*
X321523Y259305D01*
X323788Y259305D01*
X329145Y253948D01*
X329145Y251683D01*
X321523Y251683D01*
G37*
%LPD*%
%LPC*%
G36*
X62703Y251683D02*
X62703Y251683D01*
X62703Y259305D01*
X64968Y259305D01*
X70325Y253948D01*
X70325Y251683D01*
X62703Y251683D01*
G37*
%LPD*%
%LPC*%
G36*
X581523Y140695D02*
X581523Y140695D01*
X581523Y148317D01*
X589145Y148317D01*
X589145Y146052D01*
X583788Y140695D01*
X581523Y140695D01*
G37*
%LPD*%
%LPC*%
G36*
X570855Y151363D02*
X570855Y151363D01*
X570855Y153628D01*
X576212Y158985D01*
X578477Y158985D01*
X578477Y151363D01*
X570855Y151363D01*
G37*
%LPD*%
%LPC*%
G36*
X300855Y151363D02*
X300855Y151363D01*
X300855Y153628D01*
X306212Y158985D01*
X308477Y158985D01*
X308477Y151363D01*
X300855Y151363D01*
G37*
%LPD*%
%LPC*%
G36*
X40855Y151363D02*
X40855Y151363D01*
X40855Y153628D01*
X46212Y158985D01*
X48477Y158985D01*
X48477Y151363D01*
X40855Y151363D01*
G37*
%LPD*%
%LPC*%
G36*
X311523Y140695D02*
X311523Y140695D01*
X311523Y148317D01*
X319145Y148317D01*
X319145Y146052D01*
X313788Y140695D01*
X311523Y140695D01*
G37*
%LPD*%
%LPC*%
G36*
X51523Y140695D02*
X51523Y140695D01*
X51523Y148317D01*
X59145Y148317D01*
X59145Y146052D01*
X53788Y140695D01*
X51523Y140695D01*
G37*
%LPD*%
%LPC*%
G36*
X310855Y251683D02*
X310855Y251683D01*
X310855Y253948D01*
X316212Y259305D01*
X318477Y259305D01*
X318477Y251683D01*
X310855Y251683D01*
G37*
%LPD*%
%LPC*%
G36*
X321523Y241015D02*
X321523Y241015D01*
X321523Y248637D01*
X329145Y248637D01*
X329145Y246372D01*
X323788Y241015D01*
X321523Y241015D01*
G37*
%LPD*%
%LPC*%
G36*
X62703Y241015D02*
X62703Y241015D01*
X62703Y248637D01*
X70325Y248637D01*
X70325Y246372D01*
X64968Y241015D01*
X62703Y241015D01*
G37*
%LPD*%
%LPC*%
G36*
X52035Y251683D02*
X52035Y251683D01*
X52035Y253948D01*
X57392Y259305D01*
X59657Y259305D01*
X59657Y251683D01*
X52035Y251683D01*
G37*
%LPD*%
%LPC*%
G36*
X306212Y140695D02*
X306212Y140695D01*
X300855Y146052D01*
X300855Y148317D01*
X308477Y148317D01*
X308477Y140695D01*
X306212Y140695D01*
G37*
%LPD*%
%LPC*%
G36*
X46212Y140695D02*
X46212Y140695D01*
X40855Y146052D01*
X40855Y148317D01*
X48477Y148317D01*
X48477Y140695D01*
X46212Y140695D01*
G37*
%LPD*%
%LPC*%
G36*
X576212Y140695D02*
X576212Y140695D01*
X570855Y146052D01*
X570855Y148317D01*
X578477Y148317D01*
X578477Y140695D01*
X576212Y140695D01*
G37*
%LPD*%
%LPC*%
G36*
X316212Y241015D02*
X316212Y241015D01*
X310855Y246372D01*
X310855Y248637D01*
X318477Y248637D01*
X318477Y241015D01*
X316212Y241015D01*
G37*
%LPD*%
%LPC*%
G36*
X57392Y241015D02*
X57392Y241015D01*
X52035Y246372D01*
X52035Y248637D01*
X59657Y248637D01*
X59657Y241015D01*
X57392Y241015D01*
G37*
%LPD*%
%LPC*%
G36*
X639999Y254999D02*
X639999Y254999D01*
X639999Y255001D01*
X640001Y255001D01*
X640001Y254999D01*
X639999Y254999D01*
G37*
%LPD*%
%LPC*%
G36*
X443499Y329999D02*
X443499Y329999D01*
X443499Y330001D01*
X443501Y330001D01*
X443501Y329999D01*
X443499Y329999D01*
G37*
%LPD*%
%LPC*%
G36*
X326499Y329999D02*
X326499Y329999D01*
X326499Y330001D01*
X326501Y330001D01*
X326501Y329999D01*
X326499Y329999D01*
G37*
%LPD*%
%LPC*%
G36*
X581499Y329999D02*
X581499Y329999D01*
X581499Y330001D01*
X581501Y330001D01*
X581501Y329999D01*
X581499Y329999D01*
G37*
%LPD*%
%LPC*%
G36*
X64999Y585999D02*
X64999Y585999D01*
X64999Y586001D01*
X65001Y586001D01*
X65001Y585999D01*
X64999Y585999D01*
G37*
%LPD*%
%LPC*%
G36*
X324999Y585999D02*
X324999Y585999D01*
X324999Y586001D01*
X325001Y586001D01*
X325001Y585999D01*
X324999Y585999D01*
G37*
%LPD*%
%LPC*%
G36*
X124999Y654999D02*
X124999Y654999D01*
X124999Y655001D01*
X125001Y655001D01*
X125001Y654999D01*
X124999Y654999D01*
G37*
%LPD*%
%LPC*%
G36*
X639999Y654999D02*
X639999Y654999D01*
X639999Y655001D01*
X640001Y655001D01*
X640001Y654999D01*
X639999Y654999D01*
G37*
%LPD*%
%LPC*%
G36*
X724999Y114999D02*
X724999Y114999D01*
X724999Y115001D01*
X725001Y115001D01*
X725001Y114999D01*
X724999Y114999D01*
G37*
%LPD*%
%LPC*%
G36*
X654999Y114999D02*
X654999Y114999D01*
X654999Y115001D01*
X655001Y115001D01*
X655001Y114999D01*
X654999Y114999D01*
G37*
%LPD*%
%LPC*%
G36*
X419999Y114999D02*
X419999Y114999D01*
X419999Y115001D01*
X420001Y115001D01*
X420001Y114999D01*
X419999Y114999D01*
G37*
%LPD*%
%LPC*%
G36*
X349999Y114999D02*
X349999Y114999D01*
X349999Y115001D01*
X350001Y115001D01*
X350001Y114999D01*
X349999Y114999D01*
G37*
%LPD*%
%LPC*%
G36*
X159999Y114999D02*
X159999Y114999D01*
X159999Y115001D01*
X160001Y115001D01*
X160001Y114999D01*
X159999Y114999D01*
G37*
%LPD*%
%LPC*%
G36*
X89999Y114999D02*
X89999Y114999D01*
X89999Y115001D01*
X90001Y115001D01*
X90001Y114999D01*
X89999Y114999D01*
G37*
%LPD*%
%LPC*%
G36*
X384999Y654999D02*
X384999Y654999D01*
X384999Y655001D01*
X385001Y655001D01*
X385001Y654999D01*
X384999Y654999D01*
G37*
%LPD*%
%LPC*%
G36*
X884999Y369999D02*
X884999Y369999D01*
X884999Y370001D01*
X885001Y370001D01*
X885001Y369999D01*
X884999Y369999D01*
G37*
%LPD*%
%LPC*%
G36*
X138399Y865699D02*
X138399Y865699D01*
X138399Y865701D01*
X138401Y865701D01*
X138401Y865699D01*
X138399Y865699D01*
G37*
%LPD*%
%LPC*%
G36*
X163799Y865699D02*
X163799Y865699D01*
X163799Y865701D01*
X163801Y865701D01*
X163801Y865699D01*
X163799Y865699D01*
G37*
%LPD*%
%LPC*%
G36*
X189199Y865699D02*
X189199Y865699D01*
X189199Y865701D01*
X189201Y865701D01*
X189201Y865699D01*
X189199Y865699D01*
G37*
%LPD*%
%LPC*%
G36*
X214599Y865699D02*
X214599Y865699D01*
X214599Y865701D01*
X214601Y865701D01*
X214601Y865699D01*
X214599Y865699D01*
G37*
%LPD*%
%LPC*%
G36*
X473899Y865699D02*
X473899Y865699D01*
X473899Y865701D01*
X473901Y865701D01*
X473901Y865699D01*
X473899Y865699D01*
G37*
%LPD*%
%LPC*%
G36*
X762699Y865699D02*
X762699Y865699D01*
X762699Y865701D01*
X762701Y865701D01*
X762701Y865699D01*
X762699Y865699D01*
G37*
%LPD*%
%LPC*%
G36*
X397699Y865699D02*
X397699Y865699D01*
X397699Y865701D01*
X397701Y865701D01*
X397701Y865699D01*
X397699Y865699D01*
G37*
%LPD*%
%LPC*%
G36*
X423099Y865699D02*
X423099Y865699D01*
X423099Y865701D01*
X423101Y865701D01*
X423101Y865699D01*
X423099Y865699D01*
G37*
%LPD*%
%LPC*%
G36*
X448499Y865699D02*
X448499Y865699D01*
X448499Y865701D01*
X448501Y865701D01*
X448501Y865699D01*
X448499Y865699D01*
G37*
%LPD*%
%LPC*%
G36*
X813499Y865699D02*
X813499Y865699D01*
X813499Y865701D01*
X813501Y865701D01*
X813501Y865699D01*
X813499Y865699D01*
G37*
%LPD*%
%LPC*%
G36*
X838899Y865699D02*
X838899Y865699D01*
X838899Y865701D01*
X838901Y865701D01*
X838901Y865699D01*
X838899Y865699D01*
G37*
%LPD*%
%LPC*%
G36*
X864299Y865699D02*
X864299Y865699D01*
X864299Y865701D01*
X864301Y865701D01*
X864301Y865699D01*
X864299Y865699D01*
G37*
%LPD*%
%LPC*%
G36*
X889699Y865699D02*
X889699Y865699D01*
X889699Y865701D01*
X889701Y865701D01*
X889701Y865699D01*
X889699Y865699D01*
G37*
%LPD*%
%LPC*%
G36*
X859999Y84999D02*
X859999Y84999D01*
X859999Y85001D01*
X860001Y85001D01*
X860001Y84999D01*
X859999Y84999D01*
G37*
%LPD*%
%LPC*%
G36*
X319999Y250159D02*
X319999Y250159D01*
X319999Y250161D01*
X320001Y250161D01*
X320001Y250159D01*
X319999Y250159D01*
G37*
%LPD*%
%LPC*%
G36*
X61179Y250159D02*
X61179Y250159D01*
X61179Y250161D01*
X61181Y250161D01*
X61181Y250159D01*
X61179Y250159D01*
G37*
%LPD*%
%LPC*%
G36*
X579999Y149839D02*
X579999Y149839D01*
X579999Y149841D01*
X580001Y149841D01*
X580001Y149839D01*
X579999Y149839D01*
G37*
%LPD*%
%LPC*%
G36*
X309999Y149839D02*
X309999Y149839D01*
X309999Y149841D01*
X310001Y149841D01*
X310001Y149839D01*
X309999Y149839D01*
G37*
%LPD*%
%LPC*%
G36*
X49999Y149839D02*
X49999Y149839D01*
X49999Y149841D01*
X50001Y149841D01*
X50001Y149839D01*
X49999Y149839D01*
G37*
%LPD*%
%LPC*%
G36*
X183499Y729999D02*
X183499Y729999D01*
X183499Y730001D01*
X183501Y730001D01*
X183501Y729999D01*
X183499Y729999D01*
G37*
%LPD*%
%LPC*%
G36*
X581499Y729999D02*
X581499Y729999D01*
X581499Y730001D01*
X581501Y730001D01*
X581501Y729999D01*
X581499Y729999D01*
G37*
%LPD*%
%LPC*%
G36*
X698499Y329999D02*
X698499Y329999D01*
X698499Y330001D01*
X698501Y330001D01*
X698501Y329999D01*
X698499Y329999D01*
G37*
%LPD*%
%LPC*%
G36*
X149999Y399999D02*
X149999Y399999D01*
X149999Y400001D01*
X150001Y400001D01*
X150001Y399999D01*
X149999Y399999D01*
G37*
%LPD*%
%LPC*%
G36*
X66499Y329999D02*
X66499Y329999D01*
X66499Y330001D01*
X66501Y330001D01*
X66501Y329999D01*
X66499Y329999D01*
G37*
%LPD*%
%LPC*%
G36*
X183499Y329999D02*
X183499Y329999D01*
X183499Y330001D01*
X183501Y330001D01*
X183501Y329999D01*
X183499Y329999D01*
G37*
%LPD*%
%LPC*%
G36*
X664999Y399999D02*
X664999Y399999D01*
X664999Y400001D01*
X665001Y400001D01*
X665001Y399999D01*
X664999Y399999D01*
G37*
%LPD*%
%LPC*%
G36*
X664999Y799999D02*
X664999Y799999D01*
X664999Y800001D01*
X665001Y800001D01*
X665001Y799999D01*
X664999Y799999D01*
G37*
%LPD*%
%LPC*%
G36*
X149999Y799999D02*
X149999Y799999D01*
X149999Y800001D01*
X150001Y800001D01*
X150001Y799999D01*
X149999Y799999D01*
G37*
%LPD*%
%LPC*%
G36*
X724999Y44999D02*
X724999Y44999D01*
X724999Y45001D01*
X725001Y45001D01*
X725001Y44999D01*
X724999Y44999D01*
G37*
%LPD*%
%LPC*%
G36*
X654999Y44999D02*
X654999Y44999D01*
X654999Y45001D01*
X655001Y45001D01*
X655001Y44999D01*
X654999Y44999D01*
G37*
%LPD*%
%LPC*%
G36*
X419999Y44999D02*
X419999Y44999D01*
X419999Y45001D01*
X420001Y45001D01*
X420001Y44999D01*
X419999Y44999D01*
G37*
%LPD*%
%LPC*%
G36*
X349999Y44999D02*
X349999Y44999D01*
X349999Y45001D01*
X350001Y45001D01*
X350001Y44999D01*
X349999Y44999D01*
G37*
%LPD*%
%LPC*%
G36*
X159999Y44999D02*
X159999Y44999D01*
X159999Y45001D01*
X160001Y45001D01*
X160001Y44999D01*
X159999Y44999D01*
G37*
%LPD*%
%LPC*%
G36*
X89999Y44999D02*
X89999Y44999D01*
X89999Y45001D01*
X90001Y45001D01*
X90001Y44999D01*
X89999Y44999D01*
G37*
%LPD*%
%LPC*%
G36*
X409999Y799999D02*
X409999Y799999D01*
X409999Y800001D01*
X410001Y800001D01*
X410001Y799999D01*
X409999Y799999D01*
G37*
%LPD*%
%LPC*%
G36*
X859999Y224999D02*
X859999Y224999D01*
X859999Y225001D01*
X860001Y225001D01*
X860001Y224999D01*
X859999Y224999D01*
G37*
%LPD*%
%LPC*%
G36*
X801499Y299999D02*
X801499Y299999D01*
X801499Y300001D01*
X801501Y300001D01*
X801501Y299999D01*
X801499Y299999D01*
G37*
%LPD*%
%LPC*%
G36*
X918499Y299999D02*
X918499Y299999D01*
X918499Y300001D01*
X918501Y300001D01*
X918501Y299999D01*
X918499Y299999D01*
G37*
%LPD*%
%LPC*%
G36*
X698499Y729999D02*
X698499Y729999D01*
X698499Y730001D01*
X698501Y730001D01*
X698501Y729999D01*
X698499Y729999D01*
G37*
%LPD*%
%LPC*%
G36*
X443499Y729999D02*
X443499Y729999D01*
X443499Y730001D01*
X443501Y730001D01*
X443501Y729999D01*
X443499Y729999D01*
G37*
%LPD*%
%LPC*%
G36*
X788099Y865699D02*
X788099Y865699D01*
X788099Y865701D01*
X788101Y865701D01*
X788101Y865699D01*
X788099Y865699D01*
G37*
%LPD*%
%LPC*%
G36*
X326499Y729999D02*
X326499Y729999D01*
X326499Y730001D01*
X326501Y730001D01*
X326501Y729999D01*
X326499Y729999D01*
G37*
%LPD*%
%LPC*%
G36*
X124999Y254999D02*
X124999Y254999D01*
X124999Y255001D01*
X125001Y255001D01*
X125001Y254999D01*
X124999Y254999D01*
G37*
%LPD*%
%LPC*%
G36*
X66499Y729999D02*
X66499Y729999D01*
X66499Y730001D01*
X66501Y730001D01*
X66501Y729999D01*
X66499Y729999D01*
G37*
%LPD*%
%LPC*%
G36*
X384999Y254999D02*
X384999Y254999D01*
X384999Y255001D01*
X385001Y255001D01*
X385001Y254999D01*
X384999Y254999D01*
G37*
%LPD*%
%LPC*%
G36*
X409999Y399999D02*
X409999Y399999D01*
X409999Y400001D01*
X410001Y400001D01*
X410001Y399999D01*
X409999Y399999D01*
G37*
%LPD*%
D10*
X65000Y586000D03*
X65000Y464000D03*
X185000Y586000D03*
X185000Y464000D03*
X125000Y606000D03*
D11*
X125000Y80000D03*
D12*
X160000Y115000D03*
X90000Y115000D03*
X160000Y45000D03*
X90000Y45000D03*
D11*
X385000Y80000D03*
D12*
X420000Y115000D03*
X350000Y115000D03*
X420000Y45000D03*
X350000Y45000D03*
D11*
X690000Y80000D03*
D12*
X725000Y115000D03*
X655000Y115000D03*
X725000Y45000D03*
X655000Y45000D03*
D13*
X150000Y400000D03*
D14*
X66500Y330000D03*
X183500Y330000D03*
D13*
X100000Y400000D03*
X100000Y255000D03*
X150000Y255000D03*
X125000Y255000D03*
X150000Y800000D03*
D14*
X66500Y730000D03*
X183500Y730000D03*
D13*
X100000Y800000D03*
X100000Y655000D03*
X150000Y655000D03*
X125000Y655000D03*
X410000Y400000D03*
D14*
X326500Y330000D03*
X443500Y330000D03*
D13*
X360000Y400000D03*
X360000Y255000D03*
X410000Y255000D03*
X385000Y255000D03*
X410000Y800000D03*
D14*
X326500Y730000D03*
X443500Y730000D03*
D13*
X360000Y800000D03*
X360000Y655000D03*
X410000Y655000D03*
X385000Y655000D03*
X665000Y400000D03*
D14*
X581500Y330000D03*
X698500Y330000D03*
D13*
X615000Y400000D03*
X615000Y255000D03*
X665000Y255000D03*
X640000Y255000D03*
X665000Y800000D03*
D14*
X581500Y730000D03*
X698500Y730000D03*
D13*
X615000Y800000D03*
X615000Y655000D03*
X665000Y655000D03*
X640000Y655000D03*
X885000Y370000D03*
D14*
X801500Y300000D03*
X918500Y300000D03*
D13*
X835000Y370000D03*
X835000Y225000D03*
X885000Y225000D03*
X860000Y225000D03*
D10*
X325000Y586000D03*
X325000Y464000D03*
X445000Y586000D03*
X445000Y464000D03*
X385000Y606000D03*
D15*
X61180Y250160D03*
D16*
X61180Y229840D03*
D15*
X201450Y206542D03*
D16*
X201450Y186222D03*
D15*
X320000Y250160D03*
D16*
X320000Y229840D03*
D15*
X451450Y201447D03*
D16*
X451450Y181127D03*
D17*
X214600Y840300D03*
X189200Y840300D03*
X163800Y840300D03*
X138400Y840300D03*
X113000Y840300D03*
X87600Y840300D03*
X214600Y865700D03*
X189200Y865700D03*
X163800Y865700D03*
X138400Y865700D03*
X113000Y865700D03*
X87600Y865700D03*
X62200Y840300D03*
X36800Y840300D03*
X62200Y865700D03*
X36800Y865700D03*
X473900Y840300D03*
X448500Y840300D03*
X423100Y840300D03*
X397700Y840300D03*
X372300Y840300D03*
X346900Y840300D03*
X473900Y865700D03*
X448500Y865700D03*
X423100Y865700D03*
X397700Y865700D03*
X372300Y865700D03*
X346900Y865700D03*
X321500Y840300D03*
X296100Y840300D03*
X321500Y865700D03*
X296100Y865700D03*
X889700Y840300D03*
X864300Y840300D03*
X838900Y840300D03*
X813500Y840300D03*
X788100Y840300D03*
X762700Y840300D03*
X889700Y865700D03*
X864300Y865700D03*
X838900Y865700D03*
X813500Y865700D03*
X788100Y865700D03*
X762700Y865700D03*
X737300Y840300D03*
X711900Y840300D03*
X686500Y840300D03*
X661100Y840300D03*
X635700Y840300D03*
X610300Y840300D03*
X737300Y865700D03*
X711900Y865700D03*
X686500Y865700D03*
X661100Y865700D03*
X635700Y865700D03*
X610300Y865700D03*
D18*
X860000Y135000D03*
X860000Y85000D03*
D19*
X50000Y149840D03*
D16*
X50000Y170160D03*
D19*
X310000Y149840D03*
D16*
X310000Y170160D03*
D19*
X580000Y149840D03*
D16*
X580000Y170160D03*
D20*
X130650Y196382D03*
X390650Y191287D03*
X172500Y563750D03*
X432500Y564000D03*
X125000Y507500D03*
X45000Y515000D03*
X385000Y507500D03*
X300000Y515000D03*
D21*
X125000Y80000D02*
X60000Y80000D01*
X30000Y110000D01*
X30000Y429000D02*
X65000Y464000D01*
X30000Y429000D02*
X30000Y110000D01*
X320000Y80000D02*
X385000Y80000D01*
X320000Y80000D02*
X290000Y110000D01*
X290000Y429000D01*
X325000Y464000D01*
X100000Y490000D02*
X100000Y400000D01*
X30000Y560000D02*
X30000Y750000D01*
X30000Y560000D02*
X100000Y490000D01*
X36800Y756800D02*
X36800Y840300D01*
X36800Y756800D02*
X30000Y750000D01*
X40000Y570000D02*
X120000Y490000D01*
X40000Y570000D02*
X40000Y650000D01*
X100000Y710000D01*
X100000Y760000D01*
X62500Y797500D01*
X62200Y797800D01*
X100000Y290000D02*
X100000Y255000D01*
X100000Y290000D02*
X120000Y310000D01*
X120000Y490000D01*
X62500Y797500D02*
X62500Y840000D01*
X62200Y840300D01*
D20*
X70000Y630000D03*
D21*
X70000Y620000D01*
X150000Y440000D02*
X180000Y410000D01*
X180000Y390000D01*
X150000Y360000D01*
X150000Y255000D01*
X150000Y540000D02*
X70000Y620000D01*
X150000Y540000D02*
X150000Y440000D01*
X185000Y586000D02*
X185000Y665000D01*
X150000Y700000D01*
X150000Y760000D01*
X189200Y799200D01*
X189200Y840300D01*
X290000Y750000D02*
X296100Y756100D01*
X290000Y750000D02*
X290000Y560000D01*
X360000Y490000D02*
X360000Y400000D01*
X360000Y490000D02*
X290000Y560000D01*
X296100Y756100D02*
X296100Y840300D01*
X360000Y290000D02*
X360000Y255000D01*
X360000Y290000D02*
X380000Y310000D01*
X380000Y490000D02*
X300000Y570000D01*
X300000Y650000D02*
X360000Y710000D01*
X380000Y490000D02*
X380000Y310000D01*
X300000Y570000D02*
X300000Y650000D01*
X360000Y710000D02*
X360000Y760000D01*
X321500Y798500D02*
X321500Y840300D01*
X321500Y798500D02*
X360000Y760000D01*
D20*
X330000Y630000D03*
D21*
X330000Y620000D01*
X410000Y540000D01*
X410000Y440000D01*
X440000Y410000D01*
X440000Y390000D01*
X410000Y360000D02*
X410000Y255000D01*
X410000Y360000D02*
X440000Y390000D01*
X445000Y586000D02*
X445000Y665000D01*
X410000Y700000D01*
X410000Y760000D01*
X448500Y798500D02*
X448500Y840300D01*
X448500Y798500D02*
X410000Y760000D01*
X615000Y355000D02*
X615000Y255000D01*
X615000Y355000D02*
X580000Y390000D01*
X580000Y680000D01*
X635700Y735700D01*
X635700Y840300D01*
X665000Y355000D02*
X665000Y255000D01*
X665000Y355000D02*
X640000Y380000D01*
X640000Y415000D01*
X595000Y460000D01*
X645000Y809200D02*
X661100Y825300D01*
X645000Y720000D02*
X595000Y670000D01*
X645000Y720000D02*
X645000Y809200D01*
X595000Y670000D02*
X595000Y460000D01*
X661100Y825300D02*
X661100Y840300D01*
M02*
