M48
;GenerationSoftware,Autodesk,EAGLE,9.0.1*%
;CreationDate,2018-05-22T13:38:52Z*%
FMAT,2
ICI,OFF
METRIC,TZ,000.000
T9C0.350
T8C0.813
T7C1.016
T6C1.100
T5C1.118
T4C1.300
T3C2.000
T2C2.300
T1C4.000
%
G90
M71
T1
X3000Y92000
X22000Y92000
X48000Y3000
X55000Y3000
X94000Y3000
X55000Y92000
X22000Y3000
X94000Y92000
X48000Y92000
X29000Y92000
X3000Y3000
X29000Y3000
T2
X58150Y33000
X58150Y73000
X32650Y73000
X80150Y30000
X6650Y33000
X18350Y33000
X69850Y73000
X91850Y30000
X32650Y33000
X69850Y33000
X44350Y33000
X44350Y73000
X6650Y73000
X18350Y73000
T3
X72500Y11500
X65500Y11500
X65500Y4500
X16000Y11500
X9000Y11500
X16000Y4500
X9000Y4500
X42000Y11500
X35000Y11500
X42000Y4500
X35000Y4500
X72500Y4500
T4
X38500Y60600
X44500Y46400
X32500Y46400
X32500Y58600
X44500Y58600
X6500Y58600
X6500Y46400
X18500Y58600
X18500Y46400
X69000Y8000
X12500Y8000
X12500Y60600
X38500Y8000
T5
X86000Y8500
X86000Y13500
T6
X86000Y22500
X15000Y40000
X10000Y40000
X10000Y25500
X15000Y25500
X12500Y25500
X15000Y80000
X10000Y80000
X10000Y65500
X15000Y65500
X12500Y65500
X41000Y40000
X36000Y40000
X36000Y25500
X41000Y25500
X38500Y25500
X41000Y80000
X36000Y80000
X36000Y65500
X41000Y65500
X38500Y65500
X66500Y40000
X61500Y40000
X61500Y25500
X66500Y25500
X64000Y25500
X66500Y80000
X61500Y80000
X61500Y65500
X66500Y65500
X64000Y65500
X88500Y37000
X83500Y37000
X83500Y22500
X88500Y22500
T7
X11300Y84030
X83890Y86570
X81350Y86570
X78810Y86570
X76270Y86570
X73730Y84030
X71190Y84030
X68650Y84030
X66110Y84030
X63570Y84030
X42310Y86570
X61030Y84030
X73730Y86570
X71190Y86570
X68650Y86570
X63570Y86570
X21460Y84030
X18920Y84030
X16380Y84030
X13840Y84030
X61030Y86570
X8760Y84030
X21460Y86570
X18920Y86570
X16380Y86570
X13840Y86570
X11300Y86570
X8760Y86570
X6220Y84030
X3680Y84030
X6220Y86570
X3680Y86570
X47390Y84030
X44850Y84030
X42310Y84030
X39770Y84030
X37230Y84030
X34690Y84030
X47390Y86570
X44850Y86570
X66110Y86570
X39770Y86570
X37230Y86570
X34690Y86570
X32150Y84030
X29610Y84030
X32150Y86570
X29610Y86570
X88970Y84030
X86430Y84030
X83890Y84030
X81350Y84030
X78810Y84030
X76270Y84030
X88970Y86570
X86430Y86570
T8
X6118Y25016
X6118Y22984
X20145Y18622
X32000Y25016
X32000Y22984
X45145Y20145
X45145Y18113
X20145Y20654
X5000Y14984
X5000Y17016
X31000Y14984
X31000Y17016
X58000Y14984
X58000Y17016
T9
X13065Y19638
X33000Y63000
X7000Y63000
X30000Y51500
X38500Y50750
X4500Y51500
X12500Y50750
X39065Y19129
X43250Y56400
X17250Y56375
M30