G04 EAGLE Gerber X2 export*
%TF.Part,Single*%
%TF.FileFunction,Profile,NP*%
%TF.FilePolarity,Positive*%
%TF.GenerationSoftware,Autodesk,EAGLE,9.0.1*%
%TF.CreationDate,2018-05-22T13:38:53Z*%
G75*
%MOMM*%
%FSLAX34Y34*%
%LPD*%
%AMOC8*
5,1,8,0,0,1.08239X$1,22.5*%
G01*
%ADD10C,0.254000*%


D10*
X0Y0D02*
X250000Y0D01*
X250000Y412750D01*
X260000Y412750D01*
X260000Y0D01*
X510000Y0D01*
X510000Y412750D01*
X520000Y412750D01*
X520000Y0D01*
X970000Y0D01*
X970000Y950000D01*
X520000Y950000D01*
X520000Y450850D01*
X510000Y450850D01*
X510000Y950000D01*
X260000Y950000D01*
X260000Y450850D01*
X250000Y450850D01*
X250000Y950000D01*
X0Y950000D01*
X0Y0D01*
X50000Y29396D02*
X49927Y28189D01*
X49781Y26989D01*
X49563Y25800D01*
X49274Y24627D01*
X48915Y23473D01*
X48486Y22343D01*
X47990Y21241D01*
X47428Y20170D01*
X46803Y19136D01*
X46116Y18141D01*
X45371Y17190D01*
X44569Y16285D01*
X43715Y15431D01*
X42810Y14629D01*
X41859Y13884D01*
X40864Y13197D01*
X39830Y12572D01*
X38759Y12010D01*
X37657Y11514D01*
X36527Y11085D01*
X35373Y10726D01*
X34200Y10437D01*
X33011Y10219D01*
X31811Y10073D01*
X30604Y10000D01*
X29396Y10000D01*
X28189Y10073D01*
X26989Y10219D01*
X25800Y10437D01*
X24627Y10726D01*
X23473Y11085D01*
X22343Y11514D01*
X21241Y12010D01*
X20170Y12572D01*
X19136Y13197D01*
X18141Y13884D01*
X17190Y14629D01*
X16285Y15431D01*
X15431Y16285D01*
X14629Y17190D01*
X13884Y18141D01*
X13197Y19136D01*
X12572Y20170D01*
X12010Y21241D01*
X11514Y22343D01*
X11085Y23473D01*
X10726Y24627D01*
X10437Y25800D01*
X10219Y26989D01*
X10073Y28189D01*
X10000Y29396D01*
X10000Y30604D01*
X10073Y31811D01*
X10219Y33011D01*
X10437Y34200D01*
X10726Y35373D01*
X11085Y36527D01*
X11514Y37657D01*
X12010Y38759D01*
X12572Y39830D01*
X13197Y40864D01*
X13884Y41859D01*
X14629Y42810D01*
X15431Y43715D01*
X16285Y44569D01*
X17190Y45371D01*
X18141Y46116D01*
X19136Y46803D01*
X20170Y47428D01*
X21241Y47990D01*
X22343Y48486D01*
X23473Y48915D01*
X24627Y49274D01*
X25800Y49563D01*
X26989Y49781D01*
X28189Y49927D01*
X29396Y50000D01*
X30604Y50000D01*
X31811Y49927D01*
X33011Y49781D01*
X34200Y49563D01*
X35373Y49274D01*
X36527Y48915D01*
X37657Y48486D01*
X38759Y47990D01*
X39830Y47428D01*
X40864Y46803D01*
X41859Y46116D01*
X42810Y45371D01*
X43715Y44569D01*
X44569Y43715D01*
X45371Y42810D01*
X46116Y41859D01*
X46803Y40864D01*
X47428Y39830D01*
X47990Y38759D01*
X48486Y37657D01*
X48915Y36527D01*
X49274Y35373D01*
X49563Y34200D01*
X49781Y33011D01*
X49927Y31811D01*
X50000Y30604D01*
X50000Y29396D01*
X310000Y29396D02*
X309927Y28189D01*
X309781Y26989D01*
X309563Y25800D01*
X309274Y24627D01*
X308915Y23473D01*
X308486Y22343D01*
X307990Y21241D01*
X307428Y20170D01*
X306803Y19136D01*
X306116Y18141D01*
X305371Y17190D01*
X304569Y16285D01*
X303715Y15431D01*
X302810Y14629D01*
X301859Y13884D01*
X300864Y13197D01*
X299830Y12572D01*
X298759Y12010D01*
X297657Y11514D01*
X296527Y11085D01*
X295373Y10726D01*
X294200Y10437D01*
X293011Y10219D01*
X291811Y10073D01*
X290604Y10000D01*
X289396Y10000D01*
X288189Y10073D01*
X286989Y10219D01*
X285800Y10437D01*
X284627Y10726D01*
X283473Y11085D01*
X282343Y11514D01*
X281241Y12010D01*
X280170Y12572D01*
X279136Y13197D01*
X278141Y13884D01*
X277190Y14629D01*
X276285Y15431D01*
X275431Y16285D01*
X274629Y17190D01*
X273884Y18141D01*
X273197Y19136D01*
X272572Y20170D01*
X272010Y21241D01*
X271514Y22343D01*
X271085Y23473D01*
X270726Y24627D01*
X270437Y25800D01*
X270219Y26989D01*
X270073Y28189D01*
X270000Y29396D01*
X270000Y30604D01*
X270073Y31811D01*
X270219Y33011D01*
X270437Y34200D01*
X270726Y35373D01*
X271085Y36527D01*
X271514Y37657D01*
X272010Y38759D01*
X272572Y39830D01*
X273197Y40864D01*
X273884Y41859D01*
X274629Y42810D01*
X275431Y43715D01*
X276285Y44569D01*
X277190Y45371D01*
X278141Y46116D01*
X279136Y46803D01*
X280170Y47428D01*
X281241Y47990D01*
X282343Y48486D01*
X283473Y48915D01*
X284627Y49274D01*
X285800Y49563D01*
X286989Y49781D01*
X288189Y49927D01*
X289396Y50000D01*
X290604Y50000D01*
X291811Y49927D01*
X293011Y49781D01*
X294200Y49563D01*
X295373Y49274D01*
X296527Y48915D01*
X297657Y48486D01*
X298759Y47990D01*
X299830Y47428D01*
X300864Y46803D01*
X301859Y46116D01*
X302810Y45371D01*
X303715Y44569D01*
X304569Y43715D01*
X305371Y42810D01*
X306116Y41859D01*
X306803Y40864D01*
X307428Y39830D01*
X307990Y38759D01*
X308486Y37657D01*
X308915Y36527D01*
X309274Y35373D01*
X309563Y34200D01*
X309781Y33011D01*
X309927Y31811D01*
X310000Y30604D01*
X310000Y29396D01*
X240000Y29396D02*
X239927Y28189D01*
X239781Y26989D01*
X239563Y25800D01*
X239274Y24627D01*
X238915Y23473D01*
X238486Y22343D01*
X237990Y21241D01*
X237428Y20170D01*
X236803Y19136D01*
X236116Y18141D01*
X235371Y17190D01*
X234569Y16285D01*
X233715Y15431D01*
X232810Y14629D01*
X231859Y13884D01*
X230864Y13197D01*
X229830Y12572D01*
X228759Y12010D01*
X227657Y11514D01*
X226527Y11085D01*
X225373Y10726D01*
X224200Y10437D01*
X223011Y10219D01*
X221811Y10073D01*
X220604Y10000D01*
X219396Y10000D01*
X218189Y10073D01*
X216989Y10219D01*
X215800Y10437D01*
X214627Y10726D01*
X213473Y11085D01*
X212343Y11514D01*
X211241Y12010D01*
X210170Y12572D01*
X209136Y13197D01*
X208141Y13884D01*
X207190Y14629D01*
X206285Y15431D01*
X205431Y16285D01*
X204629Y17190D01*
X203884Y18141D01*
X203197Y19136D01*
X202572Y20170D01*
X202010Y21241D01*
X201514Y22343D01*
X201085Y23473D01*
X200726Y24627D01*
X200437Y25800D01*
X200219Y26989D01*
X200073Y28189D01*
X200000Y29396D01*
X200000Y30604D01*
X200073Y31811D01*
X200219Y33011D01*
X200437Y34200D01*
X200726Y35373D01*
X201085Y36527D01*
X201514Y37657D01*
X202010Y38759D01*
X202572Y39830D01*
X203197Y40864D01*
X203884Y41859D01*
X204629Y42810D01*
X205431Y43715D01*
X206285Y44569D01*
X207190Y45371D01*
X208141Y46116D01*
X209136Y46803D01*
X210170Y47428D01*
X211241Y47990D01*
X212343Y48486D01*
X213473Y48915D01*
X214627Y49274D01*
X215800Y49563D01*
X216989Y49781D01*
X218189Y49927D01*
X219396Y50000D01*
X220604Y50000D01*
X221811Y49927D01*
X223011Y49781D01*
X224200Y49563D01*
X225373Y49274D01*
X226527Y48915D01*
X227657Y48486D01*
X228759Y47990D01*
X229830Y47428D01*
X230864Y46803D01*
X231859Y46116D01*
X232810Y45371D01*
X233715Y44569D01*
X234569Y43715D01*
X235371Y42810D01*
X236116Y41859D01*
X236803Y40864D01*
X237428Y39830D01*
X237990Y38759D01*
X238486Y37657D01*
X238915Y36527D01*
X239274Y35373D01*
X239563Y34200D01*
X239781Y33011D01*
X239927Y31811D01*
X240000Y30604D01*
X240000Y29396D01*
X500000Y29396D02*
X499927Y28189D01*
X499781Y26989D01*
X499563Y25800D01*
X499274Y24627D01*
X498915Y23473D01*
X498486Y22343D01*
X497990Y21241D01*
X497428Y20170D01*
X496803Y19136D01*
X496116Y18141D01*
X495371Y17190D01*
X494569Y16285D01*
X493715Y15431D01*
X492810Y14629D01*
X491859Y13884D01*
X490864Y13197D01*
X489830Y12572D01*
X488759Y12010D01*
X487657Y11514D01*
X486527Y11085D01*
X485373Y10726D01*
X484200Y10437D01*
X483011Y10219D01*
X481811Y10073D01*
X480604Y10000D01*
X479396Y10000D01*
X478189Y10073D01*
X476989Y10219D01*
X475800Y10437D01*
X474627Y10726D01*
X473473Y11085D01*
X472343Y11514D01*
X471241Y12010D01*
X470170Y12572D01*
X469136Y13197D01*
X468141Y13884D01*
X467190Y14629D01*
X466285Y15431D01*
X465431Y16285D01*
X464629Y17190D01*
X463884Y18141D01*
X463197Y19136D01*
X462572Y20170D01*
X462010Y21241D01*
X461514Y22343D01*
X461085Y23473D01*
X460726Y24627D01*
X460437Y25800D01*
X460219Y26989D01*
X460073Y28189D01*
X460000Y29396D01*
X460000Y30604D01*
X460073Y31811D01*
X460219Y33011D01*
X460437Y34200D01*
X460726Y35373D01*
X461085Y36527D01*
X461514Y37657D01*
X462010Y38759D01*
X462572Y39830D01*
X463197Y40864D01*
X463884Y41859D01*
X464629Y42810D01*
X465431Y43715D01*
X466285Y44569D01*
X467190Y45371D01*
X468141Y46116D01*
X469136Y46803D01*
X470170Y47428D01*
X471241Y47990D01*
X472343Y48486D01*
X473473Y48915D01*
X474627Y49274D01*
X475800Y49563D01*
X476989Y49781D01*
X478189Y49927D01*
X479396Y50000D01*
X480604Y50000D01*
X481811Y49927D01*
X483011Y49781D01*
X484200Y49563D01*
X485373Y49274D01*
X486527Y48915D01*
X487657Y48486D01*
X488759Y47990D01*
X489830Y47428D01*
X490864Y46803D01*
X491859Y46116D01*
X492810Y45371D01*
X493715Y44569D01*
X494569Y43715D01*
X495371Y42810D01*
X496116Y41859D01*
X496803Y40864D01*
X497428Y39830D01*
X497990Y38759D01*
X498486Y37657D01*
X498915Y36527D01*
X499274Y35373D01*
X499563Y34200D01*
X499781Y33011D01*
X499927Y31811D01*
X500000Y30604D01*
X500000Y29396D01*
X570000Y29396D02*
X569927Y28189D01*
X569781Y26989D01*
X569563Y25800D01*
X569274Y24627D01*
X568915Y23473D01*
X568486Y22343D01*
X567990Y21241D01*
X567428Y20170D01*
X566803Y19136D01*
X566116Y18141D01*
X565371Y17190D01*
X564569Y16285D01*
X563715Y15431D01*
X562810Y14629D01*
X561859Y13884D01*
X560864Y13197D01*
X559830Y12572D01*
X558759Y12010D01*
X557657Y11514D01*
X556527Y11085D01*
X555373Y10726D01*
X554200Y10437D01*
X553011Y10219D01*
X551811Y10073D01*
X550604Y10000D01*
X549396Y10000D01*
X548189Y10073D01*
X546989Y10219D01*
X545800Y10437D01*
X544627Y10726D01*
X543473Y11085D01*
X542343Y11514D01*
X541241Y12010D01*
X540170Y12572D01*
X539136Y13197D01*
X538141Y13884D01*
X537190Y14629D01*
X536285Y15431D01*
X535431Y16285D01*
X534629Y17190D01*
X533884Y18141D01*
X533197Y19136D01*
X532572Y20170D01*
X532010Y21241D01*
X531514Y22343D01*
X531085Y23473D01*
X530726Y24627D01*
X530437Y25800D01*
X530219Y26989D01*
X530073Y28189D01*
X530000Y29396D01*
X530000Y30604D01*
X530073Y31811D01*
X530219Y33011D01*
X530437Y34200D01*
X530726Y35373D01*
X531085Y36527D01*
X531514Y37657D01*
X532010Y38759D01*
X532572Y39830D01*
X533197Y40864D01*
X533884Y41859D01*
X534629Y42810D01*
X535431Y43715D01*
X536285Y44569D01*
X537190Y45371D01*
X538141Y46116D01*
X539136Y46803D01*
X540170Y47428D01*
X541241Y47990D01*
X542343Y48486D01*
X543473Y48915D01*
X544627Y49274D01*
X545800Y49563D01*
X546989Y49781D01*
X548189Y49927D01*
X549396Y50000D01*
X550604Y50000D01*
X551811Y49927D01*
X553011Y49781D01*
X554200Y49563D01*
X555373Y49274D01*
X556527Y48915D01*
X557657Y48486D01*
X558759Y47990D01*
X559830Y47428D01*
X560864Y46803D01*
X561859Y46116D01*
X562810Y45371D01*
X563715Y44569D01*
X564569Y43715D01*
X565371Y42810D01*
X566116Y41859D01*
X566803Y40864D01*
X567428Y39830D01*
X567990Y38759D01*
X568486Y37657D01*
X568915Y36527D01*
X569274Y35373D01*
X569563Y34200D01*
X569781Y33011D01*
X569927Y31811D01*
X570000Y30604D01*
X570000Y29396D01*
X960000Y29396D02*
X959927Y28189D01*
X959781Y26989D01*
X959563Y25800D01*
X959274Y24627D01*
X958915Y23473D01*
X958486Y22343D01*
X957990Y21241D01*
X957428Y20170D01*
X956803Y19136D01*
X956116Y18141D01*
X955371Y17190D01*
X954569Y16285D01*
X953715Y15431D01*
X952810Y14629D01*
X951859Y13884D01*
X950864Y13197D01*
X949830Y12572D01*
X948759Y12010D01*
X947657Y11514D01*
X946527Y11085D01*
X945373Y10726D01*
X944200Y10437D01*
X943011Y10219D01*
X941811Y10073D01*
X940604Y10000D01*
X939396Y10000D01*
X938189Y10073D01*
X936989Y10219D01*
X935800Y10437D01*
X934627Y10726D01*
X933473Y11085D01*
X932343Y11514D01*
X931241Y12010D01*
X930170Y12572D01*
X929136Y13197D01*
X928141Y13884D01*
X927190Y14629D01*
X926285Y15431D01*
X925431Y16285D01*
X924629Y17190D01*
X923884Y18141D01*
X923197Y19136D01*
X922572Y20170D01*
X922010Y21241D01*
X921514Y22343D01*
X921085Y23473D01*
X920726Y24627D01*
X920437Y25800D01*
X920219Y26989D01*
X920073Y28189D01*
X920000Y29396D01*
X920000Y30604D01*
X920073Y31811D01*
X920219Y33011D01*
X920437Y34200D01*
X920726Y35373D01*
X921085Y36527D01*
X921514Y37657D01*
X922010Y38759D01*
X922572Y39830D01*
X923197Y40864D01*
X923884Y41859D01*
X924629Y42810D01*
X925431Y43715D01*
X926285Y44569D01*
X927190Y45371D01*
X928141Y46116D01*
X929136Y46803D01*
X930170Y47428D01*
X931241Y47990D01*
X932343Y48486D01*
X933473Y48915D01*
X934627Y49274D01*
X935800Y49563D01*
X936989Y49781D01*
X938189Y49927D01*
X939396Y50000D01*
X940604Y50000D01*
X941811Y49927D01*
X943011Y49781D01*
X944200Y49563D01*
X945373Y49274D01*
X946527Y48915D01*
X947657Y48486D01*
X948759Y47990D01*
X949830Y47428D01*
X950864Y46803D01*
X951859Y46116D01*
X952810Y45371D01*
X953715Y44569D01*
X954569Y43715D01*
X955371Y42810D01*
X956116Y41859D01*
X956803Y40864D01*
X957428Y39830D01*
X957990Y38759D01*
X958486Y37657D01*
X958915Y36527D01*
X959274Y35373D01*
X959563Y34200D01*
X959781Y33011D01*
X959927Y31811D01*
X960000Y30604D01*
X960000Y29396D01*
X570000Y919396D02*
X569927Y918189D01*
X569781Y916989D01*
X569563Y915800D01*
X569274Y914627D01*
X568915Y913473D01*
X568486Y912343D01*
X567990Y911241D01*
X567428Y910170D01*
X566803Y909136D01*
X566116Y908141D01*
X565371Y907190D01*
X564569Y906285D01*
X563715Y905431D01*
X562810Y904629D01*
X561859Y903884D01*
X560864Y903197D01*
X559830Y902572D01*
X558759Y902010D01*
X557657Y901514D01*
X556527Y901085D01*
X555373Y900726D01*
X554200Y900437D01*
X553011Y900219D01*
X551811Y900073D01*
X550604Y900000D01*
X549396Y900000D01*
X548189Y900073D01*
X546989Y900219D01*
X545800Y900437D01*
X544627Y900726D01*
X543473Y901085D01*
X542343Y901514D01*
X541241Y902010D01*
X540170Y902572D01*
X539136Y903197D01*
X538141Y903884D01*
X537190Y904629D01*
X536285Y905431D01*
X535431Y906285D01*
X534629Y907190D01*
X533884Y908141D01*
X533197Y909136D01*
X532572Y910170D01*
X532010Y911241D01*
X531514Y912343D01*
X531085Y913473D01*
X530726Y914627D01*
X530437Y915800D01*
X530219Y916989D01*
X530073Y918189D01*
X530000Y919396D01*
X530000Y920604D01*
X530073Y921811D01*
X530219Y923011D01*
X530437Y924200D01*
X530726Y925373D01*
X531085Y926527D01*
X531514Y927657D01*
X532010Y928759D01*
X532572Y929830D01*
X533197Y930864D01*
X533884Y931859D01*
X534629Y932810D01*
X535431Y933715D01*
X536285Y934569D01*
X537190Y935371D01*
X538141Y936116D01*
X539136Y936803D01*
X540170Y937428D01*
X541241Y937990D01*
X542343Y938486D01*
X543473Y938915D01*
X544627Y939274D01*
X545800Y939563D01*
X546989Y939781D01*
X548189Y939927D01*
X549396Y940000D01*
X550604Y940000D01*
X551811Y939927D01*
X553011Y939781D01*
X554200Y939563D01*
X555373Y939274D01*
X556527Y938915D01*
X557657Y938486D01*
X558759Y937990D01*
X559830Y937428D01*
X560864Y936803D01*
X561859Y936116D01*
X562810Y935371D01*
X563715Y934569D01*
X564569Y933715D01*
X565371Y932810D01*
X566116Y931859D01*
X566803Y930864D01*
X567428Y929830D01*
X567990Y928759D01*
X568486Y927657D01*
X568915Y926527D01*
X569274Y925373D01*
X569563Y924200D01*
X569781Y923011D01*
X569927Y921811D01*
X570000Y920604D01*
X570000Y919396D01*
X960000Y919396D02*
X959927Y918189D01*
X959781Y916989D01*
X959563Y915800D01*
X959274Y914627D01*
X958915Y913473D01*
X958486Y912343D01*
X957990Y911241D01*
X957428Y910170D01*
X956803Y909136D01*
X956116Y908141D01*
X955371Y907190D01*
X954569Y906285D01*
X953715Y905431D01*
X952810Y904629D01*
X951859Y903884D01*
X950864Y903197D01*
X949830Y902572D01*
X948759Y902010D01*
X947657Y901514D01*
X946527Y901085D01*
X945373Y900726D01*
X944200Y900437D01*
X943011Y900219D01*
X941811Y900073D01*
X940604Y900000D01*
X939396Y900000D01*
X938189Y900073D01*
X936989Y900219D01*
X935800Y900437D01*
X934627Y900726D01*
X933473Y901085D01*
X932343Y901514D01*
X931241Y902010D01*
X930170Y902572D01*
X929136Y903197D01*
X928141Y903884D01*
X927190Y904629D01*
X926285Y905431D01*
X925431Y906285D01*
X924629Y907190D01*
X923884Y908141D01*
X923197Y909136D01*
X922572Y910170D01*
X922010Y911241D01*
X921514Y912343D01*
X921085Y913473D01*
X920726Y914627D01*
X920437Y915800D01*
X920219Y916989D01*
X920073Y918189D01*
X920000Y919396D01*
X920000Y920604D01*
X920073Y921811D01*
X920219Y923011D01*
X920437Y924200D01*
X920726Y925373D01*
X921085Y926527D01*
X921514Y927657D01*
X922010Y928759D01*
X922572Y929830D01*
X923197Y930864D01*
X923884Y931859D01*
X924629Y932810D01*
X925431Y933715D01*
X926285Y934569D01*
X927190Y935371D01*
X928141Y936116D01*
X929136Y936803D01*
X930170Y937428D01*
X931241Y937990D01*
X932343Y938486D01*
X933473Y938915D01*
X934627Y939274D01*
X935800Y939563D01*
X936989Y939781D01*
X938189Y939927D01*
X939396Y940000D01*
X940604Y940000D01*
X941811Y939927D01*
X943011Y939781D01*
X944200Y939563D01*
X945373Y939274D01*
X946527Y938915D01*
X947657Y938486D01*
X948759Y937990D01*
X949830Y937428D01*
X950864Y936803D01*
X951859Y936116D01*
X952810Y935371D01*
X953715Y934569D01*
X954569Y933715D01*
X955371Y932810D01*
X956116Y931859D01*
X956803Y930864D01*
X957428Y929830D01*
X957990Y928759D01*
X958486Y927657D01*
X958915Y926527D01*
X959274Y925373D01*
X959563Y924200D01*
X959781Y923011D01*
X959927Y921811D01*
X960000Y920604D01*
X960000Y919396D01*
X500000Y919396D02*
X499927Y918189D01*
X499781Y916989D01*
X499563Y915800D01*
X499274Y914627D01*
X498915Y913473D01*
X498486Y912343D01*
X497990Y911241D01*
X497428Y910170D01*
X496803Y909136D01*
X496116Y908141D01*
X495371Y907190D01*
X494569Y906285D01*
X493715Y905431D01*
X492810Y904629D01*
X491859Y903884D01*
X490864Y903197D01*
X489830Y902572D01*
X488759Y902010D01*
X487657Y901514D01*
X486527Y901085D01*
X485373Y900726D01*
X484200Y900437D01*
X483011Y900219D01*
X481811Y900073D01*
X480604Y900000D01*
X479396Y900000D01*
X478189Y900073D01*
X476989Y900219D01*
X475800Y900437D01*
X474627Y900726D01*
X473473Y901085D01*
X472343Y901514D01*
X471241Y902010D01*
X470170Y902572D01*
X469136Y903197D01*
X468141Y903884D01*
X467190Y904629D01*
X466285Y905431D01*
X465431Y906285D01*
X464629Y907190D01*
X463884Y908141D01*
X463197Y909136D01*
X462572Y910170D01*
X462010Y911241D01*
X461514Y912343D01*
X461085Y913473D01*
X460726Y914627D01*
X460437Y915800D01*
X460219Y916989D01*
X460073Y918189D01*
X460000Y919396D01*
X460000Y920604D01*
X460073Y921811D01*
X460219Y923011D01*
X460437Y924200D01*
X460726Y925373D01*
X461085Y926527D01*
X461514Y927657D01*
X462010Y928759D01*
X462572Y929830D01*
X463197Y930864D01*
X463884Y931859D01*
X464629Y932810D01*
X465431Y933715D01*
X466285Y934569D01*
X467190Y935371D01*
X468141Y936116D01*
X469136Y936803D01*
X470170Y937428D01*
X471241Y937990D01*
X472343Y938486D01*
X473473Y938915D01*
X474627Y939274D01*
X475800Y939563D01*
X476989Y939781D01*
X478189Y939927D01*
X479396Y940000D01*
X480604Y940000D01*
X481811Y939927D01*
X483011Y939781D01*
X484200Y939563D01*
X485373Y939274D01*
X486527Y938915D01*
X487657Y938486D01*
X488759Y937990D01*
X489830Y937428D01*
X490864Y936803D01*
X491859Y936116D01*
X492810Y935371D01*
X493715Y934569D01*
X494569Y933715D01*
X495371Y932810D01*
X496116Y931859D01*
X496803Y930864D01*
X497428Y929830D01*
X497990Y928759D01*
X498486Y927657D01*
X498915Y926527D01*
X499274Y925373D01*
X499563Y924200D01*
X499781Y923011D01*
X499927Y921811D01*
X500000Y920604D01*
X500000Y919396D01*
X310000Y919396D02*
X309927Y918189D01*
X309781Y916989D01*
X309563Y915800D01*
X309274Y914627D01*
X308915Y913473D01*
X308486Y912343D01*
X307990Y911241D01*
X307428Y910170D01*
X306803Y909136D01*
X306116Y908141D01*
X305371Y907190D01*
X304569Y906285D01*
X303715Y905431D01*
X302810Y904629D01*
X301859Y903884D01*
X300864Y903197D01*
X299830Y902572D01*
X298759Y902010D01*
X297657Y901514D01*
X296527Y901085D01*
X295373Y900726D01*
X294200Y900437D01*
X293011Y900219D01*
X291811Y900073D01*
X290604Y900000D01*
X289396Y900000D01*
X288189Y900073D01*
X286989Y900219D01*
X285800Y900437D01*
X284627Y900726D01*
X283473Y901085D01*
X282343Y901514D01*
X281241Y902010D01*
X280170Y902572D01*
X279136Y903197D01*
X278141Y903884D01*
X277190Y904629D01*
X276285Y905431D01*
X275431Y906285D01*
X274629Y907190D01*
X273884Y908141D01*
X273197Y909136D01*
X272572Y910170D01*
X272010Y911241D01*
X271514Y912343D01*
X271085Y913473D01*
X270726Y914627D01*
X270437Y915800D01*
X270219Y916989D01*
X270073Y918189D01*
X270000Y919396D01*
X270000Y920604D01*
X270073Y921811D01*
X270219Y923011D01*
X270437Y924200D01*
X270726Y925373D01*
X271085Y926527D01*
X271514Y927657D01*
X272010Y928759D01*
X272572Y929830D01*
X273197Y930864D01*
X273884Y931859D01*
X274629Y932810D01*
X275431Y933715D01*
X276285Y934569D01*
X277190Y935371D01*
X278141Y936116D01*
X279136Y936803D01*
X280170Y937428D01*
X281241Y937990D01*
X282343Y938486D01*
X283473Y938915D01*
X284627Y939274D01*
X285800Y939563D01*
X286989Y939781D01*
X288189Y939927D01*
X289396Y940000D01*
X290604Y940000D01*
X291811Y939927D01*
X293011Y939781D01*
X294200Y939563D01*
X295373Y939274D01*
X296527Y938915D01*
X297657Y938486D01*
X298759Y937990D01*
X299830Y937428D01*
X300864Y936803D01*
X301859Y936116D01*
X302810Y935371D01*
X303715Y934569D01*
X304569Y933715D01*
X305371Y932810D01*
X306116Y931859D01*
X306803Y930864D01*
X307428Y929830D01*
X307990Y928759D01*
X308486Y927657D01*
X308915Y926527D01*
X309274Y925373D01*
X309563Y924200D01*
X309781Y923011D01*
X309927Y921811D01*
X310000Y920604D01*
X310000Y919396D01*
X240000Y919396D02*
X239927Y918189D01*
X239781Y916989D01*
X239563Y915800D01*
X239274Y914627D01*
X238915Y913473D01*
X238486Y912343D01*
X237990Y911241D01*
X237428Y910170D01*
X236803Y909136D01*
X236116Y908141D01*
X235371Y907190D01*
X234569Y906285D01*
X233715Y905431D01*
X232810Y904629D01*
X231859Y903884D01*
X230864Y903197D01*
X229830Y902572D01*
X228759Y902010D01*
X227657Y901514D01*
X226527Y901085D01*
X225373Y900726D01*
X224200Y900437D01*
X223011Y900219D01*
X221811Y900073D01*
X220604Y900000D01*
X219396Y900000D01*
X218189Y900073D01*
X216989Y900219D01*
X215800Y900437D01*
X214627Y900726D01*
X213473Y901085D01*
X212343Y901514D01*
X211241Y902010D01*
X210170Y902572D01*
X209136Y903197D01*
X208141Y903884D01*
X207190Y904629D01*
X206285Y905431D01*
X205431Y906285D01*
X204629Y907190D01*
X203884Y908141D01*
X203197Y909136D01*
X202572Y910170D01*
X202010Y911241D01*
X201514Y912343D01*
X201085Y913473D01*
X200726Y914627D01*
X200437Y915800D01*
X200219Y916989D01*
X200073Y918189D01*
X200000Y919396D01*
X200000Y920604D01*
X200073Y921811D01*
X200219Y923011D01*
X200437Y924200D01*
X200726Y925373D01*
X201085Y926527D01*
X201514Y927657D01*
X202010Y928759D01*
X202572Y929830D01*
X203197Y930864D01*
X203884Y931859D01*
X204629Y932810D01*
X205431Y933715D01*
X206285Y934569D01*
X207190Y935371D01*
X208141Y936116D01*
X209136Y936803D01*
X210170Y937428D01*
X211241Y937990D01*
X212343Y938486D01*
X213473Y938915D01*
X214627Y939274D01*
X215800Y939563D01*
X216989Y939781D01*
X218189Y939927D01*
X219396Y940000D01*
X220604Y940000D01*
X221811Y939927D01*
X223011Y939781D01*
X224200Y939563D01*
X225373Y939274D01*
X226527Y938915D01*
X227657Y938486D01*
X228759Y937990D01*
X229830Y937428D01*
X230864Y936803D01*
X231859Y936116D01*
X232810Y935371D01*
X233715Y934569D01*
X234569Y933715D01*
X235371Y932810D01*
X236116Y931859D01*
X236803Y930864D01*
X237428Y929830D01*
X237990Y928759D01*
X238486Y927657D01*
X238915Y926527D01*
X239274Y925373D01*
X239563Y924200D01*
X239781Y923011D01*
X239927Y921811D01*
X240000Y920604D01*
X240000Y919396D01*
X50000Y919396D02*
X49927Y918189D01*
X49781Y916989D01*
X49563Y915800D01*
X49274Y914627D01*
X48915Y913473D01*
X48486Y912343D01*
X47990Y911241D01*
X47428Y910170D01*
X46803Y909136D01*
X46116Y908141D01*
X45371Y907190D01*
X44569Y906285D01*
X43715Y905431D01*
X42810Y904629D01*
X41859Y903884D01*
X40864Y903197D01*
X39830Y902572D01*
X38759Y902010D01*
X37657Y901514D01*
X36527Y901085D01*
X35373Y900726D01*
X34200Y900437D01*
X33011Y900219D01*
X31811Y900073D01*
X30604Y900000D01*
X29396Y900000D01*
X28189Y900073D01*
X26989Y900219D01*
X25800Y900437D01*
X24627Y900726D01*
X23473Y901085D01*
X22343Y901514D01*
X21241Y902010D01*
X20170Y902572D01*
X19136Y903197D01*
X18141Y903884D01*
X17190Y904629D01*
X16285Y905431D01*
X15431Y906285D01*
X14629Y907190D01*
X13884Y908141D01*
X13197Y909136D01*
X12572Y910170D01*
X12010Y911241D01*
X11514Y912343D01*
X11085Y913473D01*
X10726Y914627D01*
X10437Y915800D01*
X10219Y916989D01*
X10073Y918189D01*
X10000Y919396D01*
X10000Y920604D01*
X10073Y921811D01*
X10219Y923011D01*
X10437Y924200D01*
X10726Y925373D01*
X11085Y926527D01*
X11514Y927657D01*
X12010Y928759D01*
X12572Y929830D01*
X13197Y930864D01*
X13884Y931859D01*
X14629Y932810D01*
X15431Y933715D01*
X16285Y934569D01*
X17190Y935371D01*
X18141Y936116D01*
X19136Y936803D01*
X20170Y937428D01*
X21241Y937990D01*
X22343Y938486D01*
X23473Y938915D01*
X24627Y939274D01*
X25800Y939563D01*
X26989Y939781D01*
X28189Y939927D01*
X29396Y940000D01*
X30604Y940000D01*
X31811Y939927D01*
X33011Y939781D01*
X34200Y939563D01*
X35373Y939274D01*
X36527Y938915D01*
X37657Y938486D01*
X38759Y937990D01*
X39830Y937428D01*
X40864Y936803D01*
X41859Y936116D01*
X42810Y935371D01*
X43715Y934569D01*
X44569Y933715D01*
X45371Y932810D01*
X46116Y931859D01*
X46803Y930864D01*
X47428Y929830D01*
X47990Y928759D01*
X48486Y927657D01*
X48915Y926527D01*
X49274Y925373D01*
X49563Y924200D01*
X49781Y923011D01*
X49927Y921811D01*
X50000Y920604D01*
X50000Y919396D01*
X50000Y29396D02*
X49927Y28189D01*
X49781Y26989D01*
X49563Y25800D01*
X49274Y24627D01*
X48915Y23473D01*
X48486Y22343D01*
X47990Y21241D01*
X47428Y20170D01*
X46803Y19136D01*
X46116Y18141D01*
X45371Y17190D01*
X44569Y16285D01*
X43715Y15431D01*
X42810Y14629D01*
X41859Y13884D01*
X40864Y13197D01*
X39830Y12572D01*
X38759Y12010D01*
X37657Y11514D01*
X36527Y11085D01*
X35373Y10726D01*
X34200Y10437D01*
X33011Y10219D01*
X31811Y10073D01*
X30604Y10000D01*
X29396Y10000D01*
X28189Y10073D01*
X26989Y10219D01*
X25800Y10437D01*
X24627Y10726D01*
X23473Y11085D01*
X22343Y11514D01*
X21241Y12010D01*
X20170Y12572D01*
X19136Y13197D01*
X18141Y13884D01*
X17190Y14629D01*
X16285Y15431D01*
X15431Y16285D01*
X14629Y17190D01*
X13884Y18141D01*
X13197Y19136D01*
X12572Y20170D01*
X12010Y21241D01*
X11514Y22343D01*
X11085Y23473D01*
X10726Y24627D01*
X10437Y25800D01*
X10219Y26989D01*
X10073Y28189D01*
X10000Y29396D01*
X10000Y30604D01*
X10073Y31811D01*
X10219Y33011D01*
X10437Y34200D01*
X10726Y35373D01*
X11085Y36527D01*
X11514Y37657D01*
X12010Y38759D01*
X12572Y39830D01*
X13197Y40864D01*
X13884Y41859D01*
X14629Y42810D01*
X15431Y43715D01*
X16285Y44569D01*
X17190Y45371D01*
X18141Y46116D01*
X19136Y46803D01*
X20170Y47428D01*
X21241Y47990D01*
X22343Y48486D01*
X23473Y48915D01*
X24627Y49274D01*
X25800Y49563D01*
X26989Y49781D01*
X28189Y49927D01*
X29396Y50000D01*
X30604Y50000D01*
X31811Y49927D01*
X33011Y49781D01*
X34200Y49563D01*
X35373Y49274D01*
X36527Y48915D01*
X37657Y48486D01*
X38759Y47990D01*
X39830Y47428D01*
X40864Y46803D01*
X41859Y46116D01*
X42810Y45371D01*
X43715Y44569D01*
X44569Y43715D01*
X45371Y42810D01*
X46116Y41859D01*
X46803Y40864D01*
X47428Y39830D01*
X47990Y38759D01*
X48486Y37657D01*
X48915Y36527D01*
X49274Y35373D01*
X49563Y34200D01*
X49781Y33011D01*
X49927Y31811D01*
X50000Y30604D01*
X50000Y29396D01*
X310000Y29396D02*
X309927Y28189D01*
X309781Y26989D01*
X309563Y25800D01*
X309274Y24627D01*
X308915Y23473D01*
X308486Y22343D01*
X307990Y21241D01*
X307428Y20170D01*
X306803Y19136D01*
X306116Y18141D01*
X305371Y17190D01*
X304569Y16285D01*
X303715Y15431D01*
X302810Y14629D01*
X301859Y13884D01*
X300864Y13197D01*
X299830Y12572D01*
X298759Y12010D01*
X297657Y11514D01*
X296527Y11085D01*
X295373Y10726D01*
X294200Y10437D01*
X293011Y10219D01*
X291811Y10073D01*
X290604Y10000D01*
X289396Y10000D01*
X288189Y10073D01*
X286989Y10219D01*
X285800Y10437D01*
X284627Y10726D01*
X283473Y11085D01*
X282343Y11514D01*
X281241Y12010D01*
X280170Y12572D01*
X279136Y13197D01*
X278141Y13884D01*
X277190Y14629D01*
X276285Y15431D01*
X275431Y16285D01*
X274629Y17190D01*
X273884Y18141D01*
X273197Y19136D01*
X272572Y20170D01*
X272010Y21241D01*
X271514Y22343D01*
X271085Y23473D01*
X270726Y24627D01*
X270437Y25800D01*
X270219Y26989D01*
X270073Y28189D01*
X270000Y29396D01*
X270000Y30604D01*
X270073Y31811D01*
X270219Y33011D01*
X270437Y34200D01*
X270726Y35373D01*
X271085Y36527D01*
X271514Y37657D01*
X272010Y38759D01*
X272572Y39830D01*
X273197Y40864D01*
X273884Y41859D01*
X274629Y42810D01*
X275431Y43715D01*
X276285Y44569D01*
X277190Y45371D01*
X278141Y46116D01*
X279136Y46803D01*
X280170Y47428D01*
X281241Y47990D01*
X282343Y48486D01*
X283473Y48915D01*
X284627Y49274D01*
X285800Y49563D01*
X286989Y49781D01*
X288189Y49927D01*
X289396Y50000D01*
X290604Y50000D01*
X291811Y49927D01*
X293011Y49781D01*
X294200Y49563D01*
X295373Y49274D01*
X296527Y48915D01*
X297657Y48486D01*
X298759Y47990D01*
X299830Y47428D01*
X300864Y46803D01*
X301859Y46116D01*
X302810Y45371D01*
X303715Y44569D01*
X304569Y43715D01*
X305371Y42810D01*
X306116Y41859D01*
X306803Y40864D01*
X307428Y39830D01*
X307990Y38759D01*
X308486Y37657D01*
X308915Y36527D01*
X309274Y35373D01*
X309563Y34200D01*
X309781Y33011D01*
X309927Y31811D01*
X310000Y30604D01*
X310000Y29396D01*
X240000Y29396D02*
X239927Y28189D01*
X239781Y26989D01*
X239563Y25800D01*
X239274Y24627D01*
X238915Y23473D01*
X238486Y22343D01*
X237990Y21241D01*
X237428Y20170D01*
X236803Y19136D01*
X236116Y18141D01*
X235371Y17190D01*
X234569Y16285D01*
X233715Y15431D01*
X232810Y14629D01*
X231859Y13884D01*
X230864Y13197D01*
X229830Y12572D01*
X228759Y12010D01*
X227657Y11514D01*
X226527Y11085D01*
X225373Y10726D01*
X224200Y10437D01*
X223011Y10219D01*
X221811Y10073D01*
X220604Y10000D01*
X219396Y10000D01*
X218189Y10073D01*
X216989Y10219D01*
X215800Y10437D01*
X214627Y10726D01*
X213473Y11085D01*
X212343Y11514D01*
X211241Y12010D01*
X210170Y12572D01*
X209136Y13197D01*
X208141Y13884D01*
X207190Y14629D01*
X206285Y15431D01*
X205431Y16285D01*
X204629Y17190D01*
X203884Y18141D01*
X203197Y19136D01*
X202572Y20170D01*
X202010Y21241D01*
X201514Y22343D01*
X201085Y23473D01*
X200726Y24627D01*
X200437Y25800D01*
X200219Y26989D01*
X200073Y28189D01*
X200000Y29396D01*
X200000Y30604D01*
X200073Y31811D01*
X200219Y33011D01*
X200437Y34200D01*
X200726Y35373D01*
X201085Y36527D01*
X201514Y37657D01*
X202010Y38759D01*
X202572Y39830D01*
X203197Y40864D01*
X203884Y41859D01*
X204629Y42810D01*
X205431Y43715D01*
X206285Y44569D01*
X207190Y45371D01*
X208141Y46116D01*
X209136Y46803D01*
X210170Y47428D01*
X211241Y47990D01*
X212343Y48486D01*
X213473Y48915D01*
X214627Y49274D01*
X215800Y49563D01*
X216989Y49781D01*
X218189Y49927D01*
X219396Y50000D01*
X220604Y50000D01*
X221811Y49927D01*
X223011Y49781D01*
X224200Y49563D01*
X225373Y49274D01*
X226527Y48915D01*
X227657Y48486D01*
X228759Y47990D01*
X229830Y47428D01*
X230864Y46803D01*
X231859Y46116D01*
X232810Y45371D01*
X233715Y44569D01*
X234569Y43715D01*
X235371Y42810D01*
X236116Y41859D01*
X236803Y40864D01*
X237428Y39830D01*
X237990Y38759D01*
X238486Y37657D01*
X238915Y36527D01*
X239274Y35373D01*
X239563Y34200D01*
X239781Y33011D01*
X239927Y31811D01*
X240000Y30604D01*
X240000Y29396D01*
X500000Y29396D02*
X499927Y28189D01*
X499781Y26989D01*
X499563Y25800D01*
X499274Y24627D01*
X498915Y23473D01*
X498486Y22343D01*
X497990Y21241D01*
X497428Y20170D01*
X496803Y19136D01*
X496116Y18141D01*
X495371Y17190D01*
X494569Y16285D01*
X493715Y15431D01*
X492810Y14629D01*
X491859Y13884D01*
X490864Y13197D01*
X489830Y12572D01*
X488759Y12010D01*
X487657Y11514D01*
X486527Y11085D01*
X485373Y10726D01*
X484200Y10437D01*
X483011Y10219D01*
X481811Y10073D01*
X480604Y10000D01*
X479396Y10000D01*
X478189Y10073D01*
X476989Y10219D01*
X475800Y10437D01*
X474627Y10726D01*
X473473Y11085D01*
X472343Y11514D01*
X471241Y12010D01*
X470170Y12572D01*
X469136Y13197D01*
X468141Y13884D01*
X467190Y14629D01*
X466285Y15431D01*
X465431Y16285D01*
X464629Y17190D01*
X463884Y18141D01*
X463197Y19136D01*
X462572Y20170D01*
X462010Y21241D01*
X461514Y22343D01*
X461085Y23473D01*
X460726Y24627D01*
X460437Y25800D01*
X460219Y26989D01*
X460073Y28189D01*
X460000Y29396D01*
X460000Y30604D01*
X460073Y31811D01*
X460219Y33011D01*
X460437Y34200D01*
X460726Y35373D01*
X461085Y36527D01*
X461514Y37657D01*
X462010Y38759D01*
X462572Y39830D01*
X463197Y40864D01*
X463884Y41859D01*
X464629Y42810D01*
X465431Y43715D01*
X466285Y44569D01*
X467190Y45371D01*
X468141Y46116D01*
X469136Y46803D01*
X470170Y47428D01*
X471241Y47990D01*
X472343Y48486D01*
X473473Y48915D01*
X474627Y49274D01*
X475800Y49563D01*
X476989Y49781D01*
X478189Y49927D01*
X479396Y50000D01*
X480604Y50000D01*
X481811Y49927D01*
X483011Y49781D01*
X484200Y49563D01*
X485373Y49274D01*
X486527Y48915D01*
X487657Y48486D01*
X488759Y47990D01*
X489830Y47428D01*
X490864Y46803D01*
X491859Y46116D01*
X492810Y45371D01*
X493715Y44569D01*
X494569Y43715D01*
X495371Y42810D01*
X496116Y41859D01*
X496803Y40864D01*
X497428Y39830D01*
X497990Y38759D01*
X498486Y37657D01*
X498915Y36527D01*
X499274Y35373D01*
X499563Y34200D01*
X499781Y33011D01*
X499927Y31811D01*
X500000Y30604D01*
X500000Y29396D01*
X570000Y29396D02*
X569927Y28189D01*
X569781Y26989D01*
X569563Y25800D01*
X569274Y24627D01*
X568915Y23473D01*
X568486Y22343D01*
X567990Y21241D01*
X567428Y20170D01*
X566803Y19136D01*
X566116Y18141D01*
X565371Y17190D01*
X564569Y16285D01*
X563715Y15431D01*
X562810Y14629D01*
X561859Y13884D01*
X560864Y13197D01*
X559830Y12572D01*
X558759Y12010D01*
X557657Y11514D01*
X556527Y11085D01*
X555373Y10726D01*
X554200Y10437D01*
X553011Y10219D01*
X551811Y10073D01*
X550604Y10000D01*
X549396Y10000D01*
X548189Y10073D01*
X546989Y10219D01*
X545800Y10437D01*
X544627Y10726D01*
X543473Y11085D01*
X542343Y11514D01*
X541241Y12010D01*
X540170Y12572D01*
X539136Y13197D01*
X538141Y13884D01*
X537190Y14629D01*
X536285Y15431D01*
X535431Y16285D01*
X534629Y17190D01*
X533884Y18141D01*
X533197Y19136D01*
X532572Y20170D01*
X532010Y21241D01*
X531514Y22343D01*
X531085Y23473D01*
X530726Y24627D01*
X530437Y25800D01*
X530219Y26989D01*
X530073Y28189D01*
X530000Y29396D01*
X530000Y30604D01*
X530073Y31811D01*
X530219Y33011D01*
X530437Y34200D01*
X530726Y35373D01*
X531085Y36527D01*
X531514Y37657D01*
X532010Y38759D01*
X532572Y39830D01*
X533197Y40864D01*
X533884Y41859D01*
X534629Y42810D01*
X535431Y43715D01*
X536285Y44569D01*
X537190Y45371D01*
X538141Y46116D01*
X539136Y46803D01*
X540170Y47428D01*
X541241Y47990D01*
X542343Y48486D01*
X543473Y48915D01*
X544627Y49274D01*
X545800Y49563D01*
X546989Y49781D01*
X548189Y49927D01*
X549396Y50000D01*
X550604Y50000D01*
X551811Y49927D01*
X553011Y49781D01*
X554200Y49563D01*
X555373Y49274D01*
X556527Y48915D01*
X557657Y48486D01*
X558759Y47990D01*
X559830Y47428D01*
X560864Y46803D01*
X561859Y46116D01*
X562810Y45371D01*
X563715Y44569D01*
X564569Y43715D01*
X565371Y42810D01*
X566116Y41859D01*
X566803Y40864D01*
X567428Y39830D01*
X567990Y38759D01*
X568486Y37657D01*
X568915Y36527D01*
X569274Y35373D01*
X569563Y34200D01*
X569781Y33011D01*
X569927Y31811D01*
X570000Y30604D01*
X570000Y29396D01*
X960000Y29396D02*
X959927Y28189D01*
X959781Y26989D01*
X959563Y25800D01*
X959274Y24627D01*
X958915Y23473D01*
X958486Y22343D01*
X957990Y21241D01*
X957428Y20170D01*
X956803Y19136D01*
X956116Y18141D01*
X955371Y17190D01*
X954569Y16285D01*
X953715Y15431D01*
X952810Y14629D01*
X951859Y13884D01*
X950864Y13197D01*
X949830Y12572D01*
X948759Y12010D01*
X947657Y11514D01*
X946527Y11085D01*
X945373Y10726D01*
X944200Y10437D01*
X943011Y10219D01*
X941811Y10073D01*
X940604Y10000D01*
X939396Y10000D01*
X938189Y10073D01*
X936989Y10219D01*
X935800Y10437D01*
X934627Y10726D01*
X933473Y11085D01*
X932343Y11514D01*
X931241Y12010D01*
X930170Y12572D01*
X929136Y13197D01*
X928141Y13884D01*
X927190Y14629D01*
X926285Y15431D01*
X925431Y16285D01*
X924629Y17190D01*
X923884Y18141D01*
X923197Y19136D01*
X922572Y20170D01*
X922010Y21241D01*
X921514Y22343D01*
X921085Y23473D01*
X920726Y24627D01*
X920437Y25800D01*
X920219Y26989D01*
X920073Y28189D01*
X920000Y29396D01*
X920000Y30604D01*
X920073Y31811D01*
X920219Y33011D01*
X920437Y34200D01*
X920726Y35373D01*
X921085Y36527D01*
X921514Y37657D01*
X922010Y38759D01*
X922572Y39830D01*
X923197Y40864D01*
X923884Y41859D01*
X924629Y42810D01*
X925431Y43715D01*
X926285Y44569D01*
X927190Y45371D01*
X928141Y46116D01*
X929136Y46803D01*
X930170Y47428D01*
X931241Y47990D01*
X932343Y48486D01*
X933473Y48915D01*
X934627Y49274D01*
X935800Y49563D01*
X936989Y49781D01*
X938189Y49927D01*
X939396Y50000D01*
X940604Y50000D01*
X941811Y49927D01*
X943011Y49781D01*
X944200Y49563D01*
X945373Y49274D01*
X946527Y48915D01*
X947657Y48486D01*
X948759Y47990D01*
X949830Y47428D01*
X950864Y46803D01*
X951859Y46116D01*
X952810Y45371D01*
X953715Y44569D01*
X954569Y43715D01*
X955371Y42810D01*
X956116Y41859D01*
X956803Y40864D01*
X957428Y39830D01*
X957990Y38759D01*
X958486Y37657D01*
X958915Y36527D01*
X959274Y35373D01*
X959563Y34200D01*
X959781Y33011D01*
X959927Y31811D01*
X960000Y30604D01*
X960000Y29396D01*
X570000Y919396D02*
X569927Y918189D01*
X569781Y916989D01*
X569563Y915800D01*
X569274Y914627D01*
X568915Y913473D01*
X568486Y912343D01*
X567990Y911241D01*
X567428Y910170D01*
X566803Y909136D01*
X566116Y908141D01*
X565371Y907190D01*
X564569Y906285D01*
X563715Y905431D01*
X562810Y904629D01*
X561859Y903884D01*
X560864Y903197D01*
X559830Y902572D01*
X558759Y902010D01*
X557657Y901514D01*
X556527Y901085D01*
X555373Y900726D01*
X554200Y900437D01*
X553011Y900219D01*
X551811Y900073D01*
X550604Y900000D01*
X549396Y900000D01*
X548189Y900073D01*
X546989Y900219D01*
X545800Y900437D01*
X544627Y900726D01*
X543473Y901085D01*
X542343Y901514D01*
X541241Y902010D01*
X540170Y902572D01*
X539136Y903197D01*
X538141Y903884D01*
X537190Y904629D01*
X536285Y905431D01*
X535431Y906285D01*
X534629Y907190D01*
X533884Y908141D01*
X533197Y909136D01*
X532572Y910170D01*
X532010Y911241D01*
X531514Y912343D01*
X531085Y913473D01*
X530726Y914627D01*
X530437Y915800D01*
X530219Y916989D01*
X530073Y918189D01*
X530000Y919396D01*
X530000Y920604D01*
X530073Y921811D01*
X530219Y923011D01*
X530437Y924200D01*
X530726Y925373D01*
X531085Y926527D01*
X531514Y927657D01*
X532010Y928759D01*
X532572Y929830D01*
X533197Y930864D01*
X533884Y931859D01*
X534629Y932810D01*
X535431Y933715D01*
X536285Y934569D01*
X537190Y935371D01*
X538141Y936116D01*
X539136Y936803D01*
X540170Y937428D01*
X541241Y937990D01*
X542343Y938486D01*
X543473Y938915D01*
X544627Y939274D01*
X545800Y939563D01*
X546989Y939781D01*
X548189Y939927D01*
X549396Y940000D01*
X550604Y940000D01*
X551811Y939927D01*
X553011Y939781D01*
X554200Y939563D01*
X555373Y939274D01*
X556527Y938915D01*
X557657Y938486D01*
X558759Y937990D01*
X559830Y937428D01*
X560864Y936803D01*
X561859Y936116D01*
X562810Y935371D01*
X563715Y934569D01*
X564569Y933715D01*
X565371Y932810D01*
X566116Y931859D01*
X566803Y930864D01*
X567428Y929830D01*
X567990Y928759D01*
X568486Y927657D01*
X568915Y926527D01*
X569274Y925373D01*
X569563Y924200D01*
X569781Y923011D01*
X569927Y921811D01*
X570000Y920604D01*
X570000Y919396D01*
X960000Y919396D02*
X959927Y918189D01*
X959781Y916989D01*
X959563Y915800D01*
X959274Y914627D01*
X958915Y913473D01*
X958486Y912343D01*
X957990Y911241D01*
X957428Y910170D01*
X956803Y909136D01*
X956116Y908141D01*
X955371Y907190D01*
X954569Y906285D01*
X953715Y905431D01*
X952810Y904629D01*
X951859Y903884D01*
X950864Y903197D01*
X949830Y902572D01*
X948759Y902010D01*
X947657Y901514D01*
X946527Y901085D01*
X945373Y900726D01*
X944200Y900437D01*
X943011Y900219D01*
X941811Y900073D01*
X940604Y900000D01*
X939396Y900000D01*
X938189Y900073D01*
X936989Y900219D01*
X935800Y900437D01*
X934627Y900726D01*
X933473Y901085D01*
X932343Y901514D01*
X931241Y902010D01*
X930170Y902572D01*
X929136Y903197D01*
X928141Y903884D01*
X927190Y904629D01*
X926285Y905431D01*
X925431Y906285D01*
X924629Y907190D01*
X923884Y908141D01*
X923197Y909136D01*
X922572Y910170D01*
X922010Y911241D01*
X921514Y912343D01*
X921085Y913473D01*
X920726Y914627D01*
X920437Y915800D01*
X920219Y916989D01*
X920073Y918189D01*
X920000Y919396D01*
X920000Y920604D01*
X920073Y921811D01*
X920219Y923011D01*
X920437Y924200D01*
X920726Y925373D01*
X921085Y926527D01*
X921514Y927657D01*
X922010Y928759D01*
X922572Y929830D01*
X923197Y930864D01*
X923884Y931859D01*
X924629Y932810D01*
X925431Y933715D01*
X926285Y934569D01*
X927190Y935371D01*
X928141Y936116D01*
X929136Y936803D01*
X930170Y937428D01*
X931241Y937990D01*
X932343Y938486D01*
X933473Y938915D01*
X934627Y939274D01*
X935800Y939563D01*
X936989Y939781D01*
X938189Y939927D01*
X939396Y940000D01*
X940604Y940000D01*
X941811Y939927D01*
X943011Y939781D01*
X944200Y939563D01*
X945373Y939274D01*
X946527Y938915D01*
X947657Y938486D01*
X948759Y937990D01*
X949830Y937428D01*
X950864Y936803D01*
X951859Y936116D01*
X952810Y935371D01*
X953715Y934569D01*
X954569Y933715D01*
X955371Y932810D01*
X956116Y931859D01*
X956803Y930864D01*
X957428Y929830D01*
X957990Y928759D01*
X958486Y927657D01*
X958915Y926527D01*
X959274Y925373D01*
X959563Y924200D01*
X959781Y923011D01*
X959927Y921811D01*
X960000Y920604D01*
X960000Y919396D01*
X500000Y919396D02*
X499927Y918189D01*
X499781Y916989D01*
X499563Y915800D01*
X499274Y914627D01*
X498915Y913473D01*
X498486Y912343D01*
X497990Y911241D01*
X497428Y910170D01*
X496803Y909136D01*
X496116Y908141D01*
X495371Y907190D01*
X494569Y906285D01*
X493715Y905431D01*
X492810Y904629D01*
X491859Y903884D01*
X490864Y903197D01*
X489830Y902572D01*
X488759Y902010D01*
X487657Y901514D01*
X486527Y901085D01*
X485373Y900726D01*
X484200Y900437D01*
X483011Y900219D01*
X481811Y900073D01*
X480604Y900000D01*
X479396Y900000D01*
X478189Y900073D01*
X476989Y900219D01*
X475800Y900437D01*
X474627Y900726D01*
X473473Y901085D01*
X472343Y901514D01*
X471241Y902010D01*
X470170Y902572D01*
X469136Y903197D01*
X468141Y903884D01*
X467190Y904629D01*
X466285Y905431D01*
X465431Y906285D01*
X464629Y907190D01*
X463884Y908141D01*
X463197Y909136D01*
X462572Y910170D01*
X462010Y911241D01*
X461514Y912343D01*
X461085Y913473D01*
X460726Y914627D01*
X460437Y915800D01*
X460219Y916989D01*
X460073Y918189D01*
X460000Y919396D01*
X460000Y920604D01*
X460073Y921811D01*
X460219Y923011D01*
X460437Y924200D01*
X460726Y925373D01*
X461085Y926527D01*
X461514Y927657D01*
X462010Y928759D01*
X462572Y929830D01*
X463197Y930864D01*
X463884Y931859D01*
X464629Y932810D01*
X465431Y933715D01*
X466285Y934569D01*
X467190Y935371D01*
X468141Y936116D01*
X469136Y936803D01*
X470170Y937428D01*
X471241Y937990D01*
X472343Y938486D01*
X473473Y938915D01*
X474627Y939274D01*
X475800Y939563D01*
X476989Y939781D01*
X478189Y939927D01*
X479396Y940000D01*
X480604Y940000D01*
X481811Y939927D01*
X483011Y939781D01*
X484200Y939563D01*
X485373Y939274D01*
X486527Y938915D01*
X487657Y938486D01*
X488759Y937990D01*
X489830Y937428D01*
X490864Y936803D01*
X491859Y936116D01*
X492810Y935371D01*
X493715Y934569D01*
X494569Y933715D01*
X495371Y932810D01*
X496116Y931859D01*
X496803Y930864D01*
X497428Y929830D01*
X497990Y928759D01*
X498486Y927657D01*
X498915Y926527D01*
X499274Y925373D01*
X499563Y924200D01*
X499781Y923011D01*
X499927Y921811D01*
X500000Y920604D01*
X500000Y919396D01*
X310000Y919396D02*
X309927Y918189D01*
X309781Y916989D01*
X309563Y915800D01*
X309274Y914627D01*
X308915Y913473D01*
X308486Y912343D01*
X307990Y911241D01*
X307428Y910170D01*
X306803Y909136D01*
X306116Y908141D01*
X305371Y907190D01*
X304569Y906285D01*
X303715Y905431D01*
X302810Y904629D01*
X301859Y903884D01*
X300864Y903197D01*
X299830Y902572D01*
X298759Y902010D01*
X297657Y901514D01*
X296527Y901085D01*
X295373Y900726D01*
X294200Y900437D01*
X293011Y900219D01*
X291811Y900073D01*
X290604Y900000D01*
X289396Y900000D01*
X288189Y900073D01*
X286989Y900219D01*
X285800Y900437D01*
X284627Y900726D01*
X283473Y901085D01*
X282343Y901514D01*
X281241Y902010D01*
X280170Y902572D01*
X279136Y903197D01*
X278141Y903884D01*
X277190Y904629D01*
X276285Y905431D01*
X275431Y906285D01*
X274629Y907190D01*
X273884Y908141D01*
X273197Y909136D01*
X272572Y910170D01*
X272010Y911241D01*
X271514Y912343D01*
X271085Y913473D01*
X270726Y914627D01*
X270437Y915800D01*
X270219Y916989D01*
X270073Y918189D01*
X270000Y919396D01*
X270000Y920604D01*
X270073Y921811D01*
X270219Y923011D01*
X270437Y924200D01*
X270726Y925373D01*
X271085Y926527D01*
X271514Y927657D01*
X272010Y928759D01*
X272572Y929830D01*
X273197Y930864D01*
X273884Y931859D01*
X274629Y932810D01*
X275431Y933715D01*
X276285Y934569D01*
X277190Y935371D01*
X278141Y936116D01*
X279136Y936803D01*
X280170Y937428D01*
X281241Y937990D01*
X282343Y938486D01*
X283473Y938915D01*
X284627Y939274D01*
X285800Y939563D01*
X286989Y939781D01*
X288189Y939927D01*
X289396Y940000D01*
X290604Y940000D01*
X291811Y939927D01*
X293011Y939781D01*
X294200Y939563D01*
X295373Y939274D01*
X296527Y938915D01*
X297657Y938486D01*
X298759Y937990D01*
X299830Y937428D01*
X300864Y936803D01*
X301859Y936116D01*
X302810Y935371D01*
X303715Y934569D01*
X304569Y933715D01*
X305371Y932810D01*
X306116Y931859D01*
X306803Y930864D01*
X307428Y929830D01*
X307990Y928759D01*
X308486Y927657D01*
X308915Y926527D01*
X309274Y925373D01*
X309563Y924200D01*
X309781Y923011D01*
X309927Y921811D01*
X310000Y920604D01*
X310000Y919396D01*
X240000Y919396D02*
X239927Y918189D01*
X239781Y916989D01*
X239563Y915800D01*
X239274Y914627D01*
X238915Y913473D01*
X238486Y912343D01*
X237990Y911241D01*
X237428Y910170D01*
X236803Y909136D01*
X236116Y908141D01*
X235371Y907190D01*
X234569Y906285D01*
X233715Y905431D01*
X232810Y904629D01*
X231859Y903884D01*
X230864Y903197D01*
X229830Y902572D01*
X228759Y902010D01*
X227657Y901514D01*
X226527Y901085D01*
X225373Y900726D01*
X224200Y900437D01*
X223011Y900219D01*
X221811Y900073D01*
X220604Y900000D01*
X219396Y900000D01*
X218189Y900073D01*
X216989Y900219D01*
X215800Y900437D01*
X214627Y900726D01*
X213473Y901085D01*
X212343Y901514D01*
X211241Y902010D01*
X210170Y902572D01*
X209136Y903197D01*
X208141Y903884D01*
X207190Y904629D01*
X206285Y905431D01*
X205431Y906285D01*
X204629Y907190D01*
X203884Y908141D01*
X203197Y909136D01*
X202572Y910170D01*
X202010Y911241D01*
X201514Y912343D01*
X201085Y913473D01*
X200726Y914627D01*
X200437Y915800D01*
X200219Y916989D01*
X200073Y918189D01*
X200000Y919396D01*
X200000Y920604D01*
X200073Y921811D01*
X200219Y923011D01*
X200437Y924200D01*
X200726Y925373D01*
X201085Y926527D01*
X201514Y927657D01*
X202010Y928759D01*
X202572Y929830D01*
X203197Y930864D01*
X203884Y931859D01*
X204629Y932810D01*
X205431Y933715D01*
X206285Y934569D01*
X207190Y935371D01*
X208141Y936116D01*
X209136Y936803D01*
X210170Y937428D01*
X211241Y937990D01*
X212343Y938486D01*
X213473Y938915D01*
X214627Y939274D01*
X215800Y939563D01*
X216989Y939781D01*
X218189Y939927D01*
X219396Y940000D01*
X220604Y940000D01*
X221811Y939927D01*
X223011Y939781D01*
X224200Y939563D01*
X225373Y939274D01*
X226527Y938915D01*
X227657Y938486D01*
X228759Y937990D01*
X229830Y937428D01*
X230864Y936803D01*
X231859Y936116D01*
X232810Y935371D01*
X233715Y934569D01*
X234569Y933715D01*
X235371Y932810D01*
X236116Y931859D01*
X236803Y930864D01*
X237428Y929830D01*
X237990Y928759D01*
X238486Y927657D01*
X238915Y926527D01*
X239274Y925373D01*
X239563Y924200D01*
X239781Y923011D01*
X239927Y921811D01*
X240000Y920604D01*
X240000Y919396D01*
X50000Y919396D02*
X49927Y918189D01*
X49781Y916989D01*
X49563Y915800D01*
X49274Y914627D01*
X48915Y913473D01*
X48486Y912343D01*
X47990Y911241D01*
X47428Y910170D01*
X46803Y909136D01*
X46116Y908141D01*
X45371Y907190D01*
X44569Y906285D01*
X43715Y905431D01*
X42810Y904629D01*
X41859Y903884D01*
X40864Y903197D01*
X39830Y902572D01*
X38759Y902010D01*
X37657Y901514D01*
X36527Y901085D01*
X35373Y900726D01*
X34200Y900437D01*
X33011Y900219D01*
X31811Y900073D01*
X30604Y900000D01*
X29396Y900000D01*
X28189Y900073D01*
X26989Y900219D01*
X25800Y900437D01*
X24627Y900726D01*
X23473Y901085D01*
X22343Y901514D01*
X21241Y902010D01*
X20170Y902572D01*
X19136Y903197D01*
X18141Y903884D01*
X17190Y904629D01*
X16285Y905431D01*
X15431Y906285D01*
X14629Y907190D01*
X13884Y908141D01*
X13197Y909136D01*
X12572Y910170D01*
X12010Y911241D01*
X11514Y912343D01*
X11085Y913473D01*
X10726Y914627D01*
X10437Y915800D01*
X10219Y916989D01*
X10073Y918189D01*
X10000Y919396D01*
X10000Y920604D01*
X10073Y921811D01*
X10219Y923011D01*
X10437Y924200D01*
X10726Y925373D01*
X11085Y926527D01*
X11514Y927657D01*
X12010Y928759D01*
X12572Y929830D01*
X13197Y930864D01*
X13884Y931859D01*
X14629Y932810D01*
X15431Y933715D01*
X16285Y934569D01*
X17190Y935371D01*
X18141Y936116D01*
X19136Y936803D01*
X20170Y937428D01*
X21241Y937990D01*
X22343Y938486D01*
X23473Y938915D01*
X24627Y939274D01*
X25800Y939563D01*
X26989Y939781D01*
X28189Y939927D01*
X29396Y940000D01*
X30604Y940000D01*
X31811Y939927D01*
X33011Y939781D01*
X34200Y939563D01*
X35373Y939274D01*
X36527Y938915D01*
X37657Y938486D01*
X38759Y937990D01*
X39830Y937428D01*
X40864Y936803D01*
X41859Y936116D01*
X42810Y935371D01*
X43715Y934569D01*
X44569Y933715D01*
X45371Y932810D01*
X46116Y931859D01*
X46803Y930864D01*
X47428Y929830D01*
X47990Y928759D01*
X48486Y927657D01*
X48915Y926527D01*
X49274Y925373D01*
X49563Y924200D01*
X49781Y923011D01*
X49927Y921811D01*
X50000Y920604D01*
X50000Y919396D01*
M02*
