G04 EAGLE Gerber X2 export*
%TF.Part,Single*%
%TF.FileFunction,Paste,Top*%
%TF.FilePolarity,Positive*%
%TF.GenerationSoftware,Autodesk,EAGLE,9.0.1*%
%TF.CreationDate,2018-05-22T13:38:54Z*%
G75*
%MOMM*%
%FSLAX34Y34*%
%LPD*%
%AMOC8*
5,1,8,0,0,1.08239X$1,22.5*%
G01*
%ADD10R,2.200000X0.600000*%
%ADD11R,2.032000X0.660400*%
%ADD12R,0.925000X0.740000*%
%ADD13R,0.700000X0.900000*%
%ADD14R,0.900000X0.700000*%


D10*
X99000Y531350D03*
X151000Y531350D03*
X99000Y544050D03*
X99000Y518650D03*
X99000Y505950D03*
X151000Y544050D03*
X151000Y518650D03*
X151000Y505950D03*
X359000Y531350D03*
X411000Y531350D03*
X359000Y544050D03*
X359000Y518650D03*
X359000Y505950D03*
X411000Y544050D03*
X411000Y518650D03*
X411000Y505950D03*
D11*
X155734Y170950D03*
X94266Y170950D03*
X155734Y183650D03*
X155734Y196350D03*
X94266Y183650D03*
X94266Y196350D03*
X155734Y209050D03*
X94266Y209050D03*
X415034Y165950D03*
X353566Y165950D03*
X415034Y178650D03*
X415034Y191350D03*
X353566Y178650D03*
X353566Y191350D03*
X415034Y204050D03*
X353566Y204050D03*
D12*
X119000Y465088D03*
X131000Y465088D03*
D13*
X378500Y464992D03*
X391500Y464992D03*
D14*
X182500Y531000D03*
X182500Y544000D03*
X442500Y531000D03*
X442500Y544000D03*
D13*
X111500Y487500D03*
X98500Y487500D03*
X371500Y487500D03*
X358500Y487500D03*
X58500Y545000D03*
X71500Y545000D03*
X71500Y505000D03*
X58500Y505000D03*
X313500Y545000D03*
X326500Y545000D03*
X326500Y505000D03*
X313500Y505000D03*
X71500Y525000D03*
X58500Y525000D03*
D12*
X326000Y525000D03*
X314000Y525000D03*
D13*
X98500Y565000D03*
X111500Y565000D03*
X151500Y565000D03*
X138500Y565000D03*
X358500Y565000D03*
X371500Y565000D03*
X411500Y565000D03*
X398500Y565000D03*
M02*
