G04 EAGLE Gerber X2 export*
%TF.Part,Single*%
%TF.FileFunction,Soldermask,Top,1*%
%TF.FilePolarity,Negative*%
%TF.GenerationSoftware,Autodesk,EAGLE,9.0.1*%
%TF.CreationDate,2018-05-22T13:38:54Z*%
G75*
%MOMM*%
%FSLAX34Y34*%
%LPD*%
%AMOC8*
5,1,8,0,0,1.08239X$1,22.5*%
G01*
%ADD10C,4.203200*%
%ADD11C,2.303200*%
%ADD12C,2.153200*%
%ADD13C,3.203200*%
%ADD14R,2.403200X0.803200*%
%ADD15C,1.853200*%
%ADD16R,2.235200X0.863600*%
%ADD17R,1.128200X0.943200*%
%ADD18R,0.903200X1.103200*%
%ADD19P,1.649562X8X112.500000*%
%ADD20C,1.524000*%
%ADD21R,1.103200X0.903200*%
%ADD22P,1.869504X8X202.500000*%
%ADD23P,2.556822X8X22.500000*%
%ADD24P,1.649562X8X292.500000*%
%ADD25C,0.959600*%


D10*
X30000Y30000D03*
X290000Y30000D03*
X220000Y30000D03*
X480000Y30000D03*
X550000Y30000D03*
X940000Y30000D03*
X550000Y920000D03*
X940000Y920000D03*
X480000Y920000D03*
X290000Y920000D03*
X220000Y920000D03*
X30000Y920000D03*
D11*
X65000Y586000D03*
X65000Y464000D03*
X185000Y586000D03*
X185000Y464000D03*
X125000Y606000D03*
D12*
X125000Y80000D03*
D13*
X160000Y115000D03*
X90000Y115000D03*
X160000Y45000D03*
X90000Y45000D03*
D12*
X385000Y80000D03*
D13*
X420000Y115000D03*
X350000Y115000D03*
X420000Y45000D03*
X350000Y45000D03*
D12*
X690000Y80000D03*
D13*
X725000Y115000D03*
X655000Y115000D03*
X725000Y45000D03*
X655000Y45000D03*
D14*
X99000Y531350D03*
X151000Y531350D03*
X99000Y544050D03*
X99000Y518650D03*
X99000Y505950D03*
X151000Y544050D03*
X151000Y518650D03*
X151000Y505950D03*
D15*
X150000Y400000D03*
D10*
X66500Y330000D03*
X183500Y330000D03*
D15*
X100000Y400000D03*
X100000Y255000D03*
X150000Y255000D03*
X125000Y255000D03*
X150000Y800000D03*
D10*
X66500Y730000D03*
X183500Y730000D03*
D15*
X100000Y800000D03*
X100000Y655000D03*
X150000Y655000D03*
X125000Y655000D03*
X410000Y400000D03*
D10*
X326500Y330000D03*
X443500Y330000D03*
D15*
X360000Y400000D03*
X360000Y255000D03*
X410000Y255000D03*
X385000Y255000D03*
X410000Y800000D03*
D10*
X326500Y730000D03*
X443500Y730000D03*
D15*
X360000Y800000D03*
X360000Y655000D03*
X410000Y655000D03*
X385000Y655000D03*
X665000Y400000D03*
D10*
X581500Y330000D03*
X698500Y330000D03*
D15*
X615000Y400000D03*
X615000Y255000D03*
X665000Y255000D03*
X640000Y255000D03*
X665000Y800000D03*
D10*
X581500Y730000D03*
X698500Y730000D03*
D15*
X615000Y800000D03*
X615000Y655000D03*
X665000Y655000D03*
X640000Y655000D03*
X885000Y370000D03*
D10*
X801500Y300000D03*
X918500Y300000D03*
D15*
X835000Y370000D03*
X835000Y225000D03*
X885000Y225000D03*
X860000Y225000D03*
D11*
X325000Y586000D03*
X325000Y464000D03*
X445000Y586000D03*
X445000Y464000D03*
X385000Y606000D03*
D14*
X359000Y531350D03*
X411000Y531350D03*
X359000Y544050D03*
X359000Y518650D03*
X359000Y505950D03*
X411000Y544050D03*
X411000Y518650D03*
X411000Y505950D03*
D16*
X155734Y170950D03*
X94266Y170950D03*
X155734Y183650D03*
X155734Y196350D03*
X94266Y183650D03*
X94266Y196350D03*
X155734Y209050D03*
X94266Y209050D03*
X415034Y165950D03*
X353566Y165950D03*
X415034Y178650D03*
X415034Y191350D03*
X353566Y178650D03*
X353566Y191350D03*
X415034Y204050D03*
X353566Y204050D03*
D17*
X119000Y465088D03*
X131000Y465088D03*
D18*
X378500Y464992D03*
X391500Y464992D03*
D19*
X61180Y250160D03*
D20*
X61180Y229840D03*
D19*
X201450Y206542D03*
D20*
X201450Y186222D03*
D19*
X320000Y250160D03*
D20*
X320000Y229840D03*
D19*
X451450Y201447D03*
D20*
X451450Y181127D03*
D21*
X182500Y531000D03*
X182500Y544000D03*
X442500Y531000D03*
X442500Y544000D03*
D18*
X111500Y487500D03*
X98500Y487500D03*
X371500Y487500D03*
X358500Y487500D03*
X58500Y545000D03*
X71500Y545000D03*
X71500Y505000D03*
X58500Y505000D03*
X313500Y545000D03*
X326500Y545000D03*
X326500Y505000D03*
X313500Y505000D03*
X71500Y525000D03*
X58500Y525000D03*
D17*
X326000Y525000D03*
X314000Y525000D03*
D18*
X98500Y565000D03*
X111500Y565000D03*
X151500Y565000D03*
X138500Y565000D03*
X358500Y565000D03*
X371500Y565000D03*
X411500Y565000D03*
X398500Y565000D03*
D22*
X214600Y840300D03*
X189200Y840300D03*
X163800Y840300D03*
X138400Y840300D03*
X113000Y840300D03*
X87600Y840300D03*
X214600Y865700D03*
X189200Y865700D03*
X163800Y865700D03*
X138400Y865700D03*
X113000Y865700D03*
X87600Y865700D03*
X62200Y840300D03*
X36800Y840300D03*
X62200Y865700D03*
X36800Y865700D03*
X473900Y840300D03*
X448500Y840300D03*
X423100Y840300D03*
X397700Y840300D03*
X372300Y840300D03*
X346900Y840300D03*
X473900Y865700D03*
X448500Y865700D03*
X423100Y865700D03*
X397700Y865700D03*
X372300Y865700D03*
X346900Y865700D03*
X321500Y840300D03*
X296100Y840300D03*
X321500Y865700D03*
X296100Y865700D03*
X889700Y840300D03*
X864300Y840300D03*
X838900Y840300D03*
X813500Y840300D03*
X788100Y840300D03*
X762700Y840300D03*
X889700Y865700D03*
X864300Y865700D03*
X838900Y865700D03*
X813500Y865700D03*
X788100Y865700D03*
X762700Y865700D03*
X737300Y840300D03*
X711900Y840300D03*
X686500Y840300D03*
X661100Y840300D03*
X635700Y840300D03*
X610300Y840300D03*
X737300Y865700D03*
X711900Y865700D03*
X686500Y865700D03*
X661100Y865700D03*
X635700Y865700D03*
X610300Y865700D03*
D23*
X860000Y135000D03*
X860000Y85000D03*
D24*
X50000Y149840D03*
D20*
X50000Y170160D03*
D24*
X310000Y149840D03*
D20*
X310000Y170160D03*
D24*
X580000Y149840D03*
D20*
X580000Y170160D03*
D25*
X130650Y196382D03*
X390650Y191287D03*
X172500Y563750D03*
X432500Y564000D03*
X125000Y507500D03*
X45000Y515000D03*
X385000Y507500D03*
X300000Y515000D03*
X70000Y630000D03*
X330000Y630000D03*
M02*
