G04 EAGLE Gerber X2 export*
%TF.Part,Single*%
%TF.FileFunction,Soldermask,Bot,1*%
%TF.FilePolarity,Negative*%
%TF.GenerationSoftware,Autodesk,EAGLE,9.0.1*%
%TF.CreationDate,2018-05-22T13:38:54Z*%
G75*
%MOMM*%
%FSLAX34Y34*%
%LPD*%
%AMOC8*
5,1,8,0,0,1.08239X$1,22.5*%
G01*
%ADD10C,4.203200*%
%ADD11C,2.303200*%
%ADD12C,2.153200*%
%ADD13C,3.203200*%
%ADD14C,1.853200*%
%ADD15P,1.649562X8X112.500000*%
%ADD16C,1.524000*%
%ADD17P,1.869504X8X202.500000*%
%ADD18P,2.556822X8X22.500000*%
%ADD19P,1.649562X8X292.500000*%
%ADD20C,0.959600*%


D10*
X30000Y30000D03*
X290000Y30000D03*
X220000Y30000D03*
X480000Y30000D03*
X550000Y30000D03*
X940000Y30000D03*
X550000Y920000D03*
X940000Y920000D03*
X480000Y920000D03*
X290000Y920000D03*
X220000Y920000D03*
X30000Y920000D03*
D11*
X65000Y586000D03*
X65000Y464000D03*
X185000Y586000D03*
X185000Y464000D03*
X125000Y606000D03*
D12*
X125000Y80000D03*
D13*
X160000Y115000D03*
X90000Y115000D03*
X160000Y45000D03*
X90000Y45000D03*
D12*
X385000Y80000D03*
D13*
X420000Y115000D03*
X350000Y115000D03*
X420000Y45000D03*
X350000Y45000D03*
D12*
X690000Y80000D03*
D13*
X725000Y115000D03*
X655000Y115000D03*
X725000Y45000D03*
X655000Y45000D03*
D14*
X150000Y400000D03*
D10*
X66500Y330000D03*
X183500Y330000D03*
D14*
X100000Y400000D03*
X100000Y255000D03*
X150000Y255000D03*
X125000Y255000D03*
X150000Y800000D03*
D10*
X66500Y730000D03*
X183500Y730000D03*
D14*
X100000Y800000D03*
X100000Y655000D03*
X150000Y655000D03*
X125000Y655000D03*
X410000Y400000D03*
D10*
X326500Y330000D03*
X443500Y330000D03*
D14*
X360000Y400000D03*
X360000Y255000D03*
X410000Y255000D03*
X385000Y255000D03*
X410000Y800000D03*
D10*
X326500Y730000D03*
X443500Y730000D03*
D14*
X360000Y800000D03*
X360000Y655000D03*
X410000Y655000D03*
X385000Y655000D03*
X665000Y400000D03*
D10*
X581500Y330000D03*
X698500Y330000D03*
D14*
X615000Y400000D03*
X615000Y255000D03*
X665000Y255000D03*
X640000Y255000D03*
X665000Y800000D03*
D10*
X581500Y730000D03*
X698500Y730000D03*
D14*
X615000Y800000D03*
X615000Y655000D03*
X665000Y655000D03*
X640000Y655000D03*
X885000Y370000D03*
D10*
X801500Y300000D03*
X918500Y300000D03*
D14*
X835000Y370000D03*
X835000Y225000D03*
X885000Y225000D03*
X860000Y225000D03*
D11*
X325000Y586000D03*
X325000Y464000D03*
X445000Y586000D03*
X445000Y464000D03*
X385000Y606000D03*
D15*
X61180Y250160D03*
D16*
X61180Y229840D03*
D15*
X201450Y206542D03*
D16*
X201450Y186222D03*
D15*
X320000Y250160D03*
D16*
X320000Y229840D03*
D15*
X451450Y201447D03*
D16*
X451450Y181127D03*
D17*
X214600Y840300D03*
X189200Y840300D03*
X163800Y840300D03*
X138400Y840300D03*
X113000Y840300D03*
X87600Y840300D03*
X214600Y865700D03*
X189200Y865700D03*
X163800Y865700D03*
X138400Y865700D03*
X113000Y865700D03*
X87600Y865700D03*
X62200Y840300D03*
X36800Y840300D03*
X62200Y865700D03*
X36800Y865700D03*
X473900Y840300D03*
X448500Y840300D03*
X423100Y840300D03*
X397700Y840300D03*
X372300Y840300D03*
X346900Y840300D03*
X473900Y865700D03*
X448500Y865700D03*
X423100Y865700D03*
X397700Y865700D03*
X372300Y865700D03*
X346900Y865700D03*
X321500Y840300D03*
X296100Y840300D03*
X321500Y865700D03*
X296100Y865700D03*
X889700Y840300D03*
X864300Y840300D03*
X838900Y840300D03*
X813500Y840300D03*
X788100Y840300D03*
X762700Y840300D03*
X889700Y865700D03*
X864300Y865700D03*
X838900Y865700D03*
X813500Y865700D03*
X788100Y865700D03*
X762700Y865700D03*
X737300Y840300D03*
X711900Y840300D03*
X686500Y840300D03*
X661100Y840300D03*
X635700Y840300D03*
X610300Y840300D03*
X737300Y865700D03*
X711900Y865700D03*
X686500Y865700D03*
X661100Y865700D03*
X635700Y865700D03*
X610300Y865700D03*
D18*
X860000Y135000D03*
X860000Y85000D03*
D19*
X50000Y149840D03*
D16*
X50000Y170160D03*
D19*
X310000Y149840D03*
D16*
X310000Y170160D03*
D19*
X580000Y149840D03*
D16*
X580000Y170160D03*
D20*
X130650Y196382D03*
X390650Y191287D03*
X172500Y563750D03*
X432500Y564000D03*
X125000Y507500D03*
X45000Y515000D03*
X385000Y507500D03*
X300000Y515000D03*
X70000Y630000D03*
X330000Y630000D03*
M02*
